<svg xmlns="http://www.w3.org/2000/svg" fill="none" viewBox="0 0 14 14"><g clip-path="url(#a)"><path fill="#000" fill-rule="evenodd" d="M2 1.4c0-.086.08-.2.236-.2h7.528c.156 0 .236.114.236.2v11.2c0 .086-.08.2-.236.2H2.236c-.156 0-.236-.114-.236-.2zM2.236 0C1.468 0 .8.602.8 1.4v11.2c0 .798.668 1.4 1.436 1.4h7.528c.768 0 1.436-.602 1.436-1.4V1.4c0-.798-.668-1.4-1.436-1.4zM13.2 2.2a.6.6 0 1 0-1.2 0v1.6a.6.6 0 1 0 1.2 0zM6 5a.4.4 0 1 0 0 .8.4.4 0 0 0 0-.8m-1.6.4a1.6 1.6 0 1 1 3.2 0 1.6 1.6 0 0 1-3.2 0m8.8.8a.6.6 0 1 0-1.2 0v1.6a.6.6 0 1 0 1.2 0zm-.6 3.4a.6.6 0 0 1 .6.6v1.6a.6.6 0 1 1-1.2 0v-1.6a.6.6 0 0 1 .6-.6m-8.4 0c0-.347.053-.544.11-.657a.4.4 0 0 1 .208-.201c.115-.055.288-.097.55-.12S5.634 8.6 6 8.6s.67 0 .931.023c.263.022.436.064.551.119.098.047.16.105.209.201.056.113.109.31.109.657a.6.6 0 0 0 1.2 0c0-.453-.067-.856-.236-1.193a1.6 1.6 0 0 0-.766-.749c-.305-.145-.642-.203-.964-.23A12 12 0 0 0 6.016 7.4h-.032c-.348 0-.7 0-1.018.027-.322.028-.66.086-.964.231-.321.153-.59.395-.766.749C3.066 8.744 3 9.147 3 9.6a.6.6 0 0 0 1.2 0" clip-rule="evenodd"/></g><defs><clipPath id="a"><path fill="#fff" d="M0 0h14v14H0z"/></clipPath></defs></svg>