<svg width="14" height="14" viewBox="0 0 14 14" fill="none" xmlns="http://www.w3.org/2000/svg">
<g id="align-right">
<g clip-path="url(#clip0_156_4605)">
<path id="Vector" fill-rule="evenodd" clip-rule="evenodd" d="M0.599939 1.59998C0.268568 1.59998 -6.10352e-05 1.8686 -6.10352e-05 2.19998C-6.10352e-05 2.53135 0.268568 2.79998 0.599939 2.79998H13.3999C13.7313 2.79998 13.9999 2.53135 13.9999 2.19998C13.9999 1.8686 13.7313 1.59998 13.3999 1.59998H0.599939ZM5.34393 4.79998C5.01256 4.79998 4.74393 5.0686 4.74393 5.39998C4.74393 5.73135 5.01256 5.99998 5.34393 5.99998H13.3439C13.6753 5.99998 13.9439 5.73135 13.9439 5.39998C13.9439 5.0686 13.6753 4.79998 13.3439 4.79998H5.34393ZM-6.10352e-05 8.59998C-6.10352e-05 8.26861 0.268568 7.99998 0.599939 7.99998H13.3999C13.7313 7.99998 13.9999 8.26861 13.9999 8.59998C13.9999 8.93135 13.7313 9.19998 13.3999 9.19998H0.599939C0.268568 9.19998 -6.10352e-05 8.93135 -6.10352e-05 8.59998ZM5.34393 11.2C5.01256 11.2 4.74393 11.4686 4.74393 11.8C4.74393 12.1313 5.01256 12.4 5.34393 12.4H13.3439C13.6753 12.4 13.9439 12.1313 13.9439 11.8C13.9439 11.4686 13.6753 11.2 13.3439 11.2H5.34393Z" fill="black"/>
</g>
</g>
<defs>
<clipPath id="clip0_156_4605">
<rect width="14" height="14" fill="white"/>
</clipPath>
</defs>
</svg>
