<svg xmlns="http://www.w3.org/2000/svg" fill="none" viewBox="0 0 14 14"><g clip-path="url(#a)"><path fill="#000" fill-rule="evenodd" d="M.706 1.643a.595.595 0 0 0 0 1.19h12.699a.595.595 0 1 0 0-1.19zm-.11 3.174a.595.595 0 0 0 0 1.191h7.936a.595.595 0 0 0 0-1.19zM.11 8.587c0-.328.267-.595.595-.595h12.699a.595.595 0 1 1 0 1.19H.706a.595.595 0 0 1-.595-.595m.484 2.58a.595.595 0 1 0 0 1.19h7.937a.595.595 0 0 0 0-1.19z" clip-rule="evenodd"/></g><defs><clipPath id="a"><path fill="#fff" d="M0 0h14v14H0z"/></clipPath></defs></svg>
