<svg width="14" height="14" viewBox="0 0 14 14" fill="none" xmlns="http://www.w3.org/2000/svg">
<g id="align-justify">
<path id="Vector" fill-rule="evenodd" clip-rule="evenodd" d="M0.6 1.59998C0.268629 1.59998 0 1.8686 0 2.19998C0 2.53135 0.268629 2.79998 0.6 2.79998H13.4C13.7314 2.79998 14 2.53135 14 2.19998C14 1.8686 13.7314 1.59998 13.4 1.59998H0.6ZM0.6 4.79998C0.268629 4.79998 0 5.0686 0 5.39998C0 5.73135 0.268629 5.99998 0.6 5.99998H13.4C13.7314 5.99998 14 5.73135 14 5.39998C14 5.0686 13.7314 4.79998 13.4 4.79998H0.6ZM0 8.59998C0 8.26861 0.268629 7.99998 0.6 7.99998H13.4C13.7314 7.99998 14 8.26861 14 8.59998C14 8.93135 13.7314 9.19998 13.4 9.19998H0.6C0.268629 9.19998 0 8.93135 0 8.59998ZM0.6 11.2C0.268629 11.2 0 11.4686 0 11.8C0 12.1313 0.268629 12.4 0.6 12.4H13.4C13.7314 12.4 14 12.1313 14 11.8C14 11.4686 13.7314 11.2 13.4 11.2H0.6Z" fill="black"/>
</g>
</svg>
