<svg width="14" height="14" viewBox="0 0 14 14" fill="none" xmlns="http://www.w3.org/2000/svg">
<g id="align-center">
<path id="Vector" fill-rule="evenodd" clip-rule="evenodd" d="M0.6 1.59998C0.268629 1.59998 0 1.8686 0 2.19998C0 2.53135 0.268629 2.79998 0.6 2.79998H13.4C13.7314 2.79998 14 2.53135 14 2.19998C14 1.8686 13.7314 1.59998 13.4 1.59998H0.6ZM3 4.79998C2.66863 4.79998 2.4 5.0686 2.4 5.39998C2.4 5.73135 2.66863 5.99998 3 5.99998H11C11.3314 5.99998 11.6 5.73135 11.6 5.39998C11.6 5.0686 11.3314 4.79998 11 4.79998H3ZM0 8.59998C0 8.26861 0.268629 7.99998 0.6 7.99998H13.4C13.7314 7.99998 14 8.26861 14 8.59998C14 8.93135 13.7314 9.19998 13.4 9.19998H0.6C0.268629 9.19998 0 8.93135 0 8.59998ZM3 11.2C2.66863 11.2 2.4 11.4686 2.4 11.8C2.4 12.1313 2.66863 12.4 3 12.4H11C11.3314 12.4 11.6 12.1313 11.6 11.8C11.6 11.4686 11.3314 11.2 11 11.2H3Z" fill="black"/>
</g>
</svg>
