<svg xmlns="http://www.w3.org/2000/svg" fill="none" viewBox="0 0 14 14"><g clip-path="url(#a)"><path fill="#000" d="M8.07 4.085c-1.57.056-5.467.485-5.467 3.67 0 3.423 4.46 3.563 5.92 1.35.21.32 1.14 1.172 1.46 1.463l1.832-1.75s-1.042-.79-1.042-1.65V2.571c0-.79-.79-2.571-3.623-2.571-2.839 0-4.345 1.718-4.345 3.259l2.37.213c.526-1.547 1.749-1.547 1.749-1.547 1.315-.002 1.147.932 1.147 2.16m0 2.712c0 2.5-2.716 2.125-2.716.537 0-1.475 1.63-1.771 2.717-1.806zm4.388 5.11C12.21 12.218 10.2 14 6.83 14S.877 11.765.087 10.844c-.22-.24.033-.353.178-.259 2.365 1.39 6.058 3.681 12.016.947.242-.116.43.061.177.374m1.284.068c-.21.493-.517.837-.685.968-.177.141-.306.084-.21-.119.098-.203.624-1.453.41-1.718-.21-.26-1.193-.135-1.548-.1-.349.032-.42.062-.452-.01-.074-.178.7-.484 1.21-.546.506-.056 1.323-.026 1.484.178.12.16 0 .847-.21 1.347"/></g><defs><clipPath id="a"><path fill="#fff" d="M0 0h14v14H0z"/></clipPath></defs></svg>