<svg xmlns="http://www.w3.org/2000/svg" fill="none" viewBox="0 0 14 14"><g fill="#000" clip-path="url(#a)"><path fill-rule="evenodd" d="M9.178 1.436c.778.48 1.355 1.21 1.597 2.064q.1.343.11.7h-7.77c.006-.237.042-.473.109-.7.241-.853.819-1.583 1.596-2.063a3 3 0 0 1 .268-.153l-.15-.266-.465-.834a.124.124 0 0 1 .217-.12l.623 1.113q.07-.03.143-.058.073-.03.147-.055a4.25 4.25 0 0 1 2.797 0q.075.026.146.054.074.027.144.059L9.314.063A.13.13 0 0 1 9.422 0q.03 0 .059.016c.06.033.081.107.048.167l-.468.836-.15.265.036.019.1.055q.066.037.131.078M4.88 2.684c0 .193.159.35.354.35a.35.35 0 0 0 .353-.35.35.35 0 0 0-.353-.35.35.35 0 0 0-.354.35m3.535 0c0 .193.158.35.353.35a.35.35 0 0 0 .354-.35.35.35 0 0 0-.354-.35.35.35 0 0 0-.353.35" clip-rule="evenodd"/><path d="M.875 5.483c0-.45.37-.817.825-.817a.82.82 0 0 1 .824.817v3.733a.82.82 0 0 1-.824.817.82.82 0 0 1-.825-.817zM11.476 5.483c0-.45.37-.817.824-.817a.82.82 0 0 1 .824.817v3.733a.82.82 0 0 1-.824.817.82.82 0 0 1-.824-.817zM3.113 4.666v5.6c0 .516.422.934.942.934h.59v1.984c0 .45.368.816.823.816a.82.82 0 0 0 .825-.816V11.2h1.413v1.984c0 .45.369.816.824.816a.82.82 0 0 0 .824-.816V11.2h.59c.52 0 .941-.418.941-.934v-5.6z"/></g><defs><clipPath id="a"><path fill="#fff" d="M0 0h14v14H0z"/></clipPath></defs></svg>