<svg width="14" height="14" viewBox="0 0 14 14" fill="none" xmlns="http://www.w3.org/2000/svg">
<g id="angle-double-down">
<path id="Vector" fill-rule="evenodd" clip-rule="evenodd" d="M4.03033 1.96967C3.73744 1.67678 3.26256 1.67678 2.96967 1.96967C2.67678 2.26256 2.67678 2.73744 2.96967 3.03033L6.46967 6.53033C6.76256 6.82322 7.23744 6.82322 7.53033 6.53033L11.0303 3.03033C11.3232 2.73744 11.3232 2.26256 11.0303 1.96967C10.7374 1.67678 10.2626 1.67678 9.96967 1.96967L7 4.93934L4.03033 1.96967ZM4.03033 7.46967C3.73744 7.17678 3.26256 7.17678 2.96967 7.46967C2.67678 7.76256 2.67678 8.23744 2.96967 8.53033L6.46967 12.0303C6.76256 12.3232 7.23744 12.3232 7.53033 12.0303L11.0303 8.53033C11.3232 8.23744 11.3232 7.76256 11.0303 7.46967C10.7374 7.17678 10.2626 7.17678 9.96967 7.46967L7 10.4393L4.03033 7.46967Z" fill="black"/>
</g>
</svg>
