<svg width="14" height="14" viewBox="0 0 14 14" fill="none" xmlns="http://www.w3.org/2000/svg">
<g id="angle-double-left">
<path id="Vector" fill-rule="evenodd" clip-rule="evenodd" d="M6.53033 4.03033C6.82322 3.73744 6.82322 3.26256 6.53033 2.96967C6.23744 2.67678 5.76256 2.67678 5.46967 2.96967L1.96967 6.46967C1.67678 6.76256 1.67678 7.23744 1.96967 7.53033L5.46967 11.0303C5.76256 11.3232 6.23744 11.3232 6.53033 11.0303C6.82322 10.7374 6.82322 10.2626 6.53033 9.96967L3.56066 7L6.53033 4.03033ZM12.0303 4.03033C12.3232 3.73744 12.3232 3.26256 12.0303 2.96967C11.7374 2.67678 11.2626 2.67678 10.9697 2.96967L7.46967 6.46967C7.17678 6.76256 7.17678 7.23744 7.46967 7.53033L10.9697 11.0303C11.2626 11.3232 11.7374 11.3232 12.0303 11.0303C12.3232 10.7374 12.3232 10.2626 12.0303 9.96967L9.06066 7L12.0303 4.03033Z" fill="black"/>
</g>
</svg>
