<svg width="14" height="14" viewBox="0 0 14 14" fill="none" xmlns="http://www.w3.org/2000/svg">
<g id="angle-double-right">
<path id="Vector" fill-rule="evenodd" clip-rule="evenodd" d="M3.03033 2.96967C2.73744 2.67678 2.26256 2.67678 1.96967 2.96967C1.67678 3.26256 1.67678 3.73744 1.96967 4.03033L4.93934 7L1.96967 9.96967C1.67678 10.2626 1.67678 10.7374 1.96967 11.0303C2.26256 11.3232 2.73744 11.3232 3.03033 11.0303L6.53033 7.53033C6.82322 7.23744 6.82322 6.76256 6.53033 6.46967L3.03033 2.96967ZM8.53033 2.96967C8.23744 2.67678 7.76256 2.67678 7.46967 2.96967C7.17678 3.26256 7.17678 3.73744 7.46967 4.03033L10.4393 7L7.46967 9.96967C7.17678 10.2626 7.17678 10.7374 7.46967 11.0303C7.76256 11.3232 8.23744 11.3232 8.53033 11.0303L12.0303 7.53033C12.3232 7.23744 12.3232 6.76256 12.0303 6.46967L8.53033 2.96967Z" fill="black"/>
</g>
</svg>
