<svg xmlns="http://www.w3.org/2000/svg" viewBox="0 0 14 14"><path d="M10.954 7.398c-.006-1.147.513-2.012 1.563-2.65-.588-.841-1.476-1.304-2.648-1.394-1.11-.088-2.323.647-2.766.647-.47 0-1.545-.616-2.388-.616-1.744.028-3.597 1.39-3.597 4.163q0 1.229.45 2.538c.4 1.147 1.844 3.96 3.35 3.913.787-.018 1.344-.559 2.37-.559.993 0 1.509.56 2.387.56 1.52-.023 2.826-2.58 3.207-3.729-2.038-.96-1.928-2.813-1.928-2.873m-1.77-5.132c.854-1.012.776-1.934.75-2.266-.753.044-1.625.513-2.122 1.091-.546.619-.868 1.384-.8 2.247.816.062 1.56-.356 2.173-1.072"/></svg>