<svg width="14" height="14" viewBox="0 0 14 14" fill="none" xmlns="http://www.w3.org/2000/svg">
<g id="arrow-up-left">
<path id="Vector" d="M2.54558 2.0096C2.41634 2.03188 2.29248 2.09291 2.19269 2.19269C2.12358 2.26181 2.07306 2.34247 2.04113 2.42847C2.0152 2.49812 2.00074 2.57334 2.00003 2.65185C2.00001 2.65387 2 2.6559 2 2.65792C2 2.65791 2 2.65793 2 2.65792L2 10.1053C2 10.4686 2.29455 10.7632 2.65789 10.7632C3.02124 10.7632 3.31579 10.4686 3.31579 10.1053V4.24619L10.8769 11.8073C11.1338 12.0642 11.5504 12.0642 11.8073 11.8073C12.0642 11.5504 12.0642 11.1338 11.8073 10.8769L4.24624 3.31584H10.1053C10.4686 3.31584 10.7632 3.02129 10.7632 2.65795C10.7632 2.2946 10.4686 2.00005 10.1053 2.00005H2.66631C2.62592 1.99954 2.5855 2.00272 2.54558 2.0096Z" fill="black"/>
</g>
</svg>
