<svg xmlns="http://www.w3.org/2000/svg" fill="none" viewBox="0 0 14 14"><g clip-path="url(#a)"><path fill="#000" fill-rule="evenodd" d="M7 1.167a5.833 5.833 0 1 0 0 11.666A5.833 5.833 0 0 0 7 1.167M0 7a7 7 0 1 1 14 0A7 7 0 0 1 0 7m7.412-3.524 3.112 3.112a.58.58 0 0 1 0 .824l-3.112 3.112a.583.583 0 0 1-.824-.825l2.115-2.116H3.889a.583.583 0 1 1 0-1.166h4.814L6.588 4.3a.583.583 0 0 1 .824-.825" clip-rule="evenodd"/></g><defs><clipPath id="a"><path fill="#fff" d="M0 0h14v14H0z"/></clipPath></defs></svg>