<svg xmlns="http://www.w3.org/2000/svg" viewBox="0 0 14 14"><g clip-path="url(#a)"><path d="M7.424.176a.6.6 0 0 0-.848 0l-2 2a.6.6 0 1 0 .848.848L6.4 2.05V6.4H2.049l.975-.976a.6.6 0 1 0-.848-.848l-2 2a.6.6 0 0 0 0 .848l2 2a.6.6 0 1 0 .848-.848L2.05 7.6H6.4v4.352l-.976-.976a.6.6 0 1 0-.848.848l2 2a.6.6 0 0 0 .848 0l2-2a.6.6 0 0 0-.848-.848l-.976.975V7.6h4.352l-.976.976a.6.6 0 1 0 .848.848l2-2a.6.6 0 0 0 0-.848l-2-2a.6.6 0 0 0-.848.848l.975.976H7.6V2.049l.976.975a.6.6 0 1 0 .848-.848z"/></g><defs><clipPath id="a"><path d="M0 0h14v14H0z"/></clipPath></defs></svg>