<svg xmlns="http://www.w3.org/2000/svg" viewBox="0 0 14 14"><g clip-path="url(#a)"><path d="M10.586.65a.677.677 0 0 1 .957 0l2.259 2.258a.675.675 0 0 1 0 .958l-2.258 2.258a.677.677 0 1 1-.959-.958l1.102-1.101H.677a.677.677 0 1 1 0-1.355h11.01l-1.101-1.102a.68.68 0 0 1 0-.958M3.414 8.834a.677.677 0 0 0-.958-.958L.198 10.134a.675.675 0 0 0 0 .958l2.258 2.258a.678.678 0 0 0 .958-.958L2.313 11.29h11.01a.677.677 0 0 0 0-1.355H2.313z"/></g><defs><clipPath id="a"><path d="M0 0h14v14H0z"/></clipPath></defs></svg>