<svg xmlns="http://www.w3.org/2000/svg" fill="none" viewBox="0 0 14 14"><g clip-path="url(#a)"><path fill="#000" fill-rule="evenodd" d="M12.94 6.364a.636.636 0 0 0 0-1.273H9.808l4.005-4.005a.636.636 0 0 0-.9-.9L8.909 4.191v-3.13a.636.636 0 1 0-1.273 0v4.666c0 .352.285.637.637.637zM1.06 7.636a.636.636 0 1 0 0 1.273h3.131L.186 12.914a.636.636 0 1 0 .9.9l4.005-4.005v3.13a.636.636 0 0 0 1.273 0V8.273a.636.636 0 0 0-.637-.637z" clip-rule="evenodd"/></g><defs><clipPath id="a"><path fill="#fff" d="M0 0h14v14H0z"/></clipPath></defs></svg>