<svg width="14" height="14" viewBox="0 0 14 14" fill="none" xmlns="http://www.w3.org/2000/svg">
<g id="arrow-down-right">
<path id="Vector" d="M3.1231 2.19269C2.86617 1.93577 2.44962 1.93577 2.19269 2.19269C1.93577 2.44961 1.93577 2.86617 2.19269 3.12309L9.75376 10.6842H3.89466C3.53132 10.6842 3.23677 10.9787 3.23677 11.3421C3.23677 11.7054 3.53132 11.9999 3.89466 11.9999H11.3337C11.5048 12.0021 11.6767 11.9379 11.8073 11.8073C11.9384 11.6762 12.0026 11.5036 11.9999 11.3318V3.89471C11.9999 3.53136 11.7054 3.23682 11.342 3.23682C10.9787 3.23682 10.6841 3.53136 10.6841 3.89471V9.75373L3.1231 2.19269Z" fill="black"/>
</g>
</svg>
