<svg width="14" height="14" viewBox="0 0 14 14" fill="none" xmlns="http://www.w3.org/2000/svg">
<g id="arrow-circle-up">
<g clip-path="url(#clip0_154_2640)">
<path id="Vector" fill-rule="evenodd" clip-rule="evenodd" d="M7 1.16667C3.77834 1.16667 1.16667 3.77834 1.16667 7C1.16667 10.2217 3.77834 12.8333 7 12.8333C10.2217 12.8333 12.8333 10.2217 12.8333 7C12.8333 3.77834 10.2217 1.16667 7 1.16667ZM0 7C0 3.13401 3.13401 0 7 0C10.866 0 14 3.13401 14 7C14 10.866 10.866 14 7 14C3.13401 14 0 10.866 0 7ZM7.41248 3.47641L10.5236 6.58752C10.7514 6.81533 10.7514 7.18467 10.5236 7.41248C10.2958 7.64028 9.92644 7.64028 9.69863 7.41248L7.58333 5.29718V10.1111C7.58333 10.4333 7.32217 10.6944 7 10.6944C6.67783 10.6944 6.41667 10.4333 6.41667 10.1111V5.29718L4.30137 7.41248C4.07356 7.64028 3.70422 7.64028 3.47641 7.41248C3.2486 7.18467 3.2486 6.81533 3.47641 6.58752L6.58752 3.47641C6.64345 3.42048 6.70791 3.37828 6.77671 3.34982C6.84549 3.3213 6.92091 3.30556 7 3.30556C7.07909 3.30556 7.15451 3.3213 7.22329 3.34982C7.29209 3.37828 7.35655 3.42048 7.41248 3.47641Z" fill="black"/>
</g>
</g>
<defs>
<clipPath id="clip0_154_2640">
<rect width="14" height="14" fill="white"/>
</clipPath>
</defs>
</svg>
