<svg width="14" height="14" viewBox="0 0 14 14" fill="none" xmlns="http://www.w3.org/2000/svg">
<g id="arrow-circle-left">
<g clip-path="url(#clip0_154_2613)">
<path id="Vector" fill-rule="evenodd" clip-rule="evenodd" d="M7 1.16667C3.77834 1.16667 1.16667 3.77834 1.16667 7C1.16667 10.2217 3.77834 12.8333 7 12.8333C10.2217 12.8333 12.8333 10.2217 12.8333 7C12.8333 3.77834 10.2217 1.16667 7 1.16667ZM0 7C0 3.13401 3.13401 0 7 0C10.866 0 14 3.13401 14 7C14 10.866 10.866 14 7 14C3.13401 14 0 10.866 0 7ZM7.41248 3.47641C7.64028 3.70422 7.64028 4.07356 7.41248 4.30137L5.29718 6.41667H10.1111C10.4333 6.41667 10.6944 6.67783 10.6944 7C10.6944 7.32217 10.4333 7.58333 10.1111 7.58333H5.29718L7.41248 9.69863C7.64028 9.92644 7.64028 10.2958 7.41248 10.5236C7.18467 10.7514 6.81533 10.7514 6.58752 10.5236L3.47641 7.41248C3.42048 7.35655 3.37828 7.29209 3.34982 7.22329C3.3213 7.15451 3.30556 7.07909 3.30556 7C3.30556 6.92091 3.3213 6.84549 3.34982 6.77671C3.37828 6.70791 3.42048 6.64345 3.47641 6.58752L6.58752 3.47641C6.81533 3.2486 7.18467 3.2486 7.41248 3.47641Z" fill="black"/>
</g>
</g>
<defs>
<clipPath id="clip0_154_2613">
<rect width="14" height="14" fill="white"/>
</clipPath>
</defs>
</svg>
