<svg xmlns="http://www.w3.org/2000/svg" fill="none" viewBox="0 0 14 14"><g clip-path="url(#a)"><path fill="#000" fill-rule="evenodd" d="M8.697 0a.636.636 0 1 0 0 1.273h3.13L7.823 5.277a.636.636 0 0 0 .9.9l4.004-4.004v3.13a.636.636 0 0 0 1.273 0V.636A.636.636 0 0 0 13.364 0zM5.303 14a.636.636 0 0 0 0-1.273h-3.13l4.004-4.004a.636.636 0 1 0-.9-.9l-4.004 4.004v-3.13a.636.636 0 0 0-1.273 0v4.667c0 .351.285.636.636.636z" clip-rule="evenodd"/></g><defs><clipPath id="a"><path fill="#fff" d="M0 0h14v14H0z"/></clipPath></defs></svg>