<svg width="14" height="14" viewBox="0 0 14 14" fill="none" xmlns="http://www.w3.org/2000/svg">
<g id="arrow-up-right">
<path id="Vector" d="M11.9999 2.66822C12.0026 2.49643 11.9384 2.32378 11.8073 2.19269C11.6767 2.06209 11.5048 1.99788 11.3337 2.00005L3.89467 2.00005C3.53133 2.00005 3.23678 2.2946 3.23678 2.65795C3.23678 3.02129 3.53133 3.31584 3.89467 3.31584H9.75375L2.19271 10.8769C1.93578 11.1338 1.93578 11.5504 2.19271 11.8073C2.44963 12.0642 2.86619 12.0642 3.12311 11.8073L10.6841 4.24627V10.1053C10.6841 10.4686 10.9787 10.7632 11.342 10.7632C11.7054 10.7632 11.9999 10.4686 11.9999 10.1053V2.66822Z" fill="black"/>
</g>
</svg>
