<svg width="14" height="14" viewBox="0 0 14 14" fill="none" xmlns="http://www.w3.org/2000/svg">
<g id="arrows-v">
<path id="Vector" fill-rule="evenodd" clip-rule="evenodd" d="M7 0C7.08135 0 7.15893 0.0161913 7.22967 0.0455273C7.30044 0.0748071 7.36674 0.11821 7.42426 0.175736L10.6243 3.37574C10.8586 3.61005 10.8586 3.98995 10.6243 4.22426C10.39 4.45858 10.0101 4.45858 9.77574 4.22426L7.6 2.04853V11.9515L9.77574 9.77574C10.0101 9.54142 10.39 9.54142 10.6243 9.77574C10.8586 10.0101 10.8586 10.3899 10.6243 10.6243L7.42426 13.8243C7.36674 13.8818 7.30044 13.9252 7.22967 13.9545C7.16793 13.9801 7.10099 13.9957 7.03088 13.9992C7.02065 13.9997 7.01036 14 7 14C6.84645 14 6.69289 13.9414 6.57574 13.8243L3.37574 10.6243C3.14142 10.3899 3.14142 10.0101 3.37574 9.77574C3.61005 9.54142 3.98995 9.54142 4.22426 9.77574L6.4 11.9515V2.04853L4.22426 4.22426C3.98995 4.45858 3.61005 4.45858 3.37574 4.22426C3.14142 3.98995 3.14142 3.61005 3.37574 3.37574L6.57574 0.175736C6.63326 0.11821 6.69956 0.0748071 6.77033 0.0455273C6.84107 0.0161913 6.91865 0 7 0Z" fill="black"/>
</g>
</svg>
