<svg width="14" height="14" viewBox="0 0 14 14" fill="none" xmlns="http://www.w3.org/2000/svg">
<g id="arrow-down-left">
<path id="Vector" d="M11.8073 3.12309C12.0642 2.86617 12.0642 2.44961 11.8073 2.19269C11.5503 1.93577 11.1338 1.93577 10.8768 2.19269L3.31576 9.75381V3.89471C3.31576 3.53136 3.02121 3.23682 2.65786 3.23682C2.29452 3.23682 1.99997 3.53136 1.99997 3.89471V11.3421C1.99997 11.4228 2.0145 11.5001 2.0411 11.5715C2.07303 11.6575 2.12355 11.7382 2.19266 11.8073C2.27295 11.8876 2.36883 11.9428 2.47055 11.9729C2.49988 11.9816 2.52968 11.9882 2.55974 11.9927C2.59504 11.998 2.63068 12.0004 2.66629 11.9999H10.1052C10.4686 11.9999 10.7631 11.7054 10.7631 11.3421C10.7631 10.9787 10.4686 10.6842 10.1052 10.6842H4.24621L11.8073 3.12309Z" fill="black"/>
</g>
</svg>
