<svg width="14" height="14" viewBox="0 0 14 14" fill="none" xmlns="http://www.w3.org/2000/svg">
<g id="arrow-circle-down">
<g clip-path="url(#clip0_154_2624)">
<path id="Vector" fill-rule="evenodd" clip-rule="evenodd" d="M7 1.16667C3.77834 1.16667 1.16667 3.77834 1.16667 7C1.16667 10.2217 3.77834 12.8333 7 12.8333C10.2217 12.8333 12.8333 10.2217 12.8333 7C12.8333 3.77834 10.2217 1.16667 7 1.16667ZM0 7C0 3.13401 3.13401 0 7 0C10.866 0 14 3.13401 14 7C14 10.866 10.866 14 7 14C3.13401 14 0 10.866 0 7ZM3.47641 6.58752C3.70422 6.35972 4.07356 6.35972 4.30137 6.58752L6.41667 8.70282V3.88889C6.41667 3.56672 6.67783 3.30556 7 3.30556C7.32217 3.30556 7.58333 3.56672 7.58333 3.88889V8.70282L9.69863 6.58752C9.92644 6.35972 10.2958 6.35972 10.5236 6.58752C10.7514 6.81533 10.7514 7.18467 10.5236 7.41248L7.41248 10.5236C7.29858 10.6375 7.14929 10.6944 7 10.6944C6.92091 10.6944 6.84549 10.6787 6.77671 10.6502C6.70791 10.6217 6.64345 10.5795 6.58752 10.5236L3.47641 7.41248C3.2486 7.18467 3.2486 6.81533 3.47641 6.58752Z" fill="black"/>
</g>
</g>
<defs>
<clipPath id="clip0_154_2624">
<rect width="14" height="14" fill="white"/>
</clipPath>
</defs>
</svg>
