<svg width="14" height="14" viewBox="0 0 14 14" fill="none" xmlns="http://www.w3.org/2000/svg">
<g id="arrow-circle-right">
<g clip-path="url(#clip0_154_2619)">
<path id="Vector" fill-rule="evenodd" clip-rule="evenodd" d="M7 1.16667C3.77834 1.16667 1.16667 3.77834 1.16667 7C1.16667 10.2217 3.77834 12.8333 7 12.8333C10.2217 12.8333 12.8333 10.2217 12.8333 7C12.8333 3.77834 10.2217 1.16667 7 1.16667ZM0 7C0 3.13401 3.13401 0 7 0C10.866 0 14 3.13401 14 7C14 10.866 10.866 14 7 14C3.13401 14 0 10.866 0 7ZM7.41248 3.47641L10.5236 6.58752C10.6375 6.70142 10.6944 6.85071 10.6944 7C10.6944 7.07909 10.6787 7.15451 10.6502 7.22329C10.6217 7.29209 10.5795 7.35655 10.5236 7.41248L7.41248 10.5236C7.18467 10.7514 6.81533 10.7514 6.58752 10.5236C6.35972 10.2958 6.35972 9.92644 6.58752 9.69863L8.70282 7.58333H3.88889C3.56672 7.58333 3.30556 7.32217 3.30556 7C3.30556 6.67783 3.56672 6.41667 3.88889 6.41667H8.70282L6.58752 4.30137C6.35972 4.07356 6.35972 3.70422 6.58752 3.47641C6.81533 3.2486 7.18467 3.2486 7.41248 3.47641Z" fill="black"/>
</g>
</g>
<defs>
<clipPath id="clip0_154_2619">
<rect width="14" height="14" fill="white"/>
</clipPath>
</defs>
</svg>
