<svg xmlns="http://www.w3.org/2000/svg" fill="none" viewBox="0 0 14 14"><g clip-path="url(#a)"><path fill="#000" fill-rule="evenodd" d="M7.677.677a.677.677 0 1 0-1.354 0v5.15l-4.46-2.575a.677.677 0 1 0-.677 1.173L5.646 7l-4.46 2.575a.677.677 0 0 0 .677 1.173l4.46-2.575v5.15a.677.677 0 0 0 1.354 0v-5.15l4.46 2.575a.678.678 0 0 0 .677-1.173L8.354 7l4.46-2.575a.677.677 0 0 0-.677-1.173l-4.46 2.575z" clip-rule="evenodd"/></g><defs><clipPath id="a"><path fill="#fff" d="M0 0h14v14H0z"/></clipPath></defs></svg>