<svg xmlns="http://www.w3.org/2000/svg" fill="none" viewBox="0 0 14 14"><g clip-path="url(#a)"><path fill="#000" fill-rule="evenodd" d="M1.2 7c0-3.205 2.595-5.8 5.8-5.8 2.645 0 4.043.901 4.809 1.994.794 1.132.991 2.582.991 3.806v1.104a1.169 1.169 0 0 1-2.336 0v-.866a4 4 0 0 0 0-.476V4.128a.6.6 0 1 0-1.2 0v.24a3.472 3.472 0 1 0 .33 4.941A2.367 2.367 0 0 0 14 8.104V7c0-1.312-.203-3.062-1.209-4.496C11.757 1.031 9.955 0 7 0 3.133 0 0 3.133 0 7c0 3.863 3.065 7 7 7a.6.6 0 1 0 0-1.2c-3.265 0-5.8-2.591-5.8-5.8m8.064-.192v.384a2.272 2.272 0 1 1 0-.384" clip-rule="evenodd"/></g><defs><clipPath id="a"><path fill="#fff" d="M0 0h14v14H0z"/></clipPath></defs></svg>