<svg width="14" height="14" viewBox="0 0 14 14" fill="none" xmlns="http://www.w3.org/2000/svg">
<g id="backward">
<g clip-path="url(#clip0_156_4560)">
<path id="Vector" fill-rule="evenodd" clip-rule="evenodd" d="M7.176 1.4C7.176 1.16087 7.034 0.944562 6.81458 0.849474C6.59516 0.754386 6.34023 0.798671 6.16573 0.962187L0.189733 6.56219C0.0686833 6.67562 0 6.83411 0 7C0 7.16589 0.0686833 7.32438 0.189733 7.43781L6.16573 13.0378C6.34023 13.2013 6.59516 13.2456 6.81458 13.1505C7.034 13.0554 7.176 12.8391 7.176 12.6V7.58987L12.9897 13.0378C13.1642 13.2013 13.4192 13.2456 13.6386 13.1505C13.858 13.0554 14 12.8391 14 12.6V1.4C14 1.16087 13.858 0.944562 13.6386 0.849474C13.4192 0.754386 13.1642 0.798671 12.9897 0.962187L7.176 6.41013V1.4ZM5.976 11.2155L1.47748 7L5.976 2.78452V11.2155ZM12.8 11.2155L8.30148 7L12.8 2.78452V11.2155Z" fill="black"/>
</g>
</g>
<defs>
<clipPath id="clip0_156_4560">
<rect width="14" height="14" fill="white"/>
</clipPath>
</defs>
</svg>
