<svg width="14" height="14" viewBox="0 0 14 14" fill="none" xmlns="http://www.w3.org/2000/svg">
<g id="ban">
<g clip-path="url(#clip0_156_4592)">
<path id="Vector" fill-rule="evenodd" clip-rule="evenodd" d="M3.3082 2.48331C4.3138 1.66039 5.59924 1.16667 7 1.16667C10.2217 1.16667 12.8333 3.77834 12.8333 7C12.8333 8.40076 12.3396 9.6862 11.5167 10.6918L3.3082 2.48331ZM2.48325 3.30828C1.66037 4.31386 1.16667 5.59928 1.16667 7C1.16667 10.2217 3.77834 12.8333 7 12.8333C8.40072 12.8333 9.68614 12.3396 10.6917 11.5168L2.48325 3.30828ZM7 0C3.13401 0 0 3.13401 0 7C0 10.866 3.13401 14 7 14C10.866 14 14 10.866 14 7C14 3.13401 10.866 0 7 0Z" fill="black"/>
</g>
</g>
<defs>
<clipPath id="clip0_156_4592">
<rect width="14" height="14" fill="white"/>
</clipPath>
</defs>
</svg>
