<svg xmlns="http://www.w3.org/2000/svg" fill="none" viewBox="0 0 14 14"><g clip-path="url(#a)"><path fill="#000" fill-rule="evenodd" d="M.778.778A.78.78 0 0 0 0 1.556v10.889a.778.778 0 1 0 1.556 0V1.554A.78.78 0 0 0 .778.779m2.333 0a.39.39 0 0 0-.389.389v11.666a.389.389 0 1 0 .778 0V1.167a.39.39 0 0 0-.389-.39m1.945 0a.39.39 0 0 0-.39.389v11.666a.389.389 0 1 0 .778 0V1.167a.39.39 0 0 0-.388-.39m7.777.583a.583.583 0 0 1 1.167 0V12.64a.583.583 0 1 1-1.167 0zm-5.444.195a.778.778 0 0 1 1.555 0v10.889a.778.778 0 1 1-1.555 0zm3.5-.778a.78.78 0 0 0-.778.778v10.889a.778.778 0 1 0 1.556 0V1.554a.78.78 0 0 0-.778-.777" clip-rule="evenodd"/></g><defs><clipPath id="a"><path fill="#fff" d="M0 0h14v14H0z"/></clipPath></defs></svg>