<svg width="14" height="14" viewBox="0 0 14 14" fill="none" xmlns="http://www.w3.org/2000/svg">
<g id="bars">
<path id="Vector" fill-rule="evenodd" clip-rule="evenodd" d="M0 2.93548C0 2.56135 0.303291 2.25806 0.677419 2.25806H13.3226C13.6967 2.25806 14 2.56135 14 2.93548C14 3.3096 13.6967 3.6129 13.3226 3.6129H0.677419C0.303291 3.6129 0 3.3096 0 2.93548ZM0 6.99999C0 6.62586 0.303291 6.32257 0.677419 6.32257H13.3226C13.6967 6.32257 14 6.62586 14 6.99999C14 7.37412 13.6967 7.67741 13.3226 7.67741H0.677419C0.303291 7.67741 0 7.37412 0 6.99999ZM0.677419 10.3871C0.303291 10.3871 0 10.6904 0 11.0645C0 11.4386 0.303291 11.7419 0.677419 11.7419H13.3226C13.6967 11.7419 14 11.4386 14 11.0645C14 10.6904 13.6967 10.3871 13.3226 10.3871H0.677419Z" fill="black"/>
</g>
</svg>
