<svg xmlns="http://www.w3.org/2000/svg" fill="none" viewBox="0 0 14 14"><g clip-path="url(#a)"><path fill="#000" fill-rule="evenodd" d="M7 .378C5.438.378 4.199.9 3.358 1.846c-.832.935-1.216 2.22-1.216 3.64 0 2.587-.526 3.76-.945 4.279-.207.255-.396.364-.511.411a.6.6 0 0 1-.138.04.568.568 0 0 0 .02 1.135h3.65A2.835 2.835 0 0 0 7 13.621a2.835 2.835 0 0 0 2.781-2.27h3.651a.568.568 0 0 0 .02-1.135h-.001q-.005 0-.012-.002a.6.6 0 0 1-.125-.038c-.115-.047-.304-.156-.511-.411-.42-.519-.945-1.692-.945-4.279 0-1.42-.383-2.705-1.216-3.64C9.801.9 8.562.378 7 .378m1.606 10.973A1.7 1.7 0 0 1 7 12.486a1.7 1.7 0 0 1-1.606-1.135zm3.123-1.135c-.564-.85-1.006-2.29-1.006-4.73 0-1.227-.331-2.213-.929-2.886C9.205 1.938 8.298 1.513 7 1.513S4.795 1.938 4.206 2.6c-.598.673-.93 1.659-.93 2.886 0 2.44-.441 3.88-1.005 4.73z" clip-rule="evenodd"/></g><defs><clipPath id="a"><path fill="#fff" d="M0 0h14v14H0z"/></clipPath></defs></svg>