<svg xmlns="http://www.w3.org/2000/svg" viewBox="0 0 14 14"><g clip-path="url(#a)"><path fill-rule="evenodd" d="M7 .378c-1.183 0-2.185.299-2.972.864-.405.29-.725.713-.94 1.044L2.105 1.3a.568.568 0 1 0-.803.803l1.514 1.514 7.568 7.567 1.513 1.514a.568.568 0 0 0 .803-.803l-.545-.545h1.278a.568.568 0 0 0 .02-1.134h-.001l-.012-.002a.6.6 0 0 1-.125-.039c-.115-.047-.304-.156-.511-.411-.42-.519-.945-1.692-.945-4.278 0-1.422-.383-2.705-1.216-3.641C9.801.9 8.562.378 7 .378M4.014 2.945q-.054.087-.1.166l7.105 7.105h.71c-.564-.85-1.006-2.29-1.006-4.73 0-1.227-.331-2.213-.929-2.886C9.204 1.938 8.298 1.514 7 1.514c-.99 0-1.749.247-2.31.65-.248.178-.486.483-.676.78m-.737 2.542a.568.568 0 0 0-1.135 0c0 1.062-.09 1.889-.224 2.531-.26 1.235-.685 1.767-.965 1.994a1 1 0 0 1-.332.188 1 1 0 0 1-.071.016H.547a.568.568 0 0 0 .02 1.135H4.22A2.835 2.835 0 0 0 7 13.621c1.02 0 1.914-.536 2.414-1.342a.568.568 0 0 0-.965-.598c-.3.485-.836.806-1.449.806a1.7 1.7 0 0 1-1.606-1.136h2.363a.568.568 0 0 0 0-1.135H2.27c.305-.46.575-1.095.758-1.964.154-.735.248-1.642.248-2.765" clip-rule="evenodd"/></g><defs><clipPath id="a"><path d="M0 0h14v14H0z"/></clipPath></defs></svg>