<svg xmlns="http://www.w3.org/2000/svg" viewBox="0 0 14 14"><g clip-path="url(#a)"><path d="M8.33 8.464c-.236.954-1.84.439-2.361.305l.42-1.686c.521.127 2.19.388 1.94 1.38M6.962 4.773l-.381 1.534c.439.108 1.775.547 1.991-.319.222-.904-1.17-1.107-1.61-1.215m6.828 3.92a7 7 0 0 1-8.483 5.098A7 7 0 0 1 .21 5.307 6.995 6.995 0 0 1 8.693.21a7 7 0 0 1 5.097 8.483m-9.094-.516c-.039.096-.134.236-.35.185-.039 0-.56-.14-.56-.14l-.382.879 1 .248c.19.05.369.095.547.146l-.311 1.273.764.191.318-1.26c.21.057.407.109.61.16l-.318 1.253.77.19.319-1.272c1.31.248 2.298.146 2.71-1.037.331-.955-.019-1.501-.706-1.865.504-.114.879-.445.98-1.126.14-.929-.566-1.431-1.54-1.763l.319-1.266-.77-.19-.305 1.228c-.204-.051-.414-.096-.617-.146l.305-1.235-.764-.19-.318 1.26q-.25-.059-.49-.115L4.85 3.317l-.204.82s.56.128.56.14c.305.077.363.28.356.446z"/></g><defs><clipPath id="a"><path d="M0 0h14v14H0z"/></clipPath></defs></svg>