<svg xmlns="http://www.w3.org/2000/svg" fill="none" viewBox="0 0 14 14"><g clip-path="url(#a)"><path fill="#000" fill-rule="evenodd" d="M6.9 2.737 4.995 5.67 3.894 7.51H6.93a.627.627 0 0 1 .627.627v.04L7.1 11.264 9.005 8.33l1.101-1.839H7.07a.627.627 0 0 1-.627-.627v-.04zM7.888.03c.226.072.436.29.436.598v.04l-.698 4.717h3.323a.63.63 0 0 1 .537.954L9.944 8.915l-3.116 4.8a.627.627 0 0 1-1.151-.343v-.04l.697-4.717H3.05a.63.63 0 0 1-.537-.954l1.542-2.576 3.116-4.8A.62.62 0 0 1 7.888.03" clip-rule="evenodd"/></g><defs><clipPath id="a"><path fill="#fff" d="M0 0h14v14H0z"/></clipPath></defs></svg>