<svg width="14" height="14" viewBox="0 0 14 14" fill="none" xmlns="http://www.w3.org/2000/svg">
<g id="bookmark">
<path id="Vector" fill-rule="evenodd" clip-rule="evenodd" d="M4 1.2C3.45137 1.2 3 1.65137 3 2.2V12.2517L6.65736 9.70746C6.86332 9.56418 7.13668 9.56418 7.34264 9.70746L11 12.2517V2.2C11 1.65137 10.5486 1.2 10 1.2H4ZM1.8 2.2C1.8 0.988629 2.78863 0 4 0H10C11.2114 0 12.2 0.988629 12.2 2.2V13.4C12.2 13.6234 12.0759 13.8283 11.8779 13.9318C11.6799 14.0352 11.4408 14.0201 11.2574 13.8925L7 10.9309L2.74264 13.8925C2.55924 14.0201 2.32015 14.0352 2.12214 13.9318C1.92413 13.8283 1.8 13.6234 1.8 13.4V2.2Z" fill="black"/>
</g>
</svg>
