<svg xmlns="http://www.w3.org/2000/svg" fill="none" viewBox="0 0 14 14"><g clip-path="url(#a)"><path fill="#000" fill-rule="evenodd" d="M2 1.88c0-.325.305-.68.8-.68H12v8.4H3.152c-.411 0-.807.102-1.152.284zm0 9.92c0 .5.464 1 1.152 1H12v-2H3.152c-.688 0-1.152.5-1.152 1m11.2-1.6V.6a.6.6 0 0 0-.6-.6H2.8C1.743 0 .8.797.8 1.88v9.92c0 1.26 1.104 2.2 2.352 2.2H12.6a.6.6 0 0 0 .6-.6zM3.8 3.8a.6.6 0 0 1 .6-.6h5.2a.6.6 0 1 1 0 1.2H4.4a.6.6 0 0 1-.6-.6M4.4 6a.6.6 0 0 0 0 1.2h5.2a.6.6 0 1 0 0-1.2z" clip-rule="evenodd"/></g><defs><clipPath id="a"><path fill="#fff" d="M0 0h14v14H0z"/></clipPath></defs></svg>