<svg xmlns="http://www.w3.org/2000/svg" viewBox="0 0 14 14"><g clip-path="url(#a)"><path d="M13.983 10.614c.004-.028.017-.053.017-.083V3.47a.6.6 0 0 0-.068-.264.62.62 0 0 0-.288-.284L7.244.053a.6.6 0 0 0-.49 0L.354 2.92A.63.63 0 0 0 0 3.47v7.062a.65.65 0 0 0 .355.548l6.4 2.869a.6.6 0 0 0 .49 0l6.4-2.869c.171-.098.326-.257.338-.465M1.2 4.396l5.2 2.33v5.747l-5.2-2.33zm6.4 2.332 5.199-2.331v5.746l-5.2 2.33zM7 1.258l4.932 2.211L7 5.681 2.066 3.47z"/></g><defs><clipPath id="a"><path d="M0 0h14v14H0z"/></clipPath></defs></svg>