<svg xmlns="http://www.w3.org/2000/svg" fill="none" viewBox="0 0 14 14"><g clip-path="url(#a)"><path fill="#000" fill-rule="evenodd" d="M6 .4c-.752 0-1.6.511-1.6 1.4v1h-3A1.4 1.4 0 0 0 0 4.2v8a1.4 1.4 0 0 0 1.4 1.4h11.2a1.4 1.4 0 0 0 1.4-1.4v-8a1.4 1.4 0 0 0-1.4-1.4h-3v-1C9.6.911 8.752.4 8 .4zM1.2 12.2V8h2v1.8a.6.6 0 0 0 .6.6h6.4a.6.6 0 0 0 .6-.6V8h2v4.2a.2.2 0 0 1-.2.2H1.4a.2.2 0 0 1-.2-.2M9.6 8v1.2H4.4V8zm.6-1.2h2.6V4.2a.2.2 0 0 0-.2-.2H1.4a.2.2 0 0 0-.2.2v2.6h9m-1.8-4v-1c0-.004-.001-.043-.068-.097A.54.54 0 0 0 8 1.6H6a.54.54 0 0 0-.332.103c-.067.054-.068.093-.068.097v1z" clip-rule="evenodd"/></g><defs><clipPath id="a"><path fill="#fff" d="M0 0h14v14H0z"/></clipPath></defs></svg>