<svg xmlns="http://www.w3.org/2000/svg" fill="none" viewBox="0 0 14 14"><path fill="#000" fill-rule="evenodd" d="M2.4.6A.6.6 0 0 1 3 0h8a.6.6 0 0 1 .6.6v12.2h.4a.6.6 0 1 1 0 1.2H2a.6.6 0 1 1 0-1.2h.4zm8 .6v11.6H6.2V11c0-.224-.176-.4-.4-.4H5c-.224 0-.4.176-.4.4v1.8h-1V1.2zM5 2.2h.8c.22 0 .4.18.4.4v.8a.4.4 0 0 1-.4.4H5a.4.4 0 0 1-.4-.4v-.8c0-.22.18-.4.4-.4m4 0h-.8a.4.4 0 0 0-.4.4v.8c0 .22.18.4.4.4H9a.4.4 0 0 0 .4-.4v-.8a.4.4 0 0 0-.4-.4M5 5h.8c.22 0 .4.18.4.4v.8a.4.4 0 0 1-.4.4H5a.4.4 0 0 1-.4-.4v-.8c0-.22.18-.4.4-.4m4 0h-.8a.4.4 0 0 0-.4.4v.8c0 .22.18.4.4.4H9a.4.4 0 0 0 .4-.4v-.8A.4.4 0 0 0 9 5M5 7.8h.8c.22 0 .4.18.4.4V9a.4.4 0 0 1-.4.4H5a.4.4 0 0 1-.4-.4v-.8c0-.22.18-.4.4-.4m4 0h-.8a.4.4 0 0 0-.4.4V9c0 .22.18.4.4.4H9a.4.4 0 0 0 .4-.4v-.8a.4.4 0 0 0-.4-.4" clip-rule="evenodd"/></svg>