<svg xmlns="http://www.w3.org/2000/svg" viewBox="0 0 14 14"><g clip-path="url(#a)"><path fill-rule="evenodd" d="M7.087 1.87a.18.18 0 0 0-.174 0L.8 5.264a.538.538 0 0 1-.523-.941L6.39.928c.38-.21.84-.21 1.22 0l6.113 3.396a.538.538 0 1 1-.523.941zM5.026 4.794c0-.298.24-.539.538-.539h2.872a.538.538 0 0 1 0 1.077H5.564a.54.54 0 0 1-.538-.538M2.692 6.41c.298 0 .539.241.539.538v3.59a.538.538 0 0 1-1.077 0v-3.59c0-.297.241-.538.538-.538m2.872 0c.298 0 .539.241.539.538v3.59a.538.538 0 1 1-1.077 0v-3.59c0-.297.24-.538.538-.538m2.872 0c.297 0 .538.241.538.538v3.59a.538.538 0 0 1-1.077 0v-3.59c0-.297.242-.538.539-.538m2.872 0c.297 0 .538.241.538.538v3.59a.538.538 0 0 1-1.077 0v-3.59c0-.297.241-.538.539-.538m-9.872 6.282c0-.297.241-.539.538-.539h10.052a.538.538 0 0 1 0 1.077H1.974a.54.54 0 0 1-.538-.538" clip-rule="evenodd"/></g><defs><clipPath id="a"><path d="M0 0h14v14H0z"/></clipPath></defs></svg>