<svg xmlns="http://www.w3.org/2000/svg" fill="none" viewBox="0 0 14 14"><g clip-path="url(#a)"><path fill="#000" fill-rule="evenodd" d="M7 1.167a5.833 5.833 0 1 0 0 11.666A5.833 5.833 0 0 0 7 1.167M0 7a7 7 0 1 1 14 0A7 7 0 0 1 0 7m7-3.403a3.403 3.403 0 1 0 0 6.805 3.403 3.403 0 0 0 0-6.805M2.43 7a4.57 4.57 0 1 1 9.139 0A4.57 4.57 0 0 1 2.43 7m3.598 0a.972.972 0 1 1 1.944 0 .972.972 0 0 1-1.944 0M7 4.86a2.139 2.139 0 1 0 0 4.278 2.139 2.139 0 0 0 0-4.277" clip-rule="evenodd"/></g><defs><clipPath id="a"><path fill="#fff" d="M0 0h14v14H0z"/></clipPath></defs></svg>