<svg width="14" height="14" viewBox="0 0 14 14" fill="none" xmlns="http://www.w3.org/2000/svg">
<g id="bullseye">
<g clip-path="url(#clip0_295_4693)">
<path id="Vector" fill-rule="evenodd" clip-rule="evenodd" d="M7 1.16662C3.77831 1.16662 1.16662 3.77831 1.16662 7C1.16662 10.2217 3.77831 12.8334 7 12.8334C10.2217 12.8334 12.8334 10.2217 12.8334 7C12.8334 3.77831 10.2217 1.16662 7 1.16662ZM0 7C0 3.13401 3.13401 0 7 0C10.866 0 14 3.13401 14 7C14 10.866 10.866 14 7 14C3.13401 14 0 10.866 0 7ZM6.99969 3.59706C5.12047 3.59706 3.59706 5.12047 3.59706 6.99969C3.59706 8.87891 5.12047 10.4023 6.99969 10.4023C8.87891 10.4023 10.4023 8.87891 10.4023 6.99969C10.4023 5.12047 8.87891 3.59706 6.99969 3.59706ZM2.43045 6.99969C2.43045 4.47617 4.47617 2.43045 6.99969 2.43045C9.52321 2.43045 11.5689 4.47617 11.5689 6.99969C11.5689 9.52321 9.52321 11.5689 6.99969 11.5689C4.47617 11.5689 2.43045 9.52321 2.43045 6.99969ZM6.02751 6.99969C6.02751 6.46277 6.46277 6.02751 6.99969 6.02751C7.53661 6.02751 7.97187 6.46277 7.97187 6.99969C7.97187 7.53661 7.53661 7.97187 6.99969 7.97187C6.46277 7.97187 6.02751 7.53661 6.02751 6.99969ZM6.99969 4.8609C5.81847 4.8609 4.8609 5.81847 4.8609 6.99969C4.8609 8.18091 5.81847 9.13848 6.99969 9.13848C8.18091 9.13848 9.13848 8.18091 9.13848 6.99969C9.13848 5.81847 8.18091 4.8609 6.99969 4.8609Z" fill="black"/>
</g>
</g>
<defs>
<clipPath id="clip0_295_4693">
<rect width="14" height="14" fill="white"/>
</clipPath>
</defs>
</svg>
