<svg xmlns="http://www.w3.org/2000/svg" fill="none" viewBox="0 0 14 14"><path fill="#000" fill-rule="evenodd" d="M2.872 1.615c0-.297.24-.538.538-.538h7.18c.297 0 .538.241.538.538v10.77a.54.54 0 0 1-.538.538H3.41a.54.54 0 0 1-.538-.538zM3.41 0c-.892 0-1.615.723-1.615 1.615v10.77c0 .892.723 1.615 1.615 1.615h7.18c.892 0 1.615-.723 1.615-1.615V1.615C12.205.723 11.482 0 10.59 0zm1.077 2.513h5.026c.198 0 .359.16.359.359v1.077c0 .198-.16.359-.36.359H4.488a.36.36 0 0 1-.359-.36V2.873c0-.198.16-.36.36-.36m4.308 2.872h.718c.198 0 .359.16.359.359v.718c0 .198-.16.359-.36.359h-.717a.36.36 0 0 1-.36-.36v-.717c0-.199.162-.36.36-.36m-3.59 0h-.718a.36.36 0 0 0-.359.359v.718c0 .198.16.359.36.359h.717c.198 0 .36-.161.36-.36v-.717a.36.36 0 0 0-.36-.36m1.436 0h.718c.198 0 .359.16.359.359v.718c0 .198-.16.359-.359.359h-.718a.36.36 0 0 1-.359-.36v-.717c0-.199.16-.36.359-.36m2.872 2.333h-.718a.36.36 0 0 0-.36.359v.718c0 .198.162.359.36.359h.718c.198 0 .359-.16.359-.36v-.717a.36.36 0 0 0-.36-.359m-5.026 0h.718c.198 0 .36.16.36.359v.718c0 .198-.162.359-.36.359h-.718a.36.36 0 0 1-.359-.36v-.717c0-.198.16-.359.36-.359m2.872 0h-.718a.36.36 0 0 0-.359.359v.718c0 .198.16.359.359.359h.718c.198 0 .359-.16.359-.36v-.717a.36.36 0 0 0-.359-.359m1.436 2.333h.718c.198 0 .359.161.359.36v.717c0 .198-.16.36-.36.36h-.717a.36.36 0 0 1-.36-.36v-.718c0-.198.162-.359.36-.359m-1.436 0H4.487a.36.36 0 0 0-.359.36v.717c0 .198.16.36.36.36h2.871c.198 0 .359-.162.359-.36v-.718a.36.36 0 0 0-.359-.359" clip-rule="evenodd"/></svg>