<svg xmlns="http://www.w3.org/2000/svg" viewBox="0 0 14 14"><g clip-path="url(#a)"><path fill-rule="evenodd" d="M4.237 0c.305 0 .552.247.552.553v.92h3.316v-.92a.553.553 0 1 1 1.106 0v.92h.92c1.12 0 2.027.908 2.027 2.027v2.579a.553.553 0 0 1-.553.553H1.842v4.973c0 .509.412.921.921.921h2.948a.553.553 0 1 1 0 1.106H2.763a2.026 2.026 0 0 1-2.026-2.027V3.5c0-1.12.907-2.026 2.026-2.026h.921V.553c0-.306.248-.553.553-.553m3.868 2.579V3.5a.553.553 0 1 0 1.106 0v-.921h.92c.51 0 .922.412.922.921v2.026h-9.21V3.5c0-.509.411-.921.92-.921h.921V3.5a.553.553 0 1 0 1.105 0v-.921zm1.842 5.895a2.21 2.21 0 1 0 0 4.42 2.21 2.21 0 0 0 0-4.42m-3.315 2.21a3.316 3.316 0 1 1 6.631 0 3.316 3.316 0 0 1-6.631 0m3.684-.92a.553.553 0 1 0-1.105 0v1.473c0 .305.247.553.552.553h.737a.553.553 0 0 0 0-1.106h-.184z" clip-rule="evenodd"/></g><defs><clipPath id="a"><path d="M0 0h14v14H0z"/></clipPath></defs></svg>