<svg xmlns="http://www.w3.org/2000/svg" fill="none" viewBox="0 0 14 14"><path fill="#000" fill-rule="evenodd" d="M4.73 0c.313 0 .567.254.567.568v.946h3.406V.568a.568.568 0 0 1 1.135 0v.946h.946c1.15 0 2.08.931 2.08 2.08v8.325c0 1.15-.93 2.081-2.08 2.081H3.216a2.08 2.08 0 0 1-2.08-2.081V3.595c0-1.15.93-2.081 2.08-2.081h.946V.568c0-.314.254-.568.568-.568m3.973 2.649v.946a.568.568 0 0 0 1.135 0v-.946h.946c.522 0 .946.423.946.946v2.08H2.27v-2.08c0-.523.424-.946.946-.946h.946v.946a.568.568 0 0 0 1.135 0v-.946zM2.27 6.81v5.108c0 .522.424.946.946.946h7.568a.946.946 0 0 0 .946-.946V6.81zM7 7.946c.313 0 .568.254.568.568v.945h.946a.568.568 0 1 1 0 1.136h-.946v.945a.568.568 0 1 1-1.136 0v-.945h-.946a.568.568 0 0 1 0-1.136h.946v-.945c0-.314.255-.568.568-.568" clip-rule="evenodd"/></svg>