<svg xmlns="http://www.w3.org/2000/svg" viewBox="0 0 14 14"><path fill-rule="evenodd" d="M5.297.568a.568.568 0 1 0-1.135 0v.946h-.946c-1.15 0-2.08.931-2.08 2.08v8.325c0 1.15.93 2.081 2.08 2.081h7.568c1.15 0 2.08-.932 2.08-2.081V3.595c0-1.15-.93-2.081-2.08-2.081h-.946V.568a.568.568 0 1 0-1.135 0v.946H5.297zm3.406 3.027v-.946H5.297v.946a.568.568 0 1 1-1.135 0v-.946h-.946a.946.946 0 0 0-.946.946v2.08h9.46v-2.08a.946.946 0 0 0-.946-.946h-.946v.946a.568.568 0 1 1-1.135 0M2.27 11.919V6.81h9.46v5.108a.946.946 0 0 1-.946.946H3.216a.946.946 0 0 1-.946-.946m3.216-2.422a.568.568 0 0 0 0 1.136h3.028a.568.568 0 0 0 0-1.136z" clip-rule="evenodd"/></svg>