<svg xmlns="http://www.w3.org/2000/svg" viewBox="0 0 14 14"><path fill-rule="evenodd" d="M4.629 2.843a1 1 0 0 1 .827-.443h3.088c.336 0 .644.164.827.443l.002.002 1.128 1.688A.6.6 0 0 0 11 4.8h.8c.549 0 1 .451 1 1v4.8c0 .549-.451 1-1 1H2.2c-.549 0-1-.451-1-1V5.8c0-.549.451-1 1-1H3a.6.6 0 0 0 .499-.267l1.128-1.688zM5.456 1.2c-.725 0-1.418.362-1.828.98L2.68 3.6H2.2C.989 3.6 0 4.589 0 5.8v4.8c0 1.211.989 2.2 2.2 2.2h9.6c1.211 0 2.2-.989 2.2-2.2V5.8c0-1.211-.989-2.2-2.2-2.2h-.48l-.947-1.419-.001-.001a2.19 2.19 0 0 0-1.828-.98zM5.6 7.8a1.4 1.4 0 1 1 2.8 0 1.4 1.4 0 0 1-2.8 0M7 5.2a2.6 2.6 0 1 0 0 5.2 2.6 2.6 0 0 0 0-5.2" clip-rule="evenodd"/></svg>