<svg xmlns="http://www.w3.org/2000/svg" fill="none" viewBox="0 0 14 14"><g fill="#000" clip-path="url(#a)"><path d="M3.8 9.5a1.2 1.2 0 1 0 0-2.4 1.2 1.2 0 0 0 0 2.4M11.4 8.3a1.2 1.2 0 1 1-2.4 0 1.2 1.2 0 0 1 2.4 0"/><path fill-rule="evenodd" d="m13.22 5.251-1.464-4.03A1.4 1.4 0 0 0 10.44.3H3.56c-.587 0-1.116.37-1.316.922L.779 5.252C.32 5.48 0 5.951 0 6.5v3.6c0 .478.242.9.61 1.154q0 .01-.004.021L.6 11.3v1.6a.8.8 0 0 0 .8.8h.8a.8.8 0 0 0 .8-.8v-1.4h8v1.4a.8.8 0 0 0 .8.8h.8a.8.8 0 0 0 .8-.8v-1.6q-.001-.014-.005-.026l-.005-.02A1.4 1.4 0 0 0 14 10.1V6.5c0-.549-.32-1.02-.78-1.249M12.8 10.1c0 .109-.091.2-.2.2H1.4a.2.2 0 0 1-.2-.2V6.5c0-.109.091-.2.2-.2h11.2c.109 0 .2.091.2.2zM3.373 1.63a.2.2 0 0 1 .187-.13h6.88a.2.2 0 0 1 .187.13l1.117 3.07H2.257z" clip-rule="evenodd"/></g><defs><clipPath id="a"><path fill="#fff" d="M0 0h14v14H0z"/></clipPath></defs></svg>