<svg xmlns="http://www.w3.org/2000/svg" fill="none" viewBox="0 0 14 14"><g clip-path="url(#a)"><path fill="#000" fill-rule="evenodd" d="M0 1A.6.6 0 0 1 .6.4h1.6a.6.6 0 0 1 .59.493L4.3 9.2h7.031l1.487-5.946a.6.6 0 0 1 1.164.292l-1.6 6.4a.6.6 0 0 1-.582.454h-8a.6.6 0 0 1-.59-.493L1.7 1.6H.6A.6.6 0 0 1 0 1m4 11.4c0 .664.536 1.2 1.2 1.2s1.2-.536 1.2-1.2-.536-1.2-1.2-1.2-1.2.536-1.2 1.2m5.2 0c0 .664.536 1.2 1.2 1.2s1.2-.536 1.2-1.2-.536-1.2-1.2-1.2-1.2.536-1.2 1.2M8.4 1.8a.6.6 0 1 0-1.2 0v2.551l-.576-.575a.6.6 0 1 0-.848.848l1.6 1.6a.6.6 0 0 0 .848 0l1.6-1.6a.6.6 0 1 0-.848-.848L8.4 4.35z" clip-rule="evenodd"/></g><defs><clipPath id="a"><path fill="#fff" d="M0 0h14v14H0z"/></clipPath></defs></svg>