<svg xmlns="http://www.w3.org/2000/svg" fill="none" viewBox="0 0 14 14"><g clip-path="url(#a)"><path fill="#000" fill-rule="evenodd" d="M.6.4a.6.6 0 1 0 0 1.2h1.1l1.51 8.307a.6.6 0 0 0 .59.493h8a.6.6 0 0 0 .582-.454l1.6-6.4A.6.6 0 0 0 13.4 2.8H3.137L2.79.893A.6.6 0 0 0 2.2.4zm3.7 8.8L3.356 4h9.277l-1.3 5.2zm3.612-4.8a.6.6 0 0 1 .6.6v1h1a.6.6 0 0 1 0 1.2h-1v1a.6.6 0 0 1-1.2 0v-1h-1a.6.6 0 0 1 0-1.2h1V5a.6.6 0 0 1 .6-.6M5.2 11.2a1.2 1.2 0 1 0 0 2.4 1.2 1.2 0 0 0 0-2.4m4 1.2a1.2 1.2 0 1 1 2.4 0 1.2 1.2 0 0 1-2.4 0" clip-rule="evenodd"/></g><defs><clipPath id="a"><path fill="#fff" d="M0 0h14v14H0z"/></clipPath></defs></svg>