<svg xmlns="http://www.w3.org/2000/svg" viewBox="0 0 14 14"><g clip-path="url(#a)"><path fill-rule="evenodd" d="M.636 0c.352 0 .637.285.637.636v12.091h12.09a.636.636 0 1 1 0 1.273H.637A.636.636 0 0 1 0 13.364V.636C0 .285.285 0 .636 0m2.97 8.697a.848.848 0 1 0 0-1.697.848.848 0 0 0 0 1.697m2.97-4.242a.848.848 0 1 1-1.697 0 .848.848 0 0 1 1.697 0m1.272 5.939a.848.848 0 1 0 0-1.697.848.848 0 0 0 0 1.697m2.97-4.242a.849.849 0 1 1-1.697 0 .849.849 0 0 1 1.697 0m1.273-2.546a.849.849 0 1 0 0-1.697.849.849 0 0 0 0 1.697" clip-rule="evenodd"/></g><defs><clipPath id="a"><path d="M0 0h14v14H0z"/></clipPath></defs></svg>