<svg xmlns="http://www.w3.org/2000/svg" fill="none" viewBox="0 0 14 14"><g clip-path="url(#a)"><path fill="#000" fill-rule="evenodd" d="M1.273.636A.636.636 0 0 0 0 .636v12.728c0 .351.285.636.636.636h12.728a.636.636 0 1 0 0-1.273H1.273zm8.272 3.606a.636.636 0 0 0 0 1.273h1.434L8.697 7.797 6.601 5.702a.636.636 0 0 0-.9 0L3.157 8.247a.636.636 0 0 0 .9.9l2.096-2.096 2.095 2.096a.636.636 0 0 0 .9 0l2.732-2.732v1.51a.636.636 0 1 0 1.273 0V4.879a.636.636 0 0 0-.637-.637z" clip-rule="evenodd"/></g><defs><clipPath id="a"><path fill="#fff" d="M0 0h14v14H0z"/></clipPath></defs></svg>