<svg xmlns="http://www.w3.org/2000/svg" viewBox="0 0 14 14"><g clip-path="url(#a)"><path fill-rule="evenodd" d="M1.273.636A.636.636 0 0 0 0 .636v12.728c0 .351.285.636.636.636h12.728a.636.636 0 1 0 0-1.273H1.273zm2.333 5.728c.352 0 .636.285.636.636v3.394a.636.636 0 1 1-1.272 0V7c0-.351.285-.636.636-.636m3.606-2.758a.636.636 0 0 0-1.273 0v6.788a.636.636 0 1 0 1.273 0zm2.333 2.758c.352 0 .637.285.637.636v3.394a.636.636 0 1 1-1.273 0V7c0-.351.285-.636.636-.636m3.607-2.758a.636.636 0 1 0-1.273 0v6.788a.636.636 0 1 0 1.273 0z" clip-rule="evenodd"/></g><defs><clipPath id="a"><path d="M0 0h14v14H0z"/></clipPath></defs></svg>