<svg xmlns="http://www.w3.org/2000/svg" fill="none" viewBox="0 0 14 14"><g clip-path="url(#a)"><path fill="#000" d="M8.06.88V.637A.637.637 0 0 0 7.425 0C3.33 0 0 3.33 0 7.424c0 1.34.333 2.623.964 3.713a.636.636 0 0 0 .868.233l.243-.14A6.6 6.6 0 0 0 7.425 14 6.584 6.584 0 0 0 14 7.424c0-3.41-2.61-6.222-5.94-6.543m-1.272.426v5.75L1.787 9.926a6.3 6.3 0 0 1-.514-2.504 6.16 6.16 0 0 1 5.515-6.117m.636 11.421a5.32 5.32 0 0 1-4.244-2.131l4.562-2.62a.64.64 0 0 0 .319-.55V2.163a5.31 5.31 0 0 1 4.666 5.261 5.31 5.31 0 0 1-5.303 5.302"/></g><defs><clipPath id="a"><path fill="#fff" d="M0 0h14v14H0z"/></clipPath></defs></svg>