<svg xmlns="http://www.w3.org/2000/svg" viewBox="0 0 14 14"><g clip-path="url(#a)"><path fill-rule="evenodd" d="M2.2 0C.989 0 0 .989 0 2.2v9.6C0 13.011.989 14 2.2 14h9.6c1.211 0 2.2-.989 2.2-2.2V5.632a.6.6 0 1 0-1.2 0V11.8c0 .549-.451 1-1 1H2.2c-.549 0-1-.451-1-1V2.2c0-.549.451-1 1-1h7.088a.6.6 0 0 0 0-1.2zm11.224 2.224a.6.6 0 1 0-.848-.848L5.8 8.15 3.824 6.176a.6.6 0 1 0-.848.848l2.4 2.4a.6.6 0 0 0 .848 0z" clip-rule="evenodd"/></g><defs><clipPath id="a"><path d="M0 0h14v14H0z"/></clipPath></defs></svg>