<svg xmlns="http://www.w3.org/2000/svg" fill="none" viewBox="0 0 14 14"><g clip-path="url(#a)"><path fill="#000" fill-rule="evenodd" d="M6.396 1.199c.806-.085 1.584 0 2.305.22A.583.583 0 1 0 9.04.301 7 7 0 0 0 6.274.039a6.9 6.9 0 0 0-2.658.833 7.2 7.2 0 0 0-2.049 1.719A6.94 6.94 0 0 0 .039 7.726a6.9 6.9 0 0 0 .833 2.658 7.2 7.2 0 0 0 1.719 2.049 6.94 6.94 0 0 0 5.135 1.528 6.9 6.9 0 0 0 2.658-.833 7.2 7.2 0 0 0 2.049-1.719 6.9 6.9 0 0 0 1.265-2.369c.263-.865.365-1.807.263-2.767a.583.583 0 1 0-1.16.124c.085.798 0 1.583-.22 2.304a5.8 5.8 0 0 1-1.052 1.97 6 6 0 0 1-1.715 1.439c-.652.365-1.4.606-2.21.691-.807.085-1.584 0-2.305-.22a5.8 5.8 0 0 1-1.97-1.051A6 6 0 0 1 1.89 9.815 5.8 5.8 0 0 1 1.2 7.604 5.775 5.775 0 0 1 2.47 3.329 6 6 0 0 1 4.185 1.89 5.8 5.8 0 0 1 6.396 1.2m6.845 1.162a.583.583 0 1 0-.825-.825L5.83 8.123l-1.92-1.92a.583.583 0 1 0-.825.825L5.417 9.36a.583.583 0 0 0 .825 0z" clip-rule="evenodd"/></g><defs><clipPath id="a"><path fill="#fff" d="M0 0h14v14H0z"/></clipPath></defs></svg>