<svg width="14" height="14" viewBox="0 0 14 14" fill="none" xmlns="http://www.w3.org/2000/svg">
<g id="chevron-circle-right">
<g clip-path="url(#clip0_154_2638)">
<path id="Vector" fill-rule="evenodd" clip-rule="evenodd" d="M1.16667 7C1.16667 3.77834 3.77834 1.16667 7 1.16667C10.2217 1.16667 12.8333 3.77834 12.8333 7C12.8333 10.2217 10.2217 12.8333 7 12.8333C3.77834 12.8333 1.16667 10.2217 1.16667 7ZM7 0C3.13401 0 0 3.13401 0 7C0 10.866 3.13401 14 7 14C10.866 14 14 10.866 14 7C14 3.13401 10.866 0 7 0ZM5.85692 3.47641C5.62912 3.2486 5.25977 3.2486 5.03197 3.47641C4.80416 3.70422 4.80416 4.07356 5.03197 4.30137L7.7306 7L5.03197 9.69863C4.80416 9.92644 4.80416 10.2958 5.03197 10.5236C5.25977 10.7514 5.62912 10.7514 5.85692 10.5236L8.96803 7.41248C9.19584 7.18467 9.19584 6.81533 8.96803 6.58752L5.85692 3.47641Z" fill="black"/>
</g>
</g>
<defs>
<clipPath id="clip0_154_2638">
<rect width="14" height="14" fill="white"/>
</clipPath>
</defs>
</svg>
