<svg width="14" height="14" viewBox="0 0 14 14" fill="none" xmlns="http://www.w3.org/2000/svg">
<g id="chevron-circle-up">
<g clip-path="url(#clip0_154_2618)">
<path id="Vector" fill-rule="evenodd" clip-rule="evenodd" d="M1.16667 7C1.16667 3.77834 3.77834 1.16667 7 1.16667C10.2217 1.16667 12.8333 3.77834 12.8333 7C12.8333 10.2217 10.2217 12.8333 7 12.8333C3.77834 12.8333 1.16667 10.2217 1.16667 7ZM7 0C3.13401 0 0 3.13401 0 7C0 10.866 3.13401 14 7 14C10.866 14 14 10.866 14 7C14 3.13401 10.866 0 7 0ZM10.5236 8.14308L7.41248 5.03197C7.18467 4.80416 6.81533 4.80416 6.58752 5.03197L3.47641 8.14308C3.2486 8.37088 3.2486 8.74023 3.47641 8.96803C3.70422 9.19584 4.07356 9.19584 4.30137 8.96803L7 6.2694L9.69863 8.96803C9.92644 9.19584 10.2958 9.19584 10.5236 8.96803C10.7514 8.74023 10.7514 8.37088 10.5236 8.14308Z" fill="black"/>
</g>
</g>
<defs>
<clipPath id="clip0_154_2618">
<rect width="14" height="14" fill="white"/>
</clipPath>
</defs>
</svg>
