<svg xmlns="http://www.w3.org/2000/svg" viewBox="0 0 14 14"><path fill-rule="evenodd" d="M6.378 1.2a.78.78 0 0 0-.778.778v1.173h2.8V1.978a.78.78 0 0 0-.778-.778zm3.13.178h.692a2.2 2.2 0 0 1 2.2 2.2V11.8a2.2 2.2 0 0 1-2.2 2.2H3.8a2.2 2.2 0 0 1-2.2-2.2V3.578a2.2 2.2 0 0 1 2.2-2.2h.693A1.98 1.98 0 0 1 6.378 0h1.244c.883 0 1.631.58 1.885 1.378m.092 1.2v1.093a.68.68 0 0 1-.68.68H5.08a.68.68 0 0 1-.68-.68V2.578h-.6a1 1 0 0 0-1 1V11.8a1 1 0 0 0 1 1h6.4a1 1 0 0 0 1-1V3.578a1 1 0 0 0-1-1z" clip-rule="evenodd"/></svg>