<svg width="14" height="14" viewBox="0 0 14 14" fill="none" xmlns="http://www.w3.org/2000/svg">
<g id="clock">
<g clip-path="url(#clip0_156_4691)">
<path id="Vector" fill-rule="evenodd" clip-rule="evenodd" d="M1.16667 7C1.16667 3.77834 3.77834 1.16667 7 1.16667C10.2217 1.16667 12.8333 3.77834 12.8333 7C12.8333 10.2217 10.2217 12.8333 7 12.8333C3.77834 12.8333 1.16667 10.2217 1.16667 7ZM7 0C3.13401 0 0 3.13401 0 7C0 10.866 3.13401 14 7 14C10.866 14 14 10.866 14 7C14 3.13401 10.866 0 7 0ZM7.58333 3.11111C7.58333 2.78894 7.32217 2.52778 7 2.52778C6.67783 2.52778 6.41667 2.78894 6.41667 3.11111V7C6.41667 7.32217 6.67783 7.58333 7 7.58333H9.33333C9.6555 7.58333 9.91667 7.32217 9.91667 7C9.91667 6.67783 9.6555 6.41667 9.33333 6.41667H7.58333V3.11111Z" fill="black"/>
</g>
</g>
<defs>
<clipPath id="clip0_156_4691">
<rect width="14" height="14" fill="white"/>
</clipPath>
</defs>
</svg>
