<svg width="14" height="14" viewBox="0 0 14 14" fill="none" xmlns="http://www.w3.org/2000/svg">
<g id="clone">
<g clip-path="url(#clip0_156_4651)">
<path id="Vector" fill-rule="evenodd" clip-rule="evenodd" d="M1.2 2.2C1.2 1.64772 1.64772 1.2 2.2 1.2H8.6C9.15229 1.2 9.6 1.64772 9.6 2.2V8.6C9.6 9.15229 9.15229 9.6 8.6 9.6H2.2C1.64772 9.6 1.2 9.15229 1.2 8.6V2.2ZM2.2 0C0.984974 0 0 0.984974 0 2.2V8.6C0 9.81503 0.984974 10.8 2.2 10.8H3.2V11.8C3.2 13.0114 4.18863 14 5.4 14H11.8C13.0114 14 14 13.0114 14 11.8V5.4C14 4.18863 13.0114 3.2 11.8 3.2H10.8V2.2C10.8 0.984974 9.81503 0 8.6 0H2.2ZM10.8 4.4V8.6C10.8 9.81503 9.81503 10.8 8.6 10.8H4.4V11.8C4.4 12.3486 4.85137 12.8 5.4 12.8H11.8C12.3486 12.8 12.8 12.3486 12.8 11.8V5.4C12.8 4.85137 12.3486 4.4 11.8 4.4H10.8Z" fill="black"/>
</g>
</g>
<defs>
<clipPath id="clip0_156_4651">
<rect width="14" height="14" fill="white"/>
</clipPath>
</defs>
</svg>
