<svg xmlns="http://www.w3.org/2000/svg" fill="none" viewBox="0 0 14 14"><g clip-path="url(#a)"><path fill="#000" fill-rule="evenodd" d="M1.2 2.2a1 1 0 0 1 1-1h6.4a1 1 0 0 1 1 1v6.4a1 1 0 0 1-1 1H2.2a1 1 0 0 1-1-1zm1-2.2A2.2 2.2 0 0 0 0 2.2v6.4a2.2 2.2 0 0 0 2.2 2.2h1v1c0 1.211.989 2.2 2.2 2.2h6.4c1.211 0 2.2-.989 2.2-2.2V5.4c0-1.211-.989-2.2-2.2-2.2h-1v-1A2.2 2.2 0 0 0 8.6 0zm8.6 4.4v4.2a2.2 2.2 0 0 1-2.2 2.2H4.4v1c0 .549.451 1 1 1h6.4c.549 0 1-.451 1-1V5.4c0-.549-.451-1-1-1z" clip-rule="evenodd"/></g><defs><clipPath id="a"><path fill="#fff" d="M0 0h14v14H0z"/></clipPath></defs></svg>