<svg xmlns="http://www.w3.org/2000/svg" viewBox="0 0 14 14"><path fill-rule="evenodd" d="M0 7a5.11 5.11 0 0 1 5.108-5.108c2.1 0 3.906 1.267 4.69 3.084.193-.035.395-.057.607-.057.942 0 1.836.465 2.483 1.112S14 7.572 14 8.514a3.594 3.594 0 0 1-3.595 3.594H5.108A5.11 5.11 0 0 1 0 7m5.108-3.973A3.977 3.977 0 0 0 1.135 7a3.977 3.977 0 0 0 3.973 3.973h5.297c1.36 0 2.46-1.1 2.46-2.46 0-.572-.292-1.191-.78-1.68-.488-.487-1.107-.779-1.68-.779-.263 0-.52.053-.785.139a.57.57 0 0 1-.718-.372 3.97 3.97 0 0 0-3.794-2.794" clip-rule="evenodd"/></svg>