<svg xmlns="http://www.w3.org/2000/svg" viewBox="0 0 14 14"><g><path d="M11.162 11.73a.568.568 0 0 1 0-1.136c1.257 0 1.703-.63 1.703-2.408 0-1.195-1.264-2.46-2.46-2.46a2.4 2.4 0 0 0-.778.142.567.567 0 0 1-.723-.37A3.95 3.95 0 0 0 5.108 2.7a3.977 3.977 0 0 0-3.973 3.973c0 2.602.573 3.922 1.703 3.922a.568.568 0 0 1 0 1.135C.955 11.73 0 10.03 0 6.673a5.114 5.114 0 0 1 5.108-5.108A5.08 5.08 0 0 1 9.8 4.651q.307-.059.605-.059C12.22 4.592 14 6.373 14 8.187c0 .969 0 3.542-2.838 3.542"/><path d="M9.14 9.76a.56.56 0 0 1-.4-.167L7.568 8.421v3.446a.568.568 0 0 1-1.136 0V8.422l-1.17 1.171a.568.568 0 1 1-.803-.803l2.127-2.128a.57.57 0 0 1 .817-.013l2.14 2.141a.568.568 0 0 1-.402.97"/></g></svg>