<svg xmlns="http://www.w3.org/2000/svg" viewBox="0 0 14 14"><g clip-path="url(#a)"><path fill-rule="evenodd" d="M0 6.675a5.11 5.11 0 0 1 5.108-5.109c2.1 0 3.906 1.268 4.69 3.085.193-.036.395-.058.607-.058.942 0 1.836.465 2.483 1.113S14 7.246 14 8.188c0 .852-.09 1.735-.51 2.413-.458.738-1.232 1.129-2.328 1.129a.568.568 0 0 1 0-1.135c.796 0 1.157-.26 1.362-.592.242-.39.34-.995.34-1.815 0-.572-.29-1.192-.779-1.68-.488-.488-1.107-.78-1.68-.78-.263 0-.52.053-.785.14a.57.57 0 0 1-.718-.372 3.972 3.972 0 0 0-7.767 1.179c0 1.089.006 2.108.255 2.86.12.361.282.615.49.78.2.16.494.28.958.28a.568.568 0 1 1 0 1.135c-.671 0-1.23-.178-1.667-.528-.431-.344-.694-.815-.858-1.31C0 8.946 0 7.748 0 6.731zm4.457 2.648a.57.57 0 0 1 .803 0l1.172 1.173V7.053a.568.568 0 0 1 1.136 0v3.443L8.74 9.323a.568.568 0 1 1 .803.803L7.4 12.267a.565.565 0 0 1-.802 0l-2.142-2.141a.57.57 0 0 1 0-.803" clip-rule="evenodd"/></g><defs><clipPath id="a"><path d="M0 0h14v14H0z"/></clipPath></defs></svg>