<svg width="14" height="14" viewBox="0 0 14 14" fill="none" xmlns="http://www.w3.org/2000/svg">
<g id="code">
<path id="Vector" fill-rule="evenodd" clip-rule="evenodd" d="M5.02426 3.42429C5.25858 3.18997 5.25858 2.81007 5.02426 2.57576C4.78995 2.34145 4.41005 2.34145 4.17574 2.57576L0.175736 6.57576C-0.0585786 6.81008 -0.0585786 7.18997 0.175736 7.42429L4.17574 11.4243C4.41005 11.6586 4.78995 11.6586 5.02426 11.4243C5.25858 11.19 5.25858 10.8101 5.02426 10.5758L1.44853 7.00002L5.02426 3.42429ZM9.82426 2.57576C9.58995 2.34145 9.21005 2.34145 8.97574 2.57576C8.74142 2.81007 8.74142 3.18997 8.97574 3.42429L12.5515 7.00002L8.97574 10.5758C8.74142 10.8101 8.74142 11.19 8.97574 11.4243C9.21005 11.6586 9.58995 11.6586 9.82426 11.4243L13.8243 7.42429C14.0586 7.18997 14.0586 6.81008 13.8243 6.57576L9.82426 2.57576Z" fill="black"/>
</g>
</svg>
