<svg xmlns="http://www.w3.org/2000/svg" fill="none" viewBox="0 0 14 14"><g fill="#000" fill-rule="evenodd" clip-path="url(#a)" clip-rule="evenodd"><path d="M4.655 7A2.35 2.35 0 0 0 7 9.345 2.35 2.35 0 0 0 9.345 7 2.35 2.35 0 0 0 7 4.655 2.35 2.35 0 0 0 4.655 7m1.2 0a1.146 1.146 0 0 1 2.29 0 1.146 1.146 0 0 1-2.29 0"/><path d="M5.283 12.21c0 .988.79 1.79 1.763 1.79.956 0 1.764-.831 1.765-1.811 0-.158.098-.328.225-.382.124-.054.31-.012.416.092a1.776 1.776 0 0 0 2.507.01c.334-.335.514-.785.507-1.265a1.78 1.78 0 0 0-.521-1.242c-.107-.11-.146-.288-.09-.414l.003-.007c.053-.123.205-.216.353-.217C13.198 8.764 14 7.973 14 7c0-.956-.83-1.764-1.811-1.764a.46.46 0 0 1-.382-.248c-.056-.126-.01-.334.092-.439.693-.695.697-1.82.01-2.507a1.7 1.7 0 0 0-1.265-.507 1.78 1.78 0 0 0-1.242.52.4.4 0 0 1-.42.087c-.124-.053-.217-.205-.218-.353C8.764.802 7.973 0 7 0c-.956 0-1.764.83-1.764 1.811a.46.46 0 0 1-.248.382c-.125.057-.334.01-.439-.092a1.775 1.775 0 0 0-2.507-.01 1.74 1.74 0 0 0-.507 1.265c.006.472.194.915.52 1.242a.41.41 0 0 1 .076.45.39.39 0 0 1-.342.235C.802 5.283 0 6.073 0 7.046 0 8.002.83 8.81 1.811 8.81c.158.001.328.099.382.225.055.125.012.309-.092.416a1.775 1.775 0 0 0-.01 2.507c.335.334.773.501 1.265.507a1.78 1.78 0 0 0 1.242-.52.42.42 0 0 1 .45-.076c.13.048.231.2.235.342m.214-1.453a1.5 1.5 0 0 0-.614-.129c-.41 0-.82.16-1.13.463-.225.225-.599.233-.815.017a.58.58 0 0 1 .016-.814c.456-.466.59-1.167.338-1.738-.241-.563-.834-.943-1.479-.946-.327 0-.613-.264-.613-.564 0-.305.27-.564.603-.564.651-.015 1.235-.425 1.44-.985a1.59 1.59 0 0 0-.334-1.744c-.225-.225-.233-.598-.017-.815s.586-.21.814.016c.462.453 1.19.59 1.761.338.568-.244.967-.85.969-1.479 0-.327.264-.613.564-.613.306 0 .564.27.564.592.003.628.382 1.212.939 1.45a1.59 1.59 0 0 0 1.744-.333c.225-.225.598-.233.815-.017a.58.58 0 0 1-.016.814c-.453.463-.59 1.19-.338 1.761.243.568.85.967 1.479.97.327 0 .613.263.613.563 0 .306-.27.564-.592.564-.627.003-1.21.38-1.452.941a1.59 1.59 0 0 0 .335 1.742c.225.225.233.598.017.815s-.586.21-.814-.016c-.466-.455-1.167-.59-1.738-.338-.563.241-.943.834-.946 1.479 0 .327-.264.613-.564.613-.305 0-.564-.27-.564-.603-.015-.651-.425-1.235-.985-1.44"/></g><defs><clipPath id="a"><path fill="#fff" d="M0 0h14v14H0z"/></clipPath></defs></svg>