<svg xmlns="http://www.w3.org/2000/svg" viewBox="0 0 14 14"><g clip-path="url(#a)"><path fill-rule="evenodd" d="M7.453 1.235c-.728 0-1.43.155-2.067.422A5.28 5.28 0 0 0 2.56 4.485a5.2 5.2 0 0 0-.419 2.062c0 .728.155 1.43.422 2.067.055.133.063.28.021.418l-1.04 3.423 3.424-1.039a.62.62 0 0 1 .423.024c.63.271 1.33.419 2.062.419.728 0 1.43-.155 2.067-.422a5.28 5.28 0 0 0 2.826-2.828c.27-.63.419-1.33.419-2.062 0-.728-.155-1.43-.422-2.067a5.28 5.28 0 0 0-2.828-2.826 5.2 5.2 0 0 0-2.062-.419M4.909.517A6.6 6.6 0 0 1 7.453 0c.899 0 1.764.182 2.55.52a6.517 6.517 0 0 1 3.48 3.483c.325.778.517 1.641.517 2.544 0 .899-.182 1.764-.52 2.55a6.514 6.514 0 0 1-3.483 3.48 6.6 6.6 0 0 1-2.544.517c-.818 0-1.608-.15-2.336-.432l-4.32 1.311a.617.617 0 0 1-.77-.77L1.339 8.88a6.6 6.6 0 0 1-.433-2.334c0-.899.182-1.764.52-2.55A6.515 6.515 0 0 1 4.909.517" clip-rule="evenodd"/></g><defs><clipPath id="a"><path d="M0 0h14v14H0z"/></clipPath></defs></svg>