<svg xmlns="http://www.w3.org/2000/svg" fill="none" viewBox="0 0 14 14"><g clip-path="url(#a)"><path fill="#000" fill-rule="evenodd" d="M.181 11.19a.62.62 0 0 0 .617.156l2.526-.768q.356.631.864 1.138c.489.49 1.058.873 1.692 1.141a5.36 5.36 0 0 0 3.931.086l3.392 1.03a.616.616 0 0 0 .77-.77l-1.03-3.39a5.33 5.33 0 0 0-.086-3.933 5.3 5.3 0 0 0-1.747-2.213 5.3 5.3 0 0 0-1.297-2.109A5.3 5.3 0 0 0 8.121.418a5.35 5.35 0 0 0-4.145 0A5.32 5.32 0 0 0 1.143 3.25a5.3 5.3 0 0 0-.42 2.072c0 .642.113 1.265.334 1.86l-1.03 3.391a.62.62 0 0 0 .154.616m9.78-7.05a.6.6 0 0 0 .041.143q.134.508.134 1.041a4.06 4.06 0 0 1-1.198 2.892c-.375.375-.812.67-1.3.876a4.1 4.1 0 0 1-3.182-.001.63.63 0 0 0-.42-.021l-2.491.757.758-2.49a.62.62 0 0 0-.023-.42 4.1 4.1 0 0 1-.32-1.593 4.06 4.06 0 0 1 1.197-2.89 4.1 4.1 0 0 1 1.3-.876 4.1 4.1 0 0 1 1.59-.322 4.06 4.06 0 0 1 2.891 1.197A4.1 4.1 0 0 1 9.962 4.14m1.4 1.553a4.08 4.08 0 0 1 .357 3.851.62.62 0 0 0-.021.42l.757 2.491-2.491-.758a.62.62 0 0 0-.42.022 4.1 4.1 0 0 1-3.183 0 4.1 4.1 0 0 1-1.616-1.232 5.37 5.37 0 0 0 3.377-.258 5.3 5.3 0 0 0 1.692-1.14 5.3 5.3 0 0 0 1.547-3.396" clip-rule="evenodd"/></g><defs><clipPath id="a"><path fill="#fff" d="M0 0h14v14H0z"/></clipPath></defs></svg>