<svg xmlns="http://www.w3.org/2000/svg" fill="none" viewBox="0 0 14 14"><path fill="#000" fill-rule="evenodd" d="M4.308 1.974C4.308.887 5.195 0 6.282 0h1.795c.143 0 .28.057.38.158l3.95 3.948a.54.54 0 0 1 .157.381v4.667a1.98 1.98 0 0 1-1.974 1.974h-.18v.898A1.98 1.98 0 0 1 8.436 14H3.41a1.98 1.98 0 0 1-1.974-1.974v-7.18c0-1.087.887-1.974 1.974-1.974h.898zm0 1.975H3.41a.9.9 0 0 0-.897.897v7.18c0 .492.405.897.897.897h5.026a.9.9 0 0 0 .897-.897v-.898h-3.05a1.98 1.98 0 0 1-1.975-1.974zm1.974-2.872a.9.9 0 0 0-.897.897v7.18c0 .492.405.897.897.897h4.308a.9.9 0 0 0 .897-.897V5.026h-3.41a.54.54 0 0 1-.539-.539v-3.41zm2.333.761 2.11 2.11h-2.11z" clip-rule="evenodd"/></svg>