<svg width="14" height="14" viewBox="0 0 14 14" fill="none" xmlns="http://www.w3.org/2000/svg">
<g id="credit-card">
<path id="Vector" fill-rule="evenodd" clip-rule="evenodd" d="M1.4 2.80001C1.28954 2.80001 1.2 2.88955 1.2 3.00001V4.80001H12.8V3.00001C12.8 2.88955 12.7105 2.80001 12.6 2.80001H1.4ZM0 3.00001V5.40001V11C0 11.7732 0.626801 12.4 1.4 12.4H12.6C13.3732 12.4 14 11.7732 14 11V5.40001V3.00001C14 2.22681 13.3732 1.60001 12.6 1.60001H1.4C0.626801 1.60001 0 2.22681 0 3.00001ZM12.8 11V6.00001H1.2V11C1.2 11.1105 1.28954 11.2 1.4 11.2H12.6C12.7105 11.2 12.8 11.1105 12.8 11ZM3 7.80001C2.55817 7.80001 2.2 8.15818 2.2 8.60001C2.2 9.04183 2.55817 9.40001 3 9.40001H4.6C5.04183 9.40001 5.4 9.04183 5.4 8.60001C5.4 8.15818 5.04183 7.80001 4.6 7.80001H3Z" fill="black"/>
</g>
</svg>
