<svg xmlns="http://www.w3.org/2000/svg" viewBox="0 0 14 14"><g clip-path="url(#a)"><path fill-rule="evenodd" d="M5.547 5 7 2.675 8.453 5c.21.336.661.423.982.19l3.12-2.27-1.198 6.293a.2.2 0 0 1-.198.164H2.841a.2.2 0 0 1-.198-.164L1.445 2.921l3.12 2.27c.32.232.772.145.982-.191M7.58 1.326a.683.683 0 0 0-1.16 0L4.821 3.885 1.086 1.169a.683.683 0 0 0-1.073.68l1.446 7.59a1.41 1.41 0 0 0 1.382 1.144h8.318c.676 0 1.256-.48 1.382-1.144l1.446-7.59a.683.683 0 0 0-1.073-.68L9.179 3.885zM2.175 11.79a.603.603 0 0 0 0 1.206h9.65a.603.603 0 1 0 0-1.206z" clip-rule="evenodd"/></g><defs><clipPath id="a"><path d="M0 0h14v14H0z"/></clipPath></defs></svg>