<svg xmlns="http://www.w3.org/2000/svg" viewBox="0 0 14 14"><g clip-path="url(#a)"><path fill-rule="evenodd" d="M7 1.135c-2.19 0-4.301.843-5.187 1.249a.19.19 0 0 0-.107.172v.691q.071.034.157.073c.3.136.733.318 1.258.5 1.055.368 2.454.726 3.879.726s2.824-.358 3.879-.725a15 15 0 0 0 1.415-.574v-.69a.18.18 0 0 0-.101-.17l-.005-.002C11.293 1.978 9.19 1.135 7 1.135m5.294 3.355c-.287.122-.64.262-1.042.402-1.12.39-2.652.788-4.252.788s-3.132-.398-4.252-.788c-.402-.14-.755-.28-1.042-.402v2.917l.157.073c.3.136.733.318 1.258.5 1.055.368 2.454.726 3.879.726s2.824-.358 3.879-.725a15 15 0 0 0 1.415-.574zM1.706 11.444V8.65c.287.122.64.262 1.042.402 1.12.39 2.652.788 4.252.788s3.133-.398 4.252-.788c.402-.14.755-.28 1.042-.402v2.794a.19.19 0 0 1-.107.172c-.886.406-2.997 1.25-5.187 1.25s-4.293-.844-5.188-1.25l-.005-.002a.18.18 0 0 1-.101-.17M1.34 1.351C2.27.926 4.56 0 7 0c2.437 0 4.72.925 5.656 1.35.487.219.773.701.773 1.206v8.888c0 .513-.3.989-.77 1.204C11.73 13.074 9.44 14 7 14c-2.437 0-4.72-.925-5.656-1.35a1.32 1.32 0 0 1-.773-1.207V2.557c0-.513.3-.989.77-1.204" clip-rule="evenodd"/></g><defs><clipPath id="a"><path d="M0 0h14v14H0z"/></clipPath></defs></svg>