<svg xmlns="http://www.w3.org/2000/svg" viewBox="0 0 14 14"><path d="M10.928 5.334 9.262 7l1.666 1.666a.563.563 0 0 1-.796.797L8.466 7.796 6.801 9.463a.562.562 0 1 1-.796-.797L7.671 7 6.005 5.334a.563.563 0 0 1 .796-.797l1.665 1.667 1.666-1.667a.562.562 0 1 1 .796.797M14 3.247v7.506c0 .724-.59 1.314-1.313 1.314H3.725c-.456 0-.873-.232-1.114-.617L.14 7.497a.94.94 0 0 1 0-.995l2.47-3.952a1.3 1.3 0 0 1 1.114-.617h8.962c.724 0 1.313.59 1.313 1.314m-1.125 0a.19.19 0 0 0-.188-.188H3.725a.19.19 0 0 0-.16.088L1.158 7l2.407 3.853a.19.19 0 0 0 .16.088h8.962a.19.19 0 0 0 .188-.188z"/></svg>