<svg xmlns="http://www.w3.org/2000/svg" fill="none" viewBox="0 0 14 14"><g clip-path="url(#a)"><path fill="#000" fill-rule="evenodd" d="M1.201 6.84a.227.227 0 0 0 0 .32L6.84 12.8a.227.227 0 0 0 .321 0L12.8 7.16a.227.227 0 0 0 0-.32L7.16 1.2a.227.227 0 0 0-.32 0zM.4 7.963a1.36 1.36 0 0 1 0-1.926L6.037.4a1.36 1.36 0 0 1 1.926 0L13.6 6.037a1.36 1.36 0 0 1 0 1.926L7.963 13.6a1.36 1.36 0 0 1-1.926 0zm7.159-3.44a.567.567 0 0 1 .802-.004l1.683 1.667c.105.102.17.245.172.402v.015a.56.56 0 0 1-.168.394L8.36 8.669a.567.567 0 1 1-.799-.806l.708-.702H4.92v1.543a.567.567 0 0 1-1.134 0v-2.11c0-.314.254-.568.567-.568H8.27l-.708-.701a.567.567 0 0 1-.003-.803" clip-rule="evenodd"/></g><defs><clipPath id="a"><path fill="#fff" d="M0 0h14v14H0z"/></clipPath></defs></svg>