<svg xmlns="http://www.w3.org/2000/svg" fill="none" viewBox="0 0 14 14"><g fill="#000" clip-path="url(#a)"><path d="M9.648 9.265a.57.57 0 0 1-.567-.568V7.153H5.729l.708.703a.569.569 0 0 1-.8.806L3.964 7a.567.567 0 0 1 0-.83l1.673-1.663a.567.567 0 1 1 .8.806l-.707.703h3.918c.314 0 .568.255.568.569v2.112a.57.57 0 0 1-.568.568"/><path fill-rule="evenodd" d="M7 14c-.365 0-.709-.142-.965-.4L.399 7.96A1.36 1.36 0 0 1 0 6.993c0-.366.142-.71.399-.966L6.035.386c.514-.515 1.416-.515 1.93 0l5.636 5.642c.257.257.399.6.399.966 0 .365-.142.709-.399.965l-5.636 5.642c-.257.257-.6.399-.965.399M7 1.122a.23.23 0 0 0-.163.067L1.2 6.829a.23.23 0 0 0-.067.164c0 .036.01.105.067.163l5.636 5.641c.115.115.21.115.325 0l5.636-5.641a.23.23 0 0 0 .067-.163.23.23 0 0 0-.067-.163L7.162 1.189A.23.23 0 0 0 7 1.122" clip-rule="evenodd"/></g><defs><clipPath id="a"><path fill="#fff" d="M0 0h14v14H0z"/></clipPath></defs></svg>