<svg xmlns="http://www.w3.org/2000/svg" fill="none" viewBox="0 0 14 14"><g clip-path="url(#a)"><path fill="#000" d="M11.859 2.5a11.4 11.4 0 0 0-2.889-.906c-.124.225-.27.526-.37.767a10.6 10.6 0 0 0-3.2 0 8 8 0 0 0-.374-.767 11.4 11.4 0 0 0-2.891.908C.307 5.258-.188 7.944.059 10.593a11.6 11.6 0 0 0 3.543 1.811q.429-.587.759-1.246a7.5 7.5 0 0 1-1.194-.58q.15-.111.292-.232c2.303 1.075 4.806 1.075 7.082 0q.144.12.293.232-.57.343-1.197.58.329.66.76 1.248a11.5 11.5 0 0 0 3.544-1.812c.29-3.071-.498-5.733-2.082-8.094M4.674 8.965c-.691 0-1.258-.644-1.258-1.428s.554-1.43 1.258-1.43 1.271.644 1.259 1.43c.001.784-.555 1.428-1.259 1.428m4.65 0c-.69 0-1.258-.644-1.258-1.428s.555-1.43 1.259-1.43 1.27.644 1.258 1.43c0 .784-.555 1.428-1.258 1.428"/></g><defs><clipPath id="a"><path fill="#fff" d="M0 0h14v14H0z"/></clipPath></defs></svg>