<svg xmlns="http://www.w3.org/2000/svg" viewBox="0 0 14 14"><g clip-path="url(#a)"><path fill-rule="evenodd" d="M7.6.6a.6.6 0 0 0-1.2 0v7.351L4.224 5.776a.6.6 0 1 0-.848.848l3.2 3.2a.6.6 0 0 0 .848 0l3.2-3.2a.6.6 0 0 0-.848-.848L7.6 7.95zm-7 8.2a.6.6 0 0 1 .6.6v2.4c0 .616.435 1 .824 1h9.952c.389 0 .824-.384.824-1V9.4a.6.6 0 1 1 1.2 0v2.4c0 1.143-.845 2.2-2.024 2.2H2.024C.844 14 0 12.944 0 11.8V9.4a.6.6 0 0 1 .6-.6" clip-rule="evenodd"/></g><defs><clipPath id="a"><path d="M0 0h14v14H0z"/></clipPath></defs></svg>