<svg xmlns="http://www.w3.org/2000/svg" fill="none" viewBox="0 0 14 14"><g clip-path="url(#a)"><path fill="#000" fill-rule="evenodd" d="M7.479.198a.677.677 0 0 0-.958 0L.198 6.521a.677.677 0 0 0 .48 1.156h12.645a.677.677 0 0 0 .479-1.156zM7 1.635l4.687 4.688H2.313zm-5.645 8.978c0-.125.1-.226.226-.226h10.838c.125 0 .226.101.226.226v1.806a.226.226 0 0 1-.226.226H1.581a.226.226 0 0 1-.226-.226zm.226-1.58A1.58 1.58 0 0 0 0 10.612v1.806C0 13.292.708 14 1.58 14h10.84A1.58 1.58 0 0 0 14 12.42v-1.807a1.58 1.58 0 0 0-1.58-1.58z" clip-rule="evenodd"/></g><defs><clipPath id="a"><path fill="#fff" d="M0 0h14v14H0z"/></clipPath></defs></svg>