<svg width="14" height="14" viewBox="0 0 14 14" fill="none" xmlns="http://www.w3.org/2000/svg">
<g id="ellipsis-h">
<g id="Vector">
<path d="M2.8 6.99998C2.8 7.77317 2.1732 8.39998 1.4 8.39998C0.626801 8.39998 0 7.77317 0 6.99998C0 6.22678 0.626801 5.59998 1.4 5.59998C2.1732 5.59998 2.8 6.22678 2.8 6.99998Z" fill="black"/>
<path d="M7 8.39998C7.7732 8.39998 8.4 7.77317 8.4 6.99998C8.4 6.22678 7.7732 5.59998 7 5.59998C6.2268 5.59998 5.6 6.22678 5.6 6.99998C5.6 7.77317 6.2268 8.39998 7 8.39998Z" fill="black"/>
<path d="M12.6 8.39998C13.3732 8.39998 14 7.77317 14 6.99998C14 6.22678 13.3732 5.59998 12.6 5.59998C11.8268 5.59998 11.2 6.22678 11.2 6.99998C11.2 7.77317 11.8268 8.39998 12.6 8.39998Z" fill="black"/>
</g>
</g>
</svg>
