<svg width="14" height="14" viewBox="0 0 14 14" fill="none" xmlns="http://www.w3.org/2000/svg">
<g id="ellipsis-v">
<g id="Vector">
<path d="M8.39998 1.4C8.39998 2.1732 7.77317 2.8 6.99998 2.8C6.22678 2.8 5.59998 2.1732 5.59998 1.4C5.59998 0.626801 6.22678 0 6.99998 0C7.77317 0 8.39998 0.626801 8.39998 1.4Z" fill="black"/>
<path d="M6.99998 8.4C7.77317 8.4 8.39998 7.7732 8.39998 7C8.39998 6.2268 7.77317 5.6 6.99998 5.6C6.22678 5.6 5.59998 6.2268 5.59998 7C5.59998 7.7732 6.22678 8.4 6.99998 8.4Z" fill="black"/>
<path d="M6.99998 14C7.77317 14 8.39998 13.3732 8.39998 12.6C8.39998 11.8268 7.77317 11.2 6.99998 11.2C6.22678 11.2 5.59998 11.8268 5.59998 12.6C5.59998 13.3732 6.22678 14 6.99998 14Z" fill="black"/>
</g>
</g>
</svg>
