<svg xmlns="http://www.w3.org/2000/svg" fill="none" viewBox="0 0 14 14"><g clip-path="url(#a)"><path fill="#000" fill-rule="evenodd" d="M1.2 2.2c0-.11.09-.2.2-.2h11.2c.11 0 .2.09.2.2v1.23L7 6.33l-5.8-2.9zM0 3.787V11.8a1.4 1.4 0 0 0 1.4 1.4h11.2a1.4 1.4 0 0 0 1.4-1.4V2.2A1.4 1.4 0 0 0 12.6.8H1.4A1.4 1.4 0 0 0 0 2.2zm12.8.984V11.8a.2.2 0 0 1-.2.2H1.4a.2.2 0 0 1-.2-.2V4.77l5.532 2.767a.6.6 0 0 0 .536 0z" clip-rule="evenodd"/></g><defs><clipPath id="a"><path fill="#fff" d="M0 0h14v14H0z"/></clipPath></defs></svg>