<svg xmlns="http://www.w3.org/2000/svg" fill="none" viewBox="0 0 14 14"><g clip-path="url(#a)"><path fill="#000" fill-rule="evenodd" d="M1.333 8.685a.2.2 0 0 0 0 .288l3.694 3.694a.2.2 0 0 0 .118.06.6.6 0 0 1 .132-.03.2.2 0 0 0 .038-.03L8.57 9.412 4.588 5.43zm5.754 4.008 6.48-6.479a1.47 1.47 0 0 0 0-2.086L9.871.434a1.47 1.47 0 0 0-2.086 0L4.199 4.02a.6.6 0 0 0-.121.122L.434 7.786a1.47 1.47 0 0 0 0 2.086l3.694 3.694c.37.371.886.504 1.36.4h6.644a.636.636 0 1 0 0-1.273zm5.58-7.378L9.469 8.512 5.488 4.531l3.197-3.198a.2.2 0 0 1 .288 0l3.694 3.694a.2.2 0 0 1 0 .288" clip-rule="evenodd"/></g><defs><clipPath id="a"><path fill="#fff" d="M0 0h14v14H0z"/></clipPath></defs></svg>