<svg xmlns="http://www.w3.org/2000/svg" fill="none" viewBox="0 0 14 14"><g clip-path="url(#a)"><path fill="#000" d="M8.723 14H8.6c-3.194-.056-5.858-2.255-6.642-5.2H.722a.6.6 0 0 1 0-1.2h1.026a7 7 0 0 1 0-1.199H.722a.6.6 0 0 1 0-1.2h1.233a6.96 6.96 0 0 1 1.904-3.235C5.204.666 6.945-.05 8.843.003a6.97 6.97 0 0 1 4.778 2 .6.6 0 1 1-.84.857 5.78 5.78 0 0 0-3.958-1.657 5.75 5.75 0 0 0-4.13 1.626 5.8 5.8 0 0 0-1.487 2.372h8.715a.6.6 0 0 1 0 1.2H2.953a6 6 0 0 0 0 1.2h7.768a.6.6 0 0 1 0 1.2H3.208a5.81 5.81 0 0 0 5.412 4 5.76 5.76 0 0 0 4.014-1.52l.178-.168c.232-.233.637-.262.87-.032.236.23.27.579.041.816l-.04.042-.234.224A6.98 6.98 0 0 1 8.723 14"/></g><defs><clipPath id="a"><path fill="#fff" d="M0 0h14v14H0z"/></clipPath></defs></svg>