<svg width="14" height="14" viewBox="0 0 14 14" fill="none" xmlns="http://www.w3.org/2000/svg">
<g id="exclemation-circle">
<g clip-path="url(#clip0_156_4689)">
<path id="Vector" fill-rule="evenodd" clip-rule="evenodd" d="M7 1.16667C3.77834 1.16667 1.16667 3.77834 1.16667 7C1.16667 10.2217 3.77834 12.8333 7 12.8333C10.2217 12.8333 12.8333 10.2217 12.8333 7C12.8333 3.77834 10.2217 1.16667 7 1.16667ZM0 7C0 3.13401 3.13401 0 7 0C10.866 0 14 3.13401 14 7C14 10.866 10.866 14 7 14C3.13401 14 0 10.866 0 7ZM7 3.88889C7.32217 3.88889 7.58333 4.15006 7.58333 4.47222V7.19444C7.58333 7.51661 7.32217 7.77778 7 7.77778C6.67783 7.77778 6.41667 7.51661 6.41667 7.19444V4.47222C6.41667 4.15006 6.67783 3.88889 7 3.88889ZM7.58333 9.13889C7.58333 8.81672 7.32217 8.55556 7 8.55556C6.67783 8.55556 6.41667 8.81672 6.41667 9.13889V9.52778C6.41667 9.84994 6.67783 10.1111 7 10.1111C7.32217 10.1111 7.58333 9.84994 7.58333 9.52778V9.13889Z" fill="black"/>
</g>
</g>
<defs>
<clipPath id="clip0_156_4689">
<rect width="14" height="14" fill="white"/>
</clipPath>
</defs>
</svg>
