<svg xmlns="http://www.w3.org/2000/svg" fill="none" viewBox="0 0 14 14"><g clip-path="url(#a)"><path fill="#000" fill-rule="evenodd" d="M2.2 1.2a1 1 0 0 0-1 1v2.4a.6.6 0 0 1-1.2 0V2.2A2.2 2.2 0 0 1 2.2 0h2.4a.6.6 0 0 1 0 1.2zM8.8.6a.6.6 0 0 1 .6-.6h2.4A2.2 2.2 0 0 1 14 2.2v2.4a.6.6 0 1 1-1.2 0V2.2a1 1 0 0 0-1-1H9.4a.6.6 0 0 1-.6-.6M.6 8.8a.6.6 0 0 1 .6.6v2.4a1 1 0 0 0 1 1h2.4a.6.6 0 1 1 0 1.2H2.2A2.2 2.2 0 0 1 0 11.8V9.4a.6.6 0 0 1 .6-.6m12.8 0a.6.6 0 0 1 .6.6v2.4a2.2 2.2 0 0 1-2.2 2.2H9.4a.6.6 0 1 1 0-1.2h2.4a1 1 0 0 0 1-1V9.4a.6.6 0 0 1 .6-.6" clip-rule="evenodd"/></g><defs><clipPath id="a"><path fill="#fff" d="M0 0h14v14H0z"/></clipPath></defs></svg>