<svg xmlns="http://www.w3.org/2000/svg" fill="none" viewBox="0 0 14 14"><g clip-path="url(#a)"><path fill="#000" fill-rule="evenodd" d="M0 2.2C0 .989.989 0 2.2 0H7a.6.6 0 0 1 0 1.2H2.2c-.549 0-1 .451-1 1v9.6c0 .549.451 1 1 1h9.6c.549 0 1-.451 1-1V7A.6.6 0 1 1 14 7v4.8c0 1.211-.989 2.2-2.2 2.2H2.2C.989 14 0 13.011 0 11.8zM9.6.6a.6.6 0 0 1 .6-.6h3.2a.6.6 0 0 1 .6.6v3.2a.6.6 0 1 1-1.2 0V2.049L8.624 6.224a.6.6 0 1 1-.848-.848L11.952 1.2H10.2a.6.6 0 0 1-.6-.6" clip-rule="evenodd"/></g><defs><clipPath id="a"><path fill="#fff" d="M0 0h14v14H0z"/></clipPath></defs></svg>