<svg xmlns="http://www.w3.org/2000/svg" fill="none" viewBox="0 0 14 14"><g fill="#000" clip-path="url(#a)"><path d="M7 1.6c4.668 0 6.86 4.95 6.95 5.162a.6.6 0 0 1 0 .475c-.017.041-.434.999-1.277 2.078a.6.6 0 0 1-.842.103.6.6 0 0 1-.103-.842c.506-.65.843-1.255 1.006-1.576-.471-.92-2.387-4.2-5.733-4.2-.363 0-.724.038-1.073.114a.6.6 0 0 1-.254-1.173A6.3 6.3 0 0 1 7 1.6"/><path fill-rule="evenodd" d="M1.776 1.776a.6.6 0 0 1 .85 0l9.597 9.6a.6.6 0 0 1-.848.848l-.86-.86a6.4 6.4 0 0 1-3.516 1.035C2.332 12.4.14 7.45.05 7.237a.6.6 0 0 1-.002-.47C.087 6.674.883 4.82 2.51 3.36l-.735-.735a.6.6 0 0 1 0-.85M7.46 8.308 5.686 6.533A1.4 1.4 0 0 0 6.01 7.99c.379.38.957.482 1.45.319M1.266 6.996c.469.917 2.385 4.203 5.735 4.203.96 0 1.845-.243 2.648-.703L8.361 9.207a2.583 2.583 0 0 1-3.198-.37 2.6 2.6 0 0 1-.37-3.197l-1.43-1.43c-1.136 1.005-1.84 2.268-2.097 2.786" clip-rule="evenodd"/></g><defs><clipPath id="a"><path fill="#fff" d="M0 0h14v14H0z"/></clipPath></defs></svg>