<svg xmlns="http://www.w3.org/2000/svg" viewBox="0 0 14 14"><g fill-rule="evenodd" clip-path="url(#a)" clip-rule="evenodd"><path d="M4.4 7c0 1.434 1.166 2.6 2.6 2.6S9.6 8.434 9.6 7 8.434 4.4 7 4.4A2.603 2.603 0 0 0 4.4 7m1.2 0c0-.772.628-1.4 1.4-1.4s1.4.628 1.4 1.4S7.772 8.4 7 8.4 5.6 7.772 5.6 7"/><path d="M.05 7.238C.14 7.448 2.331 12.4 7 12.4s6.86-4.951 6.95-5.162a.6.6 0 0 0 0-.476C13.86 6.552 11.669 1.6 7 1.6 2.333 1.6.14 6.55.05 6.762a.6.6 0 0 0 0 .476M7 11.2c-3.345 0-5.261-3.278-5.734-4.2C1.74 6.078 3.655 2.8 7 2.8s5.261 3.278 5.734 4.2c-.473.922-2.389 4.2-5.734 4.2"/></g><defs><clipPath id="a"><path d="M0 0h14v14H0z"/></clipPath></defs></svg>