<svg xmlns="http://www.w3.org/2000/svg" viewBox="0 0 14 14"><g clip-path="url(#a)"><path fill-rule="evenodd" d="M1.167 7a5.833 5.833 0 1 1 11.666 0A5.833 5.833 0 0 1 1.167 7M7 0a7 7 0 1 0 0 14A7 7 0 0 0 7 0M4.861 5.833a.972.972 0 1 0 0-1.944.972.972 0 0 0 0 1.944m5.25-.972a.972.972 0 1 1-1.944 0 .972.972 0 0 1 1.944 0M4.432 8.342l-.003-.006a.583.583 0 0 0-1.082.436l.542-.216c-.542.216-.542.216-.541.217v.002l.002.003.003.009a2 2 0 0 0 .05.107q.048.102.144.265c.128.214.326.498.61.781.574.575 1.494 1.143 2.843 1.143s2.269-.568 2.843-1.143a4.1 4.1 0 0 0 .755-1.046l.038-.082.01-.025.004-.009.002-.003v-.002l-.54-.217.54.216a.583.583 0 0 0-1.081-.436l-.003.006-.02.042q-.028.061-.095.175c-.09.15-.232.354-.435.556-.398.398-1.033.802-2.018.802s-1.62-.404-2.018-.802a3 3 0 0 1-.53-.73z" clip-rule="evenodd"/></g><defs><clipPath id="a"><path d="M0 0h14v14H0z"/></clipPath></defs></svg>