<svg width="14" height="14" viewBox="0 0 14 14" fill="none" xmlns="http://www.w3.org/2000/svg">
<g id="facebook">
<g clip-path="url(#clip0_156_4468)">
<path id="Vector" d="M13.9995 7.04244C13.9995 3.15244 10.8664 0 6.99999 0C3.13361 0 0.000427246 3.15156 0.000427246 7.04244C0.000427246 10.5571 2.55964 13.4707 5.90631 13.9991V9.07755H4.12842V7.04156H5.90631V5.49027C5.90631 3.72551 6.95099 2.75084 8.55039 2.75084C9.31597 2.75084 10.1174 2.88819 10.1174 2.88819V4.62059H9.2346C8.3649 4.62059 8.09367 5.16392 8.09367 5.72039V7.04244H10.0352L9.72457 9.07843H8.09367V14C11.4403 13.4707 13.9995 10.5571 13.9995 7.04244Z" fill="black"/>
</g>
</g>
<defs>
<clipPath id="clip0_156_4468">
<rect width="14" height="14" fill="white"/>
</clipPath>
</defs>
</svg>
