<svg width="14" height="14" viewBox="0 0 14 14" fill="none" xmlns="http://www.w3.org/2000/svg">
<g id="fast-forward">
<g clip-path="url(#clip0_156_4552)">
<path id="Vector" fill-rule="evenodd" clip-rule="evenodd" d="M0.37039 0.845678C0.594595 0.752809 0.852665 0.804142 1.02426 0.975741L6.4 6.35148V1.40001C6.4 1.15733 6.54619 0.938546 6.77039 0.845678C6.99459 0.752809 7.25267 0.804142 7.42426 0.975741L12.8 6.35148V1.40001C12.8 1.06863 13.0686 0.800005 13.4 0.800005C13.7314 0.800005 14 1.06863 14 1.40001V12.6C14 12.9314 13.7314 13.2 13.4 13.2C13.0686 13.2 12.8 12.9314 12.8 12.6V7.64853L7.42426 13.0243C7.25267 13.1959 6.99459 13.2472 6.77039 13.1543C6.54619 13.0615 6.4 12.8427 6.4 12.6V7.64853L1.02426 13.0243C0.852665 13.1959 0.594595 13.2472 0.37039 13.1543C0.146185 13.0615 0 12.8427 0 12.6V1.40001C0 1.15733 0.146185 0.938546 0.37039 0.845678ZM1.2 11.1515L5.35147 7L1.2 2.84853V11.1515ZM11.7515 7L7.6 11.1515V2.84853L11.7515 7Z" fill="black"/>
</g>
</g>
<defs>
<clipPath id="clip0_156_4552">
<rect width="14" height="14" fill="white"/>
</clipPath>
</defs>
</svg>
