<svg width="14" height="14" viewBox="0 0 14 14" fill="none" xmlns="http://www.w3.org/2000/svg">
<g id="fast-backward">
<g clip-path="url(#clip0_156_4561)">
<path id="Vector" fill-rule="evenodd" clip-rule="evenodd" d="M13.6296 0.845678C13.8538 0.938546 14 1.15733 14 1.40001V12.6C14 12.8427 13.8538 13.0615 13.6296 13.1543C13.4054 13.2472 13.1473 13.1959 12.9757 13.0243L7.6 7.64853V12.6C7.6 12.8427 7.45381 13.0615 7.22961 13.1543C7.00541 13.2472 6.74733 13.1959 6.57574 13.0243L1.2 7.64853V12.6C1.2 12.9314 0.931371 13.2 0.6 13.2C0.268629 13.2 0 12.9314 0 12.6V1.40001C0 1.06863 0.268629 0.800005 0.6 0.800005C0.931371 0.800005 1.2 1.06863 1.2 1.40001V6.35148L6.57574 0.975741C6.74733 0.804142 7.00541 0.752809 7.22961 0.845678C7.45381 0.938546 7.6 1.15733 7.6 1.40001V6.35148L12.9757 0.975741C13.1473 0.804142 13.4054 0.752809 13.6296 0.845678ZM8.64853 7L12.8 11.1515V2.84853L8.64853 7ZM6.4 11.1515L2.24853 7L6.4 2.84853V11.1515Z" fill="black"/>
</g>
</g>
<defs>
<clipPath id="clip0_156_4561">
<rect width="14" height="14" fill="white"/>
</clipPath>
</defs>
</svg>
