<svg xmlns="http://www.w3.org/2000/svg" viewBox="0 0 14 14"><g clip-path="url(#a)"><path d="M3.972 12.107H2.837a.947.947 0 0 1-.946-.946v-9.08c0-.522.425-.947.946-.947h2.838V4.73c0 .313.254.568.567.568h3.633a.563.563 0 0 0 1.097-.19V4.73a.57.57 0 0 0-.166-.401L6.644.166a.56.56 0 0 0-.4-.166H2.837A2.083 2.083 0 0 0 .757 2.081v9.081c0 1.148.933 2.081 2.08 2.081h1.136a.568.568 0 1 0 0-1.136M6.81 1.937 9.034 4.16H6.81zm5.95 4.589c-.29-.29-.709-.462-1.15-.472a1.55 1.55 0 0 0-1.174.446l-4.84 4.846a.57.57 0 0 0-.164.357l-.136 1.684a.565.565 0 0 0 .618.61l1.701-.154a.57.57 0 0 0 .35-.165l4.839-4.845c.603-.603.582-1.68-.044-2.307m-.758 1.503-4.693 4.7-.825.076.064-.804 4.691-4.698c.074-.074.21-.11.346-.114.15.004.288.055.372.14.178.177.202.544.045.7"/></g><defs><clipPath id="a"><path d="M0 0h14v14H0z"/></clipPath></defs></svg>