<svg xmlns="http://www.w3.org/2000/svg" viewBox="0 0 14 14"><g clip-path="url(#a)"><path fill-rule="evenodd" d="M3.889 2.333c0-1.177.961-2.139 2.139-2.139h3.11c.156 0 .304.062.413.171l4.278 4.278c.11.11.171.258.171.413v6.61a2.144 2.144 0 0 1-2.139 2.14H6.028a2.143 2.143 0 0 1-2.14-2.14v-.777a.583.583 0 1 1 1.168 0v.778c0 .533.438.972.972.972h5.833a.977.977 0 0 0 .972-.972V5.639H9.14a.583.583 0 0 1-.583-.583V1.36H6.028a.977.977 0 0 0-.972.972v3.89a.583.583 0 0 1-1.167 0zm5.833-.147v2.286h2.286zM6.83 5.81a.583.583 0 1 0-.825.825l1.338 1.337H.583a.583.583 0 1 0 0 1.167h6.759l-1.338 1.337a.583.583 0 0 0 .825.825l2.333-2.333a.58.58 0 0 0 0-.825z" clip-rule="evenodd"/></g><defs><clipPath id="a"><path d="M0 0h14v14H0z"/></clipPath></defs></svg>