<svg xmlns="http://www.w3.org/2000/svg" fill="none" viewBox="0 0 14 14"><g fill="#000" fill-rule="evenodd" clip-rule="evenodd"><path d="M7.14 7.955c.232.608.56 1.023 1.053 1.323.497-.063 1.492-.157 1.84.185.301.3.23 1.106-.5 1.106-.423 0-1.055-.195-1.595-.486-.503.084-1.06.273-1.596.454q-.18.062-.359.12c-1.432 2.469-2.27 1.343-2.175.892.114-.571.886-1.026 1.458-1.32.3-.526.726-1.443 1.012-2.126-.212-.817-.326-1.457-.2-1.917.136-.505 1.097-.58 1.217.17.13.425-.032 1.095-.143 1.554zm-1.996 2.818c-.226.201-.65.58-.774.913 0 .02.326-.134.87-1zm1.56-4.532c.21 0 .19.917.05 1.165-.125-.396-.123-1.165-.05-1.165m.008 2.34c-.192.505-.429 1.079-.706 1.562q.164-.063.338-.136c.37-.152.777-.319 1.229-.412a3.15 3.15 0 0 1-.861-1.014M9.768 10s-.143.171-1.066-.223c1.003-.075 1.168.154 1.066.223"/><path d="m7.824.176 4.4 4.4A.6.6 0 0 1 12.4 5v6.8c0 1.214-.986 2.2-2.2 2.2H3.8c-1.214 0-2.2-.986-2.2-2.2V2.2C1.6.986 2.586 0 3.8 0h3.6a.6.6 0 0 1 .424.176m2.527 4.223L8 2.048v2.351zM3.8 12.8h6.4c.551 0 1-.449 1-1V5.6H7.4a.6.6 0 0 1-.6-.6V1.2h-3c-.551 0-1 .449-1 1v9.6c0 .551.449 1 1 1"/></g></svg>