<svg xmlns="http://www.w3.org/2000/svg" fill="none" viewBox="0 0 14 14"><path fill="#000" fill-rule="evenodd" d="M1.6 2.2C1.6.989 2.589 0 3.8 0h3.6a.6.6 0 0 1 .424.176l4.4 4.4A.6.6 0 0 1 12.4 5v6.8c0 1.211-.989 2.2-2.2 2.2H3.8c-1.211 0-2.2-.989-2.2-2.2zm2.2-1c-.549 0-1 .451-1 1v9.6c0 .549.451 1 1 1h6.4c.549 0 1-.451 1-1V5.6H7.4a.6.6 0 0 1-.6-.6V1.2zm4.2.849L10.351 4.4H8zm-.576 4.927a.6.6 0 0 0-.848 0l-1.6 1.6a.6.6 0 0 0 .848.848L6.4 8.85V11.4a.6.6 0 1 0 1.2 0V8.849l.576.575a.6.6 0 1 0 .848-.848z" clip-rule="evenodd"/></svg>