<svg xmlns="http://www.w3.org/2000/svg" viewBox="0 0 14 14"><path fill-rule="evenodd" d="M3.8 0C2.589 0 1.6.989 1.6 2.2v9.6c0 1.211.989 2.2 2.2 2.2h6.4c1.211 0 2.2-.989 2.2-2.2V5a.6.6 0 0 0-.176-.424l-4.4-4.4A.6.6 0 0 0 7.4 0zm-1 2.2c0-.549.451-1 1-1h3V5a.6.6 0 0 0 .6.6h3.8v6.2c0 .549-.451 1-1 1H3.8c-.549 0-1-.451-1-1zm7.551 2.2L8 2.049V4.4zM8.975 6.931a.6.6 0 0 1 .094.844L7.769 9.4l1.3 1.625a.6.6 0 1 1-.938.75L7 10.36l-1.131 1.415a.6.6 0 1 1-.938-.75l1.3-1.625-1.3-1.625a.6.6 0 0 1 .938-.75L7 8.44l1.131-1.415a.6.6 0 0 1 .844-.094" clip-rule="evenodd"/></svg>