<svg width="14" height="14" viewBox="0 0 14 14" fill="none" xmlns="http://www.w3.org/2000/svg">
<g id="file">
<path id="Vector" fill-rule="evenodd" clip-rule="evenodd" d="M3.79998 0C2.5886 0 1.59998 0.988629 1.59998 2.2V11.8C1.59998 13.0114 2.5886 14 3.79998 14H10.2C11.4113 14 12.4 13.0114 12.4 11.8V5C12.4 4.84087 12.3368 4.68826 12.2242 4.57574L7.82424 0.175736C7.71172 0.0632141 7.55911 0 7.39998 0H3.79998ZM2.79998 2.2C2.79998 1.65137 3.25135 1.2 3.79998 1.2H6.79998V5C6.79998 5.33137 7.0686 5.6 7.39998 5.6H11.2V11.8C11.2 12.3486 10.7486 12.8 10.2 12.8H3.79998C3.25135 12.8 2.79998 12.3486 2.79998 11.8V2.2ZM10.3514 4.4L7.99998 2.04853V4.4H10.3514Z" fill="black"/>
</g>
</svg>
