<svg xmlns="http://www.w3.org/2000/svg" fill="none" viewBox="0 0 14 14"><g clip-path="url(#a)"><path fill="#000" fill-rule="evenodd" d="M.273.338A.62.62 0 0 1 .823 0h12.354a.618.618 0 0 1 .498.983l-4.41 6.013v6.386a.62.62 0 0 1-.618.618H5.353a.62.62 0 0 1-.618-.618V6.996L.325.983A.62.62 0 0 1 .273.338m1.77.897L5.85 6.43c.078.106.12.234.12.365v5.97h2.058v-5.97c0-.131.042-.26.12-.365l3.809-5.194z" clip-rule="evenodd"/></g><defs><clipPath id="a"><path fill="#fff" d="M0 0h14v14H0z"/></clipPath></defs></svg>