<svg xmlns="http://www.w3.org/2000/svg" viewBox="0 0 14 14"><g clip-path="url(#a)"><path fill-rule="evenodd" d="M.273.338A.62.62 0 0 1 .823 0h2.99c.17 0 .323.068.434.178L13.2 9.031a.618.618 0 1 1-.869.879L9.315 6.928l-.05.068v6.386a.62.62 0 0 1-.618.618H5.353a.62.62 0 0 1-.618-.618V6.996L.325.983A.62.62 0 0 1 .273.338M8.427 6.05 3.56 1.235H2.042L5.851 6.43c.078.106.12.234.12.365v5.97h2.058v-5.97c0-.131.042-.26.12-.365zM6.794.618c0-.341.277-.618.618-.618h5.765a.618.618 0 0 1 .498.983L11.41 4.07a.618.618 0 1 1-.996-.73l1.544-2.106H7.412a.62.62 0 0 1-.618-.617" clip-rule="evenodd"/></g><defs><clipPath id="a"><path d="M0 0h14v14H0z"/></clipPath></defs></svg>