<svg xmlns="http://www.w3.org/2000/svg" viewBox="0 0 14 14"><g clip-path="url(#a)"><path d="M12.94.96a.6.6 0 0 0-.557-.062c-.92.359-2.501.866-2.981.815-.447-.05-1.155-.42-1.841-.779C6.7.484 5.887.061 5.18.004 4.154-.066 1.692.727 1.21.889a.6.6 0 0 0-.41.569V13.4a.6.6 0 0 0 1.2 0V8.718c1.054-.333 2.556-.74 3.086-.69.463.035 1.237.44 1.919.796.818.427 1.592.831 2.262.907q.084.01.182.01c1.017 0 2.969-.742 3.371-.9a.6.6 0 0 0 .382-.559V1.458A.6.6 0 0 0 12.94.96m-.938 6.906c-.938.344-2.173.712-2.6.673-.447-.05-1.155-.42-1.84-.779-.86-.45-1.674-.875-2.38-.93a2 2 0 0 0-.16-.006c-.78 0-2.133.367-3.021.637V1.892c1.051-.331 2.557-.743 3.086-.69.462.036 1.236.44 1.919.796.818.428 1.592.831 2.261.907.646.075 1.886-.297 2.734-.589z"/></g><defs><clipPath id="a"><path d="M0 0h14v14H0z"/></clipPath></defs></svg>