<svg xmlns="http://www.w3.org/2000/svg" viewBox="0 0 14 14"><g clip-path="url(#a)"><path d="M12.939.958a.6.6 0 0 0-.557-.062c-1.1.432-2.55.87-2.98.817-.448-.05-1.157-.42-1.842-.778C6.7.485 5.89.06 5.185.007c-1.03-.092-3.493.716-3.977.878a.6.6 0 0 0-.41.57v11.944a.6.6 0 0 0 1.2 0V8.716c1.054-.33 2.549-.731 3.091-.686.461.035 1.234.44 1.916.795.82.428 1.593.832 2.263.907q.084.01.183.01c1.015 0 2.967-.746 3.37-.904a.6.6 0 0 0 .38-.558V1.454a.6.6 0 0 0-.262-.496"/></g><defs><clipPath id="a"><path d="M0 0h14v14H0z"/></clipPath></defs></svg>