<svg xmlns="http://www.w3.org/2000/svg" viewBox="0 0 14 14"><g clip-path="url(#a)"><path fill-rule="evenodd" d="M1.135 3.595c0-.538.423-.946.893-.946h1.556L5.601 5.09c.108.13.269.206.438.206h4.01c.47 0 .894.408.894.946v.19H3.125a.57.57 0 0 0-.503.305l-1.487 2.86zM0 11.919V3.595c0-1.127.894-2.082 2.028-2.082h1.824c.17 0 .33.076.438.207l2.016 2.442h3.744c1.134 0 2.028.954 2.028 2.081v.19h1.354a.568.568 0 0 1 .504.829l-2.558 4.919a.57.57 0 0 1-.503.306H.568A.567.567 0 0 1 0 11.919m1.502-.568L3.47 7.568h9.028L10.53 11.35z" clip-rule="evenodd"/></g><defs><clipPath id="a"><path d="M0 0h14v14H0z"/></clipPath></defs></svg>