<svg xmlns="http://www.w3.org/2000/svg" viewBox="0 0 14 14"><g clip-path="url(#a)"><path fill-rule="evenodd" d="M1.273 3.182c0-.582.478-1.06 1.06-1.06h1.829l2.355 2.747c.12.14.297.222.483.222h4.667c.582 0 1.06.479 1.06 1.06v4.667c0 .582-.479 1.06-1.06 1.06H2.333c-.582 0-1.06-.478-1.06-1.06zM2.333.849A2.34 2.34 0 0 0 0 3.182v7.636a2.34 2.34 0 0 0 2.333 2.334h9.334A2.34 2.34 0 0 0 14 10.818V6.152a2.34 2.34 0 0 0-2.333-2.334H7.293L4.938 1.071a.64.64 0 0 0-.483-.222zM7 5.939c.351 0 .636.285.636.637v1.06h1.061a.636.636 0 0 1 0 1.273h-1.06v1.06a.636.636 0 1 1-1.273 0V8.91H5.303a.636.636 0 0 1 0-1.273h1.06v-1.06c0-.352.286-.637.637-.637" clip-rule="evenodd"/></g><defs><clipPath id="a"><path d="M0 0h14v14H0z"/></clipPath></defs></svg>