<svg xmlns="http://www.w3.org/2000/svg" fill="none" viewBox="0 0 14 14"><g clip-path="url(#a)"><path fill="#000" fill-rule="evenodd" d="M2.333 2.121c-.582 0-1.06.479-1.06 1.06v7.637c0 .582.478 1.06 1.06 1.06h9.334c.582 0 1.06-.478 1.06-1.06V6.152c0-.582-.479-1.061-1.06-1.061H7a.64.64 0 0 1-.483-.222L4.162 2.12zM0 3.181A2.34 2.34 0 0 1 2.333.849h2.122c.185 0 .362.082.483.223l2.355 2.747h4.374A2.34 2.34 0 0 1 14 6.152v4.666a2.34 2.34 0 0 1-2.333 2.334H2.333A2.34 2.34 0 0 1 0 10.818z" clip-rule="evenodd"/></g><defs><clipPath id="a"><path fill="#fff" d="M0 0h14v14H0z"/></clipPath></defs></svg>