<svg width="14" height="14" viewBox="0 0 14 14" fill="none" xmlns="http://www.w3.org/2000/svg">
<g id="forward">
<g clip-path="url(#clip0_156_4572)">
<path id="Vector" fill-rule="evenodd" clip-rule="evenodd" d="M1.01027 0.962187C0.835772 0.798671 0.580839 0.754386 0.361421 0.849474C0.142003 0.944562 0 1.16087 0 1.4V12.6C0 12.8391 0.142003 13.0554 0.361421 13.1505C0.580839 13.2456 0.835772 13.2013 1.01027 13.0378L6.824 7.58987V12.6C6.824 12.8391 6.966 13.0554 7.18542 13.1505C7.40484 13.2456 7.65977 13.2013 7.83427 13.0378L13.8103 7.43781C13.9313 7.32438 14 7.16589 14 7C14 6.83411 13.9313 6.67562 13.8103 6.56219L7.83427 0.962187C7.65977 0.798671 7.40484 0.754386 7.18542 0.849474C6.966 0.944562 6.824 1.16087 6.824 1.4V6.41013L1.01027 0.962187ZM5.69852 7L1.2 11.2155V2.78452L5.69852 7ZM12.5225 7L8.024 11.2155V2.78452L12.5225 7Z" fill="black"/>
</g>
</g>
<defs>
<clipPath id="clip0_156_4572">
<rect width="14" height="14" fill="white"/>
</clipPath>
</defs>
</svg>
