<svg xmlns="http://www.w3.org/2000/svg" fill="none" viewBox="0 0 14 14"><path fill="#000" fill-rule="evenodd" d="m3.518 4.18.993 1.005a.538.538 0 1 1-.766.758L2.701 4.886c-.742.802-1.149 1.774-1.371 2.607-.116.438-.18.829-.214 1.122h1.217a.538.538 0 1 1 0 1.077H1.077v.898c0 .099.08.18.18.18h2.648l3.791-3.792a.538.538 0 1 1 .762.762l-3.03 3.03h7.316c.099 0 .18-.081.18-.18v-.898h-1.257a.538.538 0 1 1 0-1.077h1.217a8 8 0 0 0-.055-.382 7.4 7.4 0 0 0-.657-2.07 5.5 5.5 0 0 0-.867-1.27l-1.053 1.052a.538.538 0 1 1-.761-.762l.998-.998-.052-.035c-.712-.475-1.65-.824-2.899-.903v1.24a.538.538 0 1 1-1.076 0v-1.24c-1.27.08-2.224.441-2.944.934m9.943 4.974H14v-.027l-.002-.064a8.463 8.463 0 0 0-.106-1.008 8.5 8.5 0 0 0-.757-2.373c-.435-.871-1.098-1.76-2.1-2.428-1.007-.671-2.325-1.1-4.035-1.1-2.09 0-3.588.64-4.647 1.57C1.16 4.77.576 6.14.29 7.215A9 9 0 0 0 .005 8.99L0 9.14v.013c0 .001 0 .002.538.002H0v1.436c0 .694.563 1.256 1.256 1.256h11.488c.694 0 1.256-.562 1.256-1.256V9.153z" clip-rule="evenodd"/></svg>