<svg xmlns="http://www.w3.org/2000/svg" fill="none" viewBox="0 0 14 14"><g clip-path="url(#a)"><path fill="#000" fill-rule="evenodd" d="M2.8 2.2c0-.549.451-1 1-1a2.6 2.6 0 0 1 2.53 2H3.8c-.549 0-1-.451-1-1m1-2.2C2.589 0 1.6.989 1.6 2.2c0 .531.19 1.02.505 1.4H1a1 1 0 0 0-1 1v2a1 1 0 0 0 .8.98V13c0 .555.445 1 1 1h10.4c.555 0 1-.445 1-1V7.58a1 1 0 0 0 .8-.98v-2a1 1 0 0 0-1-1h-1.105c.315-.38.505-.869.505-1.4 0-1.211-.989-2.2-2.2-2.2A3.8 3.8 0 0 0 7 1.75 3.8 3.8 0 0 0 3.8 0m3.8 12.8H12V7.6H7.6zM6.4 7.6v5.2H2V7.6zm1.2-1.2h5.2V4.8H7.6zM6.4 4.8v1.6H1.2V4.8zm3.8-1.6c.549 0 1-.451 1-1s-.451-1-1-1a2.6 2.6 0 0 0-2.53 2z" clip-rule="evenodd"/></g><defs><clipPath id="a"><path fill="#fff" d="M0 0h14v14H0z"/></clipPath></defs></svg>