<svg width="14" height="14" viewBox="0 0 14 14" fill="none" xmlns="http://www.w3.org/2000/svg">
<g id="gift">
<g clip-path="url(#clip0_156_4587)">
<path id="Vector" fill-rule="evenodd" clip-rule="evenodd" d="M2.8 2.2C2.8 1.65137 3.25137 1.2 3.8 1.2C5.0301 1.2 6.05986 2.05292 6.33052 3.2H3.8C3.25137 3.2 2.8 2.74863 2.8 2.2ZM3.8 0C2.58863 0 1.6 0.988629 1.6 2.2C1.6 2.73096 1.78993 3.21912 2.1053 3.6H1C0.447715 3.6 0 4.04772 0 4.6V6.6C0 7.08379 0.343552 7.48734 0.8 7.58V13C0.8 13.5554 1.24463 14 1.8 14H7H12.2C12.7554 14 13.2 13.5554 13.2 13V7.58C13.6564 7.48734 14 7.08379 14 6.6V4.6C14 4.04772 13.5523 3.6 13 3.6H11.8947C12.2101 3.21912 12.4 2.73096 12.4 2.2C12.4 0.988629 11.4114 0 10.2 0C8.85609 0 7.67559 0.696897 7 1.74918C6.32441 0.696898 5.14391 0 3.8 0ZM7.6 12.8H12V7.6H7.6V12.8ZM6.4 7.6V12.8H2V7.6H6.4ZM7.6 6.4H12.6H12.8V4.8H7.6V6.4ZM6.4 4.8V6.4H1.4H1.2V4.8H6.4ZM10.2 3.2C10.7486 3.2 11.2 2.74863 11.2 2.2C11.2 1.65137 10.7486 1.2 10.2 1.2C8.9699 1.2 7.94014 2.05292 7.66948 3.2H10.2Z" fill="black"/>
</g>
</g>
<defs>
<clipPath id="clip0_156_4587">
<rect width="14" height="14" fill="white"/>
</clipPath>
</defs>
</svg>
