<svg xmlns="http://www.w3.org/2000/svg" viewBox="0 0 14 14"><g clip-path="url(#a)"><path d="M4.683 11.272c0 .058-.065.104-.147.104-.093.01-.158-.037-.158-.104 0-.058.064-.104.147-.104.085-.009.158.038.158.104m-.878-.13c-.02.058.036.124.121.142.074.028.159 0 .175-.058.017-.058-.037-.124-.121-.15-.074-.02-.155.008-.175.066m1.247-.05c-.082.021-.138.076-.13.143.01.057.083.095.167.075.082-.02.138-.075.13-.133-.01-.055-.085-.093-.167-.084M6.91 0C2.995 0 0 3.048 0 7.064c0 3.21 1.97 5.957 4.785 6.924.36.067.488-.162.488-.35 0-.18-.009-1.17-.009-1.777 0 0-1.976.434-2.39-.863 0 0-.322-.842-.785-1.06 0 0-.647-.453.045-.445 0 0 .703.057 1.09.747.617 1.117 1.653.796 2.058.604.064-.462.248-.784.451-.975-1.578-.18-3.17-.414-3.17-3.2 0-.795.214-1.194.666-1.704-.074-.189-.313-.965.073-1.966.59-.188 1.948.782 1.948.782a6.5 6.5 0 0 1 3.545 0s1.358-.973 1.948-.782c.387 1.005.147 1.777.074 1.966.451.512.728.911.728 1.705 0 2.794-1.663 3.016-3.24 3.199.26.228.48.663.48 1.343 0 .976-.01 2.183-.01 2.42 0 .188.13.417.489.35C12.086 13.022 14 10.274 14 7.064 14 3.048 10.825 0 6.91 0M2.743 9.984c-.037.03-.028.096.02.15.046.047.11.067.147.03.037-.03.028-.096-.02-.15-.045-.047-.11-.067-.147-.03M2.44 9.75c-.02.037.008.084.064.113.046.029.102.02.122-.02.02-.038-.009-.084-.065-.113-.057-.018-.101-.009-.121.02m.914 1.03c-.045.038-.028.125.037.18.065.066.147.075.184.029.036-.038.02-.124-.037-.18-.062-.066-.147-.075-.184-.028m-.321-.426c-.046.03-.046.105 0 .171.045.067.122.095.158.067.046-.038.046-.113 0-.18-.039-.066-.113-.095-.158-.058"/></g><defs><clipPath id="a"><path d="M0 0h14v14H0z"/></clipPath></defs></svg>