<svg xmlns="http://www.w3.org/2000/svg" fill="none" viewBox="0 0 14 14"><g clip-path="url(#a)"><path fill="#000" fill-rule="evenodd" d="M5.627 1.33a5.84 5.84 0 0 0-4.432 5.087h2.14c.178-1.846 1.172-3.621 2.292-5.088M7 0a7 7 0 1 0 0 14A7 7 0 0 0 7 0m1.373 1.33c1.12 1.466 2.114 3.24 2.293 5.087h2.139a5.84 5.84 0 0 0-4.432-5.088m1.12 5.087C9.289 4.698 8.225 2.955 7 1.478c-1.225 1.477-2.289 3.22-2.493 4.939zM4.507 7.583h4.986C9.289 9.302 8.225 11.045 7 12.522c-1.225-1.477-2.289-3.22-2.493-4.939m-1.173 0H1.195a5.84 5.84 0 0 0 4.432 5.088c-1.12-1.467-2.114-3.242-2.293-5.088m5.039 5.088c1.12-1.467 2.114-3.242 2.293-5.088h2.139a5.84 5.84 0 0 1-4.432 5.088" clip-rule="evenodd"/></g><defs><clipPath id="a"><path fill="#fff" d="M0 0h14v14H0z"/></clipPath></defs></svg>