<svg xmlns="http://www.w3.org/2000/svg" fill="none" viewBox="0 0 14 14"><g clip-path="url(#a)"><path fill="#000" d="m13.787 5.92-.071-.299H7.202v2.757h3.892c-.404 1.919-2.28 2.929-3.81 2.929-1.115 0-2.29-.47-3.067-1.223a4.38 4.38 0 0 1-1.307-3.09c0-1.16.522-2.322 1.281-3.086.76-.764 1.907-1.192 3.047-1.192 1.305 0 2.242.694 2.592 1.01l1.959-1.949C11.214 1.272 9.635 0 7.175 0c-1.899 0-3.719.727-5.05 2.054C.812 3.36.133 5.248.133 7s.643 3.546 1.915 4.862C3.408 13.266 5.334 14 7.317 14c1.804 0 3.514-.707 4.733-1.99 1.197-1.262 1.817-3.009 1.817-4.84 0-.772-.077-1.23-.08-1.25"/></g><defs><clipPath id="a"><path fill="#fff" d="M0 0h14v14H0z"/></clipPath></defs></svg>