<svg xmlns="http://www.w3.org/2000/svg" viewBox="0 0 14 14"><g clip-path="url(#a)"><path fill-rule="evenodd" d="M6.59.305c.26-.121.56-.121.82 0l6.028 2.802c.77.358.743 1.462-.043 1.782l-.367.15v2.967c0 .37-.15.75-.473 1.006-.313.25-.888.663-1.677 1.045v3.146a.583.583 0 0 1-1.167 0v-2.674A8.7 8.7 0 0 1 7 10.966c-2.875 0-4.926-1.573-5.602-2.168a1.28 1.28 0 0 1-.426-.965V5.04l-.367-.15C-.18 4.57-.207 3.465.562 3.107zM2.14 5.575 6.58 7.713a.97.97 0 0 0 .832.006L9.71 6.65v2.642A7.6 7.6 0 0 1 7 9.799c-2.455 0-4.237-1.354-4.831-1.877-.01-.01-.03-.035-.03-.089zm8.739 3.164c.428-.246.75-.481.95-.64.012-.01.033-.035.033-.093v-2.41l-.983.498zm-.58-3.66 1.905-.964.338-.138L7 1.401 1.459 3.977l.333.136 5.212 2.509 1.973-.917L6.73 4.529a.583.583 0 0 1 .54-1.034z" clip-rule="evenodd"/></g><defs><clipPath id="a"><path d="M0 0h14v14H0z"/></clipPath></defs></svg>