<svg width="14" height="14" viewBox="0 0 14 14" fill="none" xmlns="http://www.w3.org/2000/svg">
<g id="hammer">
<g clip-path="url(#clip0_295_4701)">
<path id="Vector" fill-rule="evenodd" clip-rule="evenodd" d="M6.56774 1.19814C6.49338 1.12378 6.37283 1.12378 6.29848 1.19813L4.63383 2.86279C4.55947 2.93714 4.55947 3.05769 4.63383 3.13204L10.868 9.36617C10.9423 9.44053 11.0629 9.44053 11.1372 9.36617L12.8019 7.70152C12.8762 7.62717 12.8762 7.50662 12.8019 7.43226L6.56774 1.19814ZM5.4907 0.390358C6.01118 -0.13012 6.85504 -0.130119 7.37551 0.390358L13.6096 6.62449C14.1301 7.14496 14.1301 7.98882 13.6096 8.5093L11.945 10.174C11.4245 10.6944 10.5807 10.6944 10.0602 10.174L8.2609 8.37467L3.18141 13.4542C2.45362 14.1819 1.27364 14.1819 0.545844 13.4542C-0.181948 12.7264 -0.181948 11.5464 0.545844 10.8186L5.62533 5.7391L3.82605 3.93982C3.30557 3.41934 3.30557 2.57549 3.82605 2.05501L5.4907 0.390358ZM6.43311 6.54688L1.35362 11.6264C1.07195 11.908 1.07195 12.3647 1.35362 12.6464C1.63529 12.928 2.09197 12.928 2.37364 12.6464L7.45312 7.56689L6.43311 6.54688Z" fill="black"/>
</g>
</g>
<defs>
<clipPath id="clip0_295_4701">
<rect width="14" height="14" fill="white"/>
</clipPath>
</defs>
</svg>
