<svg xmlns="http://www.w3.org/2000/svg" fill="none" viewBox="0 0 14 14"><g clip-path="url(#a)"><path fill="#000" fill-rule="evenodd" d="M6.568 1.198a.19.19 0 0 0-.27 0L4.634 2.863a.19.19 0 0 0 0 .269l6.234 6.234a.19.19 0 0 0 .27 0l1.664-1.664a.19.19 0 0 0 0-.27zM5.49.39c.52-.52 1.364-.52 1.885 0l6.234 6.234c.52.521.52 1.365 0 1.885l-1.665 1.665c-.52.52-1.364.52-1.885 0l-1.8-1.8-5.079 5.08A1.864 1.864 0 0 1 .546 10.82l5.08-5.08-1.8-1.8a1.333 1.333 0 0 1 0-1.884zm.942 6.157-5.08 5.08a.721.721 0 1 0 1.02 1.02l5.08-5.08z" clip-rule="evenodd"/></g><defs><clipPath id="a"><path fill="#fff" d="M0 0h14v14H0z"/></clipPath></defs></svg>