<svg xmlns="http://www.w3.org/2000/svg" fill="none" viewBox="0 0 14 14"><g clip-path="url(#a)"><path fill="#000" fill-rule="evenodd" d="M6.086 1.387a.538.538 0 0 0-1.044-.261L4.426 3.59H1.974a.538.538 0 1 0 0 1.077h2.183L2.99 9.333H.538a.538.538 0 1 0 0 1.077h2.183l-.551 2.203a.538.538 0 0 0 1.045.261l.616-2.464h4.633l-.55 2.203a.538.538 0 0 0 1.044.261l.616-2.464h2.452a.539.539 0 0 0 0-1.077H9.844l1.166-4.666h2.451a.538.538 0 1 0 0-1.077H11.28l.551-2.203a.538.538 0 0 0-1.045-.261L10.17 3.59H5.536zM9.9 4.667H5.267L4.1 9.333h4.633z" clip-rule="evenodd"/></g><defs><clipPath id="a"><path fill="#fff" d="M0 0h14v14H0z"/></clipPath></defs></svg>