<svg xmlns="http://www.w3.org/2000/svg" fill="none" viewBox="0 0 14 14"><path fill="#000" fill-rule="evenodd" d="M2.548 7.494A1.26 1.26 0 0 1 3.59 8.732v2.279c0 .835-.8 1.437-1.602 1.208l-1.077-.308A1.256 1.256 0 0 1 0 10.703V9.176c0-.476.269-.911.695-1.124l.756-.378c.011-.164.032-.381.07-.635.082-.57.249-1.337.588-2.113.34-.775.86-1.577 1.66-2.186C4.574 2.125 5.632 1.732 7 1.732s2.425.393 3.232 1.008c.8.609 1.32 1.41 1.659 2.186s.506 1.544.589 2.113c.037.254.058.47.07.635l.755.378c.426.213.695.648.695 1.124v1.527c0 .561-.372 1.054-.911 1.208l-1.077.308a1.256 1.256 0 0 1-1.602-1.208V8.732c0-.62.45-1.136 1.042-1.238a7.27 7.27 0 0 0-.548-2.136c-.289-.66-.71-1.294-1.325-1.762C8.972 3.134 8.146 2.81 7 2.81s-1.972.325-2.58.787c-.613.468-1.035 1.102-1.324 1.762a7.3 7.3 0 0 0-.548 2.136m9.35 1.058h-.231c-.1 0-.18.08-.18.18v2.279c0 .12.114.205.229.173l1.077-.308a.18.18 0 0 0 .13-.173V9.176a.18.18 0 0 0-.1-.16zm-9.797 0-.925.463a.18.18 0 0 0-.1.16v1.528c0 .08.054.15.131.173l1.077.308a.18.18 0 0 0 .229-.173V8.732c0-.1-.08-.18-.18-.18z" clip-rule="evenodd"/></svg>