<svg xmlns="http://www.w3.org/2000/svg" fill="none" viewBox="0 0 14 14"><g clip-path="url(#a)"><path fill="#000" d="M7 13.202a.6.6 0 0 1-.425-.177L1.16 7.593a3.993 3.993 0 0 1 0-5.628A3.94 3.94 0 0 1 3.968.798c1.061 0 2.059.415 2.808 1.167L7 2.19l.225-.225A3.94 3.94 0 0 1 10.033.798c1.06 0 2.058.415 2.807 1.167v.001a3.993 3.993 0 0 1 0 5.627l-5.415 5.432a.6.6 0 0 1-.425.177M3.967 1.998c-.74 0-1.435.29-1.958.814a2.79 2.79 0 0 0 0 3.934L7 11.752l4.99-5.006a2.79 2.79 0 0 0 0-3.932v-.002a2.75 2.75 0 0 0-1.958-.814c-.739 0-1.434.288-1.957.813l-.65.653a.616.616 0 0 1-.85 0l-.65-.652a2.75 2.75 0 0 0-1.957-.814"/></g><defs><clipPath id="a"><path fill="#fff" d="M0 0h14v14H0z"/></clipPath></defs></svg>