<svg xmlns="http://www.w3.org/2000/svg" viewBox="0 0 14 14"><g clip-path="url(#a)"><path fill-rule="evenodd" d="M.618.099c.341 0 .618.276.618.618v2.396l.988-.988a6.89 6.89 0 0 1 9.754 0 6.89 6.89 0 0 1 0 9.754 6.89 6.89 0 0 1-9.754 0 .618.618 0 1 1 .874-.874 5.657 5.657 0 0 0 8.006 0 5.657 5.657 0 0 0 0-8.006 5.657 5.657 0 0 0-8.006 0L2.085 4.012H4.53a.618.618 0 0 1 0 1.235H.618A.62.62 0 0 1 0 4.63V.717C0 .375.277.099.618.099M7.62 3.394a.618.618 0 1 0-1.236 0v3.295c0 .164.065.321.181.437l2.06 2.06a.618.618 0 0 0 .873-.874L7.62 6.433z" clip-rule="evenodd"/></g><defs><clipPath id="a"><path d="M0 0h14v14H0z"/></clipPath></defs></svg>