<svg xmlns="http://www.w3.org/2000/svg" viewBox="0 0 14 14"><g clip-path="url(#a)"><path fill-rule="evenodd" d="M2 1.2h.532l.069.237c.131.433.34 1.035.654 1.715.55 1.19 1.43 2.644 2.796 3.848-1.365 1.204-2.246 2.658-2.796 3.848a13.4 13.4 0 0 0-.723 1.952H2A.6.6 0 1 0 2 14h10a.6.6 0 1 0 0-1.2h-.532l-.069-.237a13 13 0 0 0-.654-1.715c-.55-1.19-1.43-2.644-2.796-3.848 1.365-1.204 2.246-2.658 2.796-3.848a13.4 13.4 0 0 0 .723-1.952H12A.6.6 0 1 0 12 0H2a.6.6 0 1 0 0 1.2m8.216 0H3.784c.12.381.3.885.56 1.449C4.873 3.792 5.713 5.152 7 6.234 8.288 5.152 9.128 3.792 9.655 2.65c.26-.564.441-1.068.561-1.449M7 7.766c-1.288 1.082-2.128 2.442-2.655 3.585-.26.564-.441 1.068-.561 1.449h6.432c-.12-.381-.3-.885-.56-1.449C9.127 10.208 8.287 8.848 7 7.766" clip-rule="evenodd"/></g><defs><clipPath id="a"><path d="M0 0h14v14H0z"/></clipPath></defs></svg>