<svg xmlns="http://www.w3.org/2000/svg" viewBox="0 0 14 14"><path fill-rule="evenodd" d="M1.4 2.8a.2.2 0 0 0-.2.2v8c0 .11.09.2.2.2h11.2a.2.2 0 0 0 .2-.2V3a.2.2 0 0 0-.2-.2zM0 3a1.4 1.4 0 0 1 1.4-1.4h11.2A1.4 1.4 0 0 1 14 3v8a1.4 1.4 0 0 1-1.4 1.4H1.4A1.4 1.4 0 0 1 0 11zm4.6 1.8a.4.4 0 1 0 0 .8.4.4 0 0 0 0-.8M3 5.2a1.6 1.6 0 1 1 3.2 0 1.6 1.6 0 0 1-3.2 0m-.2 4.2c0-.252.049-.411.107-.515.056-.1.139-.183.268-.254.287-.157.755-.231 1.425-.231s1.138.074 1.425.231c.129.071.212.154.268.254.058.104.107.263.107.515a.6.6 0 0 0 1.2 0c0-.408-.08-.779-.259-1.1a1.84 1.84 0 0 0-.74-.721C6.031 7.266 5.298 7.2 4.6 7.2s-1.43.066-2.001.379c-.3.164-.56.398-.74.722-.179.32-.259.69-.259 1.099a.6.6 0 0 0 1.2 0m5.2-4a.6.6 0 0 1 .6-.6H11A.6.6 0 1 1 11 6H8.6a.6.6 0 0 1-.6-.6m.6 1.8a.6.6 0 1 0 0 1.2h1.6a.6.6 0 1 0 0-1.2z" clip-rule="evenodd"/></svg>