<svg width="14" height="14" viewBox="0 0 14 14" fill="none" xmlns="http://www.w3.org/2000/svg">
<g id="id-card">
<path id="Vector" fill-rule="evenodd" clip-rule="evenodd" d="M1.4 2.79998C1.28954 2.79998 1.2 2.88952 1.2 2.99998V11C1.2 11.1104 1.28954 11.2 1.4 11.2H12.6C12.7105 11.2 12.8 11.1104 12.8 11V2.99998C12.8 2.88952 12.7105 2.79998 12.6 2.79998H1.4ZM0 2.99998C0 2.22678 0.626801 1.59998 1.4 1.59998H12.6C13.3732 1.59998 14 2.22678 14 2.99998V11C14 11.7732 13.3732 12.4 12.6 12.4H1.4C0.626801 12.4 0 11.7732 0 11V2.99998ZM4.6 4.79998C4.37909 4.79998 4.2 4.97906 4.2 5.19998C4.2 5.42089 4.37909 5.59998 4.6 5.59998C4.82091 5.59998 5 5.42089 5 5.19998C5 4.97906 4.82091 4.79998 4.6 4.79998ZM3 5.19998C3 4.31632 3.71634 3.59998 4.6 3.59998C5.48366 3.59998 6.2 4.31632 6.2 5.19998C6.2 6.08363 5.48366 6.79998 4.6 6.79998C3.71634 6.79998 3 6.08363 3 5.19998ZM2.8 9.39998C2.8 9.14813 2.84891 8.98889 2.90668 8.88527C2.96259 8.78499 3.04597 8.70201 3.17526 8.6312C3.46232 8.47395 3.92965 8.39998 4.6 8.39998C5.27035 8.39998 5.73768 8.47395 6.02474 8.6312C6.15403 8.70201 6.23741 8.78499 6.29332 8.88527C6.35109 8.98889 6.4 9.14813 6.4 9.39998C6.4 9.73135 6.66863 9.99998 7 9.99998C7.33137 9.99998 7.6 9.73135 7.6 9.39998C7.6 8.99182 7.51991 8.62106 7.34143 8.30093C7.16109 7.97746 6.90098 7.74294 6.60126 7.57875C6.03032 7.26601 5.29765 7.19998 4.6 7.19998C3.90235 7.19998 3.16968 7.26601 2.59874 7.57875C2.29903 7.74294 2.03891 7.97746 1.85857 8.30093C1.68009 8.62106 1.6 8.99182 1.6 9.39998C1.6 9.73135 1.86863 9.99998 2.2 9.99998C2.53137 9.99998 2.8 9.73135 2.8 9.39998ZM8 5.39998C8 5.0686 8.26863 4.79998 8.6 4.79998H11C11.3314 4.79998 11.6 5.0686 11.6 5.39998C11.6 5.73135 11.3314 5.99998 11 5.99998H8.6C8.26863 5.99998 8 5.73135 8 5.39998ZM8.6 7.19998C8.26863 7.19998 8 7.4686 8 7.79998C8 8.13135 8.26863 8.39998 8.6 8.39998H10.2C10.5314 8.39998 10.8 8.13135 10.8 7.79998C10.8 7.4686 10.5314 7.19998 10.2 7.19998H8.6Z" fill="black"/>
</g>
</svg>
