<svg xmlns="http://www.w3.org/2000/svg" fill="none" viewBox="0 0 14 14"><g clip-path="url(#a)"><path fill="#000" fill-rule="evenodd" d="M3.405 2.838c0-.523.424-.946.946-.946h7.568c.522 0 .946.423.946.946v4.694l-1.715-1.45a.57.57 0 0 0-.799.066l-.807.95L6.55 4.165a.57.57 0 0 0-.83.038L3.405 6.919V2.838m5.402 5.127L6.19 5.402 3.405 8.67v.222c0 .522.424.946.946.946h2.863zm-.103 1.873h3.215c.481 0 .879-.36.938-.826L10.85 7.315zM14 8.76v.132c0 1.15-.932 2.081-2.081 2.081h-.19v.19a2.085 2.085 0 0 1-2.08 2.08H2.08A2.085 2.085 0 0 1 0 11.163V5.107c0-1.146.935-2.081 2.081-2.081h.19v-.19c0-1.148.931-2.08 2.08-2.08h7.568c1.15 0 2.081.932 2.081 2.08V8.76M2.27 8.464V4.162h-.189a.95.95 0 0 0-.946.946v6.054a.95.95 0 0 0 .946.946H9.65a.95.95 0 0 0 .946-.946v-.189H4.35a2.08 2.08 0 0 1-2.08-2.081z" clip-rule="evenodd"/></g><defs><clipPath id="a"><path fill="#fff" d="M0 0h14v14H0z"/></clipPath></defs></svg>