<svg xmlns="http://www.w3.org/2000/svg" fill="none" viewBox="0 0 14 14"><g clip-path="url(#a)"><path fill="#000" fill-rule="evenodd" d="M2.2 2a1 1 0 0 0-1 1v5.543l2.94-3.527a.6.6 0 0 1 .884-.04l3.681 3.68 1.034-1.24a.6.6 0 0 1 .885-.04L12.8 9.55V3a1 1 0 0 0-1-1zM14 11V3A2.2 2.2 0 0 0 11.8.8H2.2A2.2 2.2 0 0 0 0 3v8a2.2 2.2 0 0 0 2.2 2.2h9.6A2.2 2.2 0 0 0 14 11m-1.225.223L10.24 8.69 7.481 12H11.8a1 1 0 0 0 .975-.777M5.919 12l2.015-2.418L4.64 6.29 1.2 10.417V11a1 1 0 0 0 1 1z" clip-rule="evenodd"/></g><defs><clipPath id="a"><path fill="#fff" d="M0 0h14v14H0z"/></clipPath></defs></svg>