<svg xmlns="http://www.w3.org/2000/svg" viewBox="0 0 14 14"><g clip-path="url(#a)"><path fill-rule="evenodd" d="M.103 6.086A.6.6 0 0 0 0 6.42v4.8c0 1.213.986 2.2 2.2 2.2h9.6c1.212 0 2.2-.987 2.2-2.2V6.448a.6.6 0 0 0-.09-.343l-2.952-4.751A1.39 1.39 0 0 0 9.706.579h-5.41c-.535 0-1.014.297-1.226.726zm3.927.935A3.004 3.004 0 0 0 7 9.6 3.01 3.01 0 0 0 9.97 7.02H12.8v4.2c0 .552-.45 1-1 1H2.2c-.551 0-1-.448-1-1v-4.2zm.57-1.2H1.677l2.437-3.932a.2.2 0 0 1 .18-.11h5.409c.077 0 .145.042.205.159L12.32 5.82H9.4a.6.6 0 0 0-.6.6V6.6c0 .993-.808 1.8-1.8 1.8s-1.8-.807-1.8-1.8v-.18a.6.6 0 0 0-.6-.6" clip-rule="evenodd"/></g><defs><clipPath id="a"><path d="M0 0h14v14H0z"/></clipPath></defs></svg>