<svg xmlns="http://www.w3.org/2000/svg" viewBox="0 0 14 14"><path fill-rule="evenodd" d="M1.96.56c0-.31.25-.56.56-.56h8.96a.56.56 0 1 1 0 1.12H7.807q.084.078.162.162c.572.61.914 1.372 1.035 2.161h2.476a.56.56 0 1 1 0 1.12H9.028a4.06 4.06 0 0 1-1.06 2.348c-.736.785-1.822 1.282-3.208 1.282h-.798l5.283 4.834a.56.56 0 1 1-.756.826L2.142 8.046a.56.56 0 0 1 .378-.973h2.24c1.103 0 1.884-.388 2.392-.929.408-.435.66-.992.747-1.581H2.52a.56.56 0 1 1 0-1.12h5.346a2.9 2.9 0 0 0-.714-1.395c-.508-.54-1.29-.928-2.392-.928H2.52a.56.56 0 0 1-.56-.56" clip-rule="evenodd"/></svg>