<svg xmlns="http://www.w3.org/2000/svg" fill="none" viewBox="0 0 14 14"><g clip-path="url(#a)"><path fill="#000" d="M7 3.41A3.585 3.585 0 0 0 3.41 7 3.585 3.585 0 0 0 7 10.59 3.584 3.584 0 0 0 10.59 7 3.585 3.585 0 0 0 7 3.41m0 5.928A2.344 2.344 0 0 1 4.662 7 2.344 2.344 0 0 1 7 4.662 2.344 2.344 0 0 1 9.34 7 2.344 2.344 0 0 1 7 9.338m4.58-6.078a.841.841 0 1 1-1.681 0 .841.841 0 0 1 1.682 0m2.374.85c-.053-1.121-.306-2.12-1.13-2.934C12.001.352 11.011.099 9.89.046c-1.156-.061-4.624-.061-5.78 0C2.989.099 2 .352 1.176 1.176.353 1.999.099 2.989.046 4.11c-.061 1.156-.061 4.624 0 5.78.053 1.121.307 2.12 1.13 2.934.823.824 1.813 1.078 2.934 1.13 1.156.061 4.624.061 5.78 0 1.121-.053 2.12-.306 2.934-1.13.824-.823 1.078-1.813 1.13-2.934.061-1.156.061-4.624 0-5.78m-1.489 7.024a2.37 2.37 0 0 1-1.331 1.331c-.92.368-3.11.28-4.134.28s-3.214.08-4.134-.28a2.37 2.37 0 0 1-1.331-1.331c-.368-.92-.28-3.11-.28-4.134s-.08-3.214.28-4.134a2.37 2.37 0 0 1 1.331-1.331c.92-.368 3.11-.28 4.134-.28s3.214-.08 4.134.28a2.37 2.37 0 0 1 1.331 1.331c.368.92.28 3.11.28 4.134s.088 3.214-.28 4.134"/></g><defs><clipPath id="a"><path fill="#fff" d="M0 0h14v14H0z"/></clipPath></defs></svg>