<svg xmlns="http://www.w3.org/2000/svg" fill="none" viewBox="0 0 14 14"><g clip-path="url(#a)"><path fill="#000" fill-rule="evenodd" d="M5.8 4.6a3.4 3.4 0 1 1 6.8 0 3.4 3.4 0 0 1-6.8 0M9.2 0a4.6 4.6 0 0 0-3.65 7.4l-.006.008L3.18 9.772l-.008.008-1.592 1.591-.004.005-.005.004-.395.396-.8.8a.6.6 0 1 0 .848.848L2 12.65l1.176 1.175a.6.6 0 0 0 .848-.848L2.85 11.8l.751-.751 1.176 1.175a.6.6 0 0 0 .848-.848L4.45 10.2l1.943-1.944.007-.007A4.6 4.6 0 1 0 9.2 0" clip-rule="evenodd"/></g><defs><clipPath id="a"><path fill="#fff" d="M0 0h14v14H0z"/></clipPath></defs></svg>