<svg xmlns="http://www.w3.org/2000/svg" viewBox="0 0 14 14"><g clip-path="url(#a)"><path d="M13.965 12.984 11.54 6.197c-.174-.443-.553-.72-.989-.72s-.815.277-.996.738l-2.418 6.769a.607.607 0 0 0 .369.777.61.61 0 0 0 .777-.368l.503-1.406h3.53l.503 1.406a.608.608 0 1 0 1.146-.41M9.22 10.77l1.33-3.723 1.33 3.723zM7.15 3.634c-1.833 2.895-3.494 4.652-5.506 5.82a.606.606 0 0 1-.831-.22.61.61 0 0 1 .221-.832c1.707-.99 3.102-2.409 4.668-4.767H.609a.609.609 0 0 1 0-1.218h3.043V.812a.609.609 0 0 1 1.218 0v1.605h3.043a.609.609 0 0 1 0 1.218zm.031 5.902a.6.6 0 0 1-.305-.083 16 16 0 0 1-1.52-1.007.61.61 0 0 1 .732-.973c.442.333.914.645 1.4.928a.608.608 0 0 1-.307 1.135"/></g><defs><clipPath id="a"><path d="M0 0h14v14H0z"/></clipPath></defs></svg>