<svg xmlns="http://www.w3.org/2000/svg" viewBox="0 0 14 14"><path fill-rule="evenodd" d="M7 1.105a3.868 3.868 0 0 0-2.246 7.019c.335.239.588.635.588 1.104V10.5c0 .102.083.184.184.184h2.948a.184.184 0 0 0 .184-.184V9.228c0-.469.253-.865.588-1.104A3.868 3.868 0 0 0 7 1.106M2.026 4.974A4.974 4.974 0 1 1 9.89 9.023c-.093.066-.126.149-.126.205V10.5a1.29 1.29 0 0 1-1.29 1.29H5.527a1.29 1.29 0 0 1-1.29-1.29V9.228c0-.056-.032-.139-.125-.205a4.97 4.97 0 0 1-2.085-4.05m2.21 8.473c0-.305.248-.552.553-.552h4.422a.553.553 0 0 1 0 1.105H4.789a.553.553 0 0 1-.552-.553" clip-rule="evenodd"/></svg>