<svg xmlns="http://www.w3.org/2000/svg" fill="none" viewBox="0 0 14 14"><g fill="#000" clip-path="url(#a)"><path d="M5.203 10.838a3.16 3.16 0 0 0 2.264.927c.917 0 1.822-.381 2.483-1.045l3.01-3.028c1.339-1.348 1.392-3.485.119-4.767-.668-.67-1.61-.997-2.582-.912a.6.6 0 0 0 .113 1.196 1.98 1.98 0 0 1 1.618.563c.809.814.756 2.192-.119 3.072L9.1 9.873c-.834.838-2.274.895-3.046.12-.809-.816-.756-2.194.119-3.074l1.003-1.01a.6.6 0 0 0-.851-.846L5.32 6.072c-1.338 1.347-1.392 3.484-.118 4.766"/><path d="M.921 11.073a3.18 3.18 0 0 0 2.581.911.6.6 0 0 0-.113-1.195 1.98 1.98 0 0 1-1.617-.564c-.81-.814-.757-2.192.118-3.072L4.9 4.124c.834-.84 2.273-.895 3.046-.12.81.816.756 2.194-.119 3.075l-1.003 1.01a.6.6 0 0 0 .851.845l1.003-1.009c1.338-1.347 1.392-3.484.118-4.766a3.16 3.16 0 0 0-2.264-.927c-.917 0-1.821.382-2.482 1.046l-3.01 3.03C-.3 7.654-.352 9.791.92 11.072"/></g><defs><clipPath id="a"><path fill="#fff" d="M0 0h14v14H0z"/></clipPath></defs></svg>