<svg xmlns="http://www.w3.org/2000/svg" fill="none" viewBox="0 0 14 14"><g clip-path="url(#a)"><path fill="#000" d="M12.88 0H1.196C.557 0 0 .46 0 1.09V12.8c0 .635.557 1.2 1.196 1.2h11.68C13.52 14 14 13.431 14 12.8V1.09C14.003.46 13.518 0 12.88 0M4.34 11.67H2.333V5.434h2.005zm-.934-7.184H3.39c-.642 0-1.057-.478-1.057-1.076 0-.61.427-1.076 1.083-1.076s1.058.463 1.072 1.076c0 .598-.416 1.076-1.083 1.076m8.263 7.184H9.663V8.26c0-.817-.292-1.375-1.017-1.375-.555 0-.883.376-1.028.74-.055.132-.07.31-.07.493v3.552H5.544V5.434H7.55v.868c.292-.416.748-1.014 1.808-1.014 1.317 0 2.313.868 2.313 2.738z"/></g><defs><clipPath id="a"><path fill="#fff" d="M0 0h14v14H0z"/></clipPath></defs></svg>