<svg xmlns="http://www.w3.org/2000/svg" viewBox="0 0 14 14"><path fill-rule="evenodd" d="M3.424 3.024a.6.6 0 1 0-.848-.848L1.4 3.35l-.376-.375a.6.6 0 1 0-.848.848l.8.8a.6.6 0 0 0 .848 0zM5.4 3.2a.6.6 0 0 0 0 1.2h8a.6.6 0 1 0 0-1.2zm0 3.2a.6.6 0 0 0 0 1.2h8a.6.6 0 1 0 0-1.2zm8 4.8H5.5a.6.6 0 1 1 0-1.2h7.9a.6.6 0 1 1 0 1.2M3.424 5.376a.6.6 0 0 1 0 .848l-1.6 1.6a.6.6 0 0 1-.848 0l-.8-.8a.6.6 0 1 1 .848-.848l.376.375 1.176-1.175a.6.6 0 0 1 .848 0m0 4.848a.6.6 0 0 0-.848-.848L1.4 10.552l-.376-.376a.6.6 0 0 0-.848.848l.8.8a.6.6 0 0 0 .848 0z" clip-rule="evenodd"/></svg>