<svg width="14" height="14" viewBox="0 0 14 14" fill="none" xmlns="http://www.w3.org/2000/svg">
<g id="list">
<path id="Vector" fill-rule="evenodd" clip-rule="evenodd" d="M0.888889 3.88886C1.37981 3.88886 1.77778 3.49089 1.77778 2.99997C1.77778 2.50905 1.37981 2.11108 0.888889 2.11108C0.397969 2.11108 0 2.50905 0 2.99997C0 3.49089 0.397969 3.88886 0.888889 3.88886ZM3.55556 2.33331C3.18737 2.33331 2.88889 2.63178 2.88889 2.99997C2.88889 3.36816 3.18737 3.66664 3.55556 3.66664H13.3333C13.7015 3.66664 14 3.36816 14 2.99997C14 2.63178 13.7015 2.33331 13.3333 2.33331H3.55556ZM3.55556 6.33331C3.18737 6.33331 2.88889 6.63178 2.88889 6.99997C2.88889 7.36816 3.18737 7.66664 3.55556 7.66664H13.3333C13.7015 7.66664 14 7.36816 14 6.99997C14 6.63178 13.7015 6.33331 13.3333 6.33331H3.55556ZM2.88889 11C2.88889 10.6318 3.18737 10.3333 3.55556 10.3333H13.3333C13.7015 10.3333 14 10.6318 14 11C14 11.3682 13.7015 11.6666 13.3333 11.6666H3.55556C3.18737 11.6666 2.88889 11.3682 2.88889 11ZM1.77778 6.99997C1.77778 7.49089 1.37981 7.88886 0.888889 7.88886C0.397969 7.88886 0 7.49089 0 6.99997C0 6.50905 0.397969 6.11108 0.888889 6.11108C1.37981 6.11108 1.77778 6.50905 1.77778 6.99997ZM0.888889 11.8889C1.37981 11.8889 1.77778 11.4909 1.77778 11C1.77778 10.5091 1.37981 10.1111 0.888889 10.1111C0.397969 10.1111 0 10.5091 0 11C0 11.4909 0.397969 11.8889 0.888889 11.8889Z" fill="black"/>
</g>
</svg>
