<svg xmlns="http://www.w3.org/2000/svg" fill="none" viewBox="0 0 14 14"><path fill="#000" fill-rule="evenodd" d="M.889 3.889a.889.889 0 1 0 0-1.778.889.889 0 0 0 0 1.778m2.667-1.556a.667.667 0 1 0 0 1.334h9.777a.667.667 0 1 0 0-1.334zm0 4a.667.667 0 1 0 0 1.334h9.777a.667.667 0 1 0 0-1.334zM2.889 11c0-.368.298-.667.667-.667h9.777a.667.667 0 0 1 0 1.334H3.556A.667.667 0 0 1 2.889 11M1.778 7A.889.889 0 1 1 0 7a.889.889 0 0 1 1.778 0m-.89 4.889a.889.889 0 1 0 0-1.778.889.889 0 0 0 0 1.778" clip-rule="evenodd"/></svg>