<svg xmlns="http://www.w3.org/2000/svg" fill="none" viewBox="0 0 14 14"><g clip-path="url(#a)"><path fill="#000" fill-rule="evenodd" d="M6.687 13.905a.57.57 0 0 0 .626 0c.227-.15 5.552-3.727 5.552-8.075C12.865 2.615 10.234 0 7 0S1.135 2.615 1.135 5.83c0 4.348 5.325 7.926 5.552 8.075M2.27 5.83c0-2.589 2.122-4.695 4.73-4.695s4.73 2.106 4.73 4.695c0 3.186-3.627 6.096-4.73 6.906-1.103-.81-4.73-3.72-4.73-6.906m2.649-.344c0 1.148.933 2.082 2.081 2.082a2.083 2.083 0 0 0 2.081-2.082A2.083 2.083 0 0 0 7 3.406a2.083 2.083 0 0 0-2.081 2.08m1.135 0A.947.947 0 1 1 7 6.432a.947.947 0 0 1-.946-.946" clip-rule="evenodd"/></g><defs><clipPath id="a"><path fill="#fff" d="M0 0h14v14H0z"/></clipPath></defs></svg>