<svg xmlns="http://www.w3.org/2000/svg" fill="none" viewBox="0 0 14 14"><g clip-path="url(#a)"><path fill="#000" d="M13.323.67a1.4 1.4 0 0 0-1.33-.12L9.134 1.774 5.34.149a1.22 1.22 0 0 0-.947 0L.9 1.646A1.51 1.51 0 0 0 0 3.047v9.002c0 .522.253 1.001.677 1.28.398.263.894.306 1.33.12l2.86-1.225 3.793 1.625a1.2 1.2 0 0 0 .947 0l3.493-1.496c.547-.235.9-.784.9-1.401V1.95c0-.523-.254-1.001-.677-1.28m-7.857.84 3.068 1.314v9.665l-3.068-1.315zM1.534 12.345a.2.2 0 0 1-.197-.018.33.33 0 0 1-.137-.28V3.048c0-.134.07-.253.174-.298l2.892-1.24v9.665zM12.8 10.952c0 .133-.07.253-.174.297l-2.892 1.24V2.824l2.732-1.171a.2.2 0 0 1 .197.018.33.33 0 0 1 .137.28z"/></g><defs><clipPath id="a"><path fill="#fff" d="M0 0h14v14H0z"/></clipPath></defs></svg>