<svg width="14" height="14" viewBox="0 0 14 14" fill="none" xmlns="http://www.w3.org/2000/svg">
<g id="mars">
<g clip-path="url(#clip0_295_4715)">
<path id="Vector" fill-rule="evenodd" clip-rule="evenodd" d="M9.88235 0.617647C9.88235 0.27653 10.1589 0 10.5 0H13.3824C13.7235 0 14 0.27653 14 0.617647V3.5C14 3.84112 13.7235 4.11765 13.3824 4.11765C13.0412 4.11765 12.7647 3.84112 12.7647 3.5V2.12153L9.92287 4.99768C10.6707 5.9443 11.1176 7.14098 11.1176 8.44118C11.1176 11.5112 8.62888 14 5.55882 14C2.48877 14 0 11.5112 0 8.44118C0 5.37112 2.48877 2.88235 5.55882 2.88235C6.88311 2.88235 8.09993 3.34603 9.05457 4.11892L11.9038 1.23529H10.5C10.1589 1.23529 9.88235 0.958764 9.88235 0.617647ZM5.55882 4.11765C3.171 4.11765 1.23529 6.05336 1.23529 8.44118C1.23529 10.829 3.171 12.7647 5.55882 12.7647C7.94664 12.7647 9.88235 10.829 9.88235 8.44118C9.88235 7.25863 9.40841 6.188 8.63869 5.40682C7.85386 4.6103 6.76444 4.11765 5.55882 4.11765Z" fill="black"/>
</g>
</g>
<defs>
<clipPath id="clip0_295_4715">
<rect width="14" height="14" fill="white"/>
</clipPath>
</defs>
</svg>
