<svg xmlns="http://www.w3.org/2000/svg" viewBox="0 0 14 14"><g clip-path="url(#a)"><path d="M12.399.382h-1.173c-.883 0-1.601.719-1.601 1.602v.393L1.313 4.164V3.72a.656.656 0 0 0-1.313 0v6.125a.656.656 0 0 0 1.313 0v-.555l8.312 1.787v.393c0 .883.718 1.602 1.601 1.602H12.4c.883 0 1.601-.719 1.601-1.601V1.985C14 1.1 13.282.382 12.399.382M1.313 7.947v-2.44L9.625 3.72v6.012zm11.375 3.522a.29.29 0 0 1-.29.288h-1.172a.29.29 0 0 1-.289-.288V1.983c0-.16.13-.289.29-.289h1.172c.159 0 .289.13.289.289zm-4.843.455a2.43 2.43 0 0 1-2.335 1.694c-1.35 0-2.447-1.082-2.447-2.411q0-.15.019-.294a.656.656 0 0 1 1.303.16q-.01.066-.01.134c0 .605.51 1.098 1.135 1.098.501 0 .937-.311 1.084-.776a.656.656 0 0 1 1.251.395"/></g><defs><clipPath id="a"><path d="M0 0h14v14H0z"/></clipPath></defs></svg>