<svg xmlns="http://www.w3.org/2000/svg" fill="none" viewBox="0 0 14 14"><path fill="#000" fill-rule="evenodd" d="M7.242 1.15c.498 0 .897.43.897.96v5.669c0 .529-.406.959-.897.959h-.476c-.499 0-.898-.43-.898-.96V2.11c0-.53.407-.96.898-.96zm0-1.15h-.476C5.63 0 4.718.944 4.718 2.11v5.669c0 1.166.92 2.11 2.048 2.11h.476c1.135 0 2.048-.944 2.048-2.11v-5.67C9.29.945 8.37 0 7.242 0M3.16 4.135c.318 0 .576.258.576.575v3.245a2.89 2.89 0 0 0 2.892 2.885h.744c1.6 0 2.892-1.293 2.892-2.885V4.71a.575.575 0 0 1 1.15 0v3.245a4.037 4.037 0 0 1-3.835 4.03v1.44a.575.575 0 0 1-1.15 0v-1.44a4.04 4.04 0 0 1-3.844-4.03V4.71c0-.317.258-.575.575-.575" clip-rule="evenodd"/></svg>