<svg xmlns="http://www.w3.org/2000/svg" viewBox="0 0 14 14"><g clip-path="url(#a)"><path fill-rule="evenodd" d="M3.8 0a.6.6 0 0 1 .6.6v1h2v-1a.6.6 0 0 1 1.2 0v1h2v-1a.6.6 0 0 1 1.2 0v1h.2A1.4 1.4 0 0 1 12.4 3v.2h1a.6.6 0 1 1 0 1.2h-1v2h1a.6.6 0 1 1 0 1.2h-1v2h1a.6.6 0 1 1 0 1.2h-1v.2a1.4 1.4 0 0 1-1.4 1.4h-.2v1a.6.6 0 1 1-1.2 0v-1h-2v1a.6.6 0 1 1-1.2 0v-1h-2v1a.6.6 0 1 1-1.2 0v-1H3A1.4 1.4 0 0 1 1.6 11v-.2h-1a.6.6 0 1 1 0-1.2h1v-2h-1a.6.6 0 0 1 0-1.2h1v-2h-1a.6.6 0 0 1 0-1.2h1V3A1.4 1.4 0 0 1 3 1.6h.2v-1a.6.6 0 0 1 .6-.6M3 2.8a.2.2 0 0 0-.2.2v8c0 .11.09.2.2.2h8a.2.2 0 0 0 .2-.2V3a.2.2 0 0 0-.2-.2z" clip-rule="evenodd"/></g><defs><clipPath id="a"><path d="M0 0h14v14H0z"/></clipPath></defs></svg>