<svg xmlns="http://www.w3.org/2000/svg" viewBox="0 0 14 14"><g clip-path="url(#a)"><path fill-rule="evenodd" d="M4.4.6a.6.6 0 0 0-1.2 0v1H3A1.4 1.4 0 0 0 1.6 3v.2h-1a.6.6 0 0 0 0 1.2h1v2h-1a.6.6 0 0 0 0 1.2h1v2h-1a.6.6 0 0 0 0 1.2h1v.2A1.4 1.4 0 0 0 3 12.4h.2v1a.6.6 0 1 0 1.2 0v-1h2v1a.6.6 0 1 0 1.2 0v-1h2v1a.6.6 0 1 0 1.2 0v-1h.2a1.4 1.4 0 0 0 1.4-1.4v-.2h1a.6.6 0 1 0 0-1.2h-1v-2h1a.6.6 0 1 0 0-1.2h-1v-2h1a.6.6 0 1 0 0-1.2h-1V3A1.4 1.4 0 0 0 11 1.6h-.2v-1a.6.6 0 1 0-1.2 0v1h-2v-1a.6.6 0 0 0-1.2 0v1h-2zM2.8 3c0-.11.09-.2.2-.2h8c.11 0 .2.09.2.2v8a.2.2 0 0 1-.2.2H3a.2.2 0 0 1-.2-.2V3m4.039 6.202-.22-.617H4.997l-.22.617a.6.6 0 1 1-1.13-.402l1.36-3.816.003-.008.003-.008c.121-.314.412-.569.795-.569s.674.255.796.57l.003.007.002.008L7.97 8.8a.6.6 0 0 1-1.13.402M5.809 6.31l.382 1.075h-.766zM8.8 5a.6.6 0 0 1 1.2 0v4.002a.6.6 0 1 1-1.2 0z" clip-rule="evenodd"/></g><defs><clipPath id="a"><path d="M0 0h14v14H0z"/></clipPath></defs></svg>