<svg xmlns="http://www.w3.org/2000/svg" fill="none" viewBox="0 0 14 14"><g fill="#000" fill-rule="evenodd" clip-path="url(#a)" clip-rule="evenodd"><path d="M4.2 7c0-1.544 1.256-2.8 2.8-2.8S9.8 5.456 9.8 7 8.542 9.8 7 9.8A2.803 2.803 0 0 1 4.2 7m1.2 0c0 .882.717 1.6 1.6 1.6.882 0 1.6-.718 1.6-1.6S7.881 5.4 7 5.4 5.4 6.117 5.4 7"/><path d="M12.6 1.6c.771 0 1.4.628 1.4 1.4v8c0 .772-.628 1.4-1.4 1.4H1.4C.628 12.4 0 11.772 0 11V3c0-.772.628-1.4 1.4-1.4zm.2 2.737V3c0-.109-.092-.2-.2-.201h-1.354l-.001.003q-.046.16-.046.323c0 .34.133.66.374.9.091.09.196.163.306.221q.028.015.058.025l.036.014a1.2 1.2 0 0 0 .755.079q.02-.006.037-.014zM2.752 2.8H1.4c-.108 0-.2.091-.2.201V4.34q.016.004.032.012l.038.014a1 1 0 0 0 .1.013 1.2 1.2 0 0 0 .395-.009q.13-.025.254-.08l.035-.013q.035-.014.068-.03c.11-.059.214-.13.304-.22.241-.24.374-.56.374-.9q0-.164-.046-.323zM1.2 9.66V11c0 .11.092.2.2.2h1.353l.002-.003q.046-.159.046-.322c0-.34-.133-.66-.374-.901a1.3 1.3 0 0 0-.305-.22 1 1 0 0 0-.064-.028L2.02 9.71a1.3 1.3 0 0 0-.368-.096 1.2 1.2 0 0 0-.282.006l-.034.004q-.034.004-.07.01l-.035.014zM4 10.874q0 .163-.022.325v.004h6.044a2.458 2.458 0 0 1 .703-2.075 2.4 2.4 0 0 1 .534-.396 2.5 2.5 0 0 1 .354-.165q.06-.025.12-.046.205-.064.42-.091.107-.013.214-.014h.032q.121-.004.242.004.036.003.07 0 .045-.001.09.004V5.58q-.054.005-.107.002h-.082q-.031.004-.063.01a.4.4 0 0 1-.074.01q-.04-.001-.077-.008l-.06-.006a2.3 2.3 0 0 1-.576-.103q-.07-.019-.139-.043a2.4 2.4 0 0 1-.35-.165l-.046-.024q-.042-.02-.08-.044a2.46 2.46 0 0 1-1.125-2.41H3.976Q4 2.963 4 3.126A2.46 2.46 0 0 1 2.853 5.21a1 1 0 0 1-.076.041l-.052.027q-.169.096-.348.164-.07.024-.142.044l-.034.01a2.5 2.5 0 0 1-.54.091l-.055.006a1 1 0 0 1-.08.008q-.038-.001-.075-.01-.031-.007-.063-.009H1.31q-.055.003-.112-.003v2.844q.045-.005.09-.003h.07q.122-.008.242-.005l.049.002a2.1 2.1 0 0 1 .619.104q.055.019.109.042l.054.022a2.4 2.4 0 0 1 .45.23c.14.09.273.19.393.31A2.46 2.46 0 0 1 4 10.874m7.246.325H12.6c.11 0 .2-.09.201-.199V9.663l-.03-.012a.2.2 0 0 0-.04-.015q-.03-.006-.061-.009l-.035-.004a1.3 1.3 0 0 0-.394.007 1.2 1.2 0 0 0-.266.083l-.037.015q-.03.01-.058.024c-.11.059-.215.13-.306.221-.24.24-.374.56-.374.9q0 .165.046.323z"/></g><defs><clipPath id="a"><path fill="#fff" d="M0 0h14v14H0z"/></clipPath></defs></svg>