<svg xmlns="http://www.w3.org/2000/svg" fill="none" viewBox="0 0 14 14"><g clip-path="url(#a)"><path fill="#000" d="M7.073 14q-.452 0-.912-.057C3.02 13.551.451 10.983.057 7.84-.403 4.157 1.971.798 5.58.024A.98.98 0 0 1 6.6.416c.24.333.259.778.049 1.133a4.24 4.24 0 0 0 5.803 5.803c.353-.21.799-.192 1.132.049a.985.985 0 0 1 .392 1.02A7.03 7.03 0 0 1 7.073 14M5.396 1.32C2.655 2.128.898 4.788 1.261 7.688c.325 2.603 2.45 4.727 5.052 5.052 2.9.362 5.56-1.394 6.368-4.136a5.4 5.4 0 0 1-3.208.486 5.46 5.46 0 0 1-4.561-4.563 5.4 5.4 0 0 1 .484-3.207"/></g><defs><clipPath id="a"><path fill="#fff" d="M0 0h14v14H0z"/></clipPath></defs></svg>