<svg xmlns="http://www.w3.org/2000/svg" viewBox="0 0 14 14"><g clip-path="url(#a)"><path fill-rule="evenodd" d="M1.4 0A1.4 1.4 0 0 0 0 1.4v4.8a1.4 1.4 0 0 0 1.4 1.4h3.2A1.4 1.4 0 0 0 6 6.2V1.4A1.4 1.4 0 0 0 4.6 0zm-.2 1.4c0-.11.09-.2.2-.2h3.2c.11 0 .2.09.2.2v4.8a.2.2 0 0 1-.2.2H1.4a.2.2 0 0 1-.2-.2zm.2 8.2A1.4 1.4 0 0 0 0 11v1.6A1.4 1.4 0 0 0 1.4 14h3.2A1.4 1.4 0 0 0 6 12.6V11a1.4 1.4 0 0 0-1.4-1.4zM1.2 11c0-.11.09-.2.2-.2h3.2c.11 0 .2.09.2.2v1.6a.2.2 0 0 1-.2.2H1.4a.2.2 0 0 1-.2-.2zM8 7.8a1.4 1.4 0 0 1 1.4-1.4h3.2A1.4 1.4 0 0 1 14 7.8v4.8a1.4 1.4 0 0 1-1.4 1.4H9.4A1.4 1.4 0 0 1 8 12.6zm1.4-.2a.2.2 0 0 0-.2.2v4.8c0 .11.09.2.2.2h3.2a.2.2 0 0 0 .2-.2V7.8a.2.2 0 0 0-.2-.2zm0-7.6A1.4 1.4 0 0 0 8 1.4V3a1.4 1.4 0 0 0 1.4 1.4h3.2A1.4 1.4 0 0 0 14 3V1.4A1.4 1.4 0 0 0 12.6 0zm-.2 1.4c0-.11.09-.2.2-.2h3.2c.11 0 .2.09.2.2V3a.2.2 0 0 1-.2.2H9.4a.2.2 0 0 1-.2-.2z" clip-rule="evenodd"/></g><defs><clipPath id="a"><path d="M0 0h14v14H0z"/></clipPath></defs></svg>