<svg xmlns="http://www.w3.org/2000/svg" fill="none" viewBox="0 0 14 14"><g clip-path="url(#a)"><path fill="#000" d="M7.064 0h-.098C3.542 0 .566 2.524.02 5.906A1.57 1.57 0 0 0 .382 7.18c.298.35.726.548 1.176.548h.05c1.576 0 2.759.385 3.518 1.144.766.768 1.15 1.969 1.141 3.569-.002.448.195.876.544 1.175a1.58 1.58 0 0 0 1.276.365c3.419-.55 5.96-3.579 5.913-7.046C13.946 3.164 10.835.053 7.064.001m.807 12.643a.25.25 0 0 1-.18-.056c-.026-.022-.07-.071-.07-.139.011-1.976-.507-3.5-1.538-4.534-1.022-1.022-2.527-1.54-4.475-1.54h-.051a.2.2 0 0 1-.145-.074.23.23 0 0 1-.056-.179c.442-2.73 2.846-4.766 5.61-4.766h.078c2.993.042 5.557 2.606 5.6 5.599.039 2.8-2.013 5.246-4.773 5.69M5.147 4.31A.909.909 0 1 1 3.33 4.31a.909.909 0 0 1 1.817.001m2.725-1.134a.909.909 0 1 1-1.817-.002.909.909 0 0 1 1.817.002M8.78 4.31a.909.909 0 1 1 1.817.002.909.909 0 0 1-1.817-.002m2.953 2.725a.909.909 0 1 1-1.817-.001.909.909 0 0 1 1.817.001M10.597 9.76a.909.909 0 1 1-1.817-.001.909.909 0 0 1 1.817.001"/></g><defs><clipPath id="a"><path fill="#fff" d="M0 0h14v14H0z"/></clipPath></defs></svg>