<svg xmlns="http://www.w3.org/2000/svg" viewBox="0 0 14 14"><g clip-path="url(#a)"><path d="M4.553 14a4.67 4.67 0 0 1-3.207-1.251C.478 11.929 0 10.839 0 9.675s.478-2.256 1.346-3.076L7.397.888c1.255-1.184 3.296-1.184 4.55 0C12.617 1.518 13 2.375 13 3.24c0 .778-.313 1.502-.88 2.038L6.06 10.99a1.983 1.983 0 0 1-2.687 0 1.796 1.796 0 0 1 0-2.634l5.591-5.27a.6.6 0 1 1 .823.875l-5.59 5.27A.6.6 0 0 0 4 9.673c0 .165.07.322.198.444a.78.78 0 0 0 1.04-.001l6.058-5.711c.416-.393.503-.85.503-1.164 0-.536-.246-1.075-.675-1.48a2.14 2.14 0 0 0-2.903 0l-6.05 5.711a3 3 0 0 0-.97 2.201c0 .83.344 1.612.97 2.2 1.314 1.243 3.452 1.243 4.766 0l6.051-5.71a.6.6 0 1 1 .824.874L7.76 12.748A4.67 4.67 0 0 1 4.553 14"/></g><defs><clipPath id="a"><path d="M0 0h14v14H0z"/></clipPath></defs></svg>