<svg xmlns="http://www.w3.org/2000/svg" viewBox="0 0 14 14"><path d="M4.518 8.23c-.108.592-.536 3.356-.662 4.137-.01.056-.03.077-.092.077H1.47a.374.374 0 0 1-.372-.429L2.901.534a.625.625 0 0 1 .615-.522c4.687 0 5.08-.114 6.278.352 1.848.72 2.018 2.455 1.353 4.332-.661 1.933-2.23 2.763-4.311 2.788-1.336.02-2.14-.217-2.318.746m7.56-4.443c-.055-.04-.077-.056-.092.04a7 7 0 0 1-.27 1.038c-1.228 3.513-4.63 3.207-6.292 3.207-.189 0-.311.102-.336.291-.695 4.334-.834 5.239-.834 5.239-.03.219.108.398.327.398h1.954a.55.55 0 0 0 .535-.46c.022-.167-.034.188.443-2.819.142-.679.44-.608.901-.608 2.185 0 3.89-.889 4.398-3.467.2-1.074.14-2.204-.734-2.859"/></svg>