<svg xmlns="http://www.w3.org/2000/svg" fill="none" viewBox="0 0 14 14"><g clip-path="url(#a)"><path fill="#000" fill-rule="evenodd" d="M11.726 1.344c.083-.083.235-.148.43-.144a.68.68 0 0 1 .459.173.7.7 0 0 1 .184.46c.008.187-.052.33-.133.412l-5.992 6-1.018.093.08-.996zm1.738-.818c-.35-.35-.83-.515-1.28-.526-.451-.01-.946.134-1.308.496L4.731 6.65a.6.6 0 0 0-.174.376l-.155 1.926a.6.6 0 0 0 .653.645l1.944-.177a.6.6 0 0 0 .37-.173l6.146-6.154c.364-.365.501-.858.483-1.308a1.9 1.9 0 0 0-.534-1.26M2.05 1.2C.921 1.2 0 2.122 0 3.25v8.7C0 13.08.921 14 2.05 14h8.7c1.129 0 2.05-.921 2.05-2.05V7.6a.6.6 0 1 0-1.2 0v4.35c0 .466-.384.85-.85.85h-8.7a.854.854 0 0 1-.85-.85v-8.7c0-.466.384-.85.85-.85H6.4a.6.6 0 1 0 0-1.2z" clip-rule="evenodd"/></g><defs><clipPath id="a"><path fill="#fff" d="M0 0h14v14H0z"/></clipPath></defs></svg>