<svg xmlns="http://www.w3.org/2000/svg" fill="none" viewBox="0 0 14 14"><g clip-path="url(#a)"><path fill="#000" fill-rule="evenodd" d="M11.353 1.233c-.401-.01-.756.122-.978.343a1 1 0 0 1-.063.056l-8.848 8.864-.177 2.208 2.241-.202 8.914-8.93c.22-.22.342-.562.326-.949-.015-.387-.167-.755-.408-.997-.235-.235-.605-.384-1.007-.393M9.583.631c.502-.456 1.171-.645 1.799-.63.66.015 1.352.257 1.848.753.488.49.742 1.165.768 1.82.026.658-.176 1.36-.686 1.87L4.24 13.532a.6.6 0 0 1-.38.178l-3.19.287a.614.614 0 0 1-.669-.663l.254-3.163a.62.62 0 0 1 .178-.386L9.505.697A1 1 0 0 1 9.583.63" clip-rule="evenodd"/></g><defs><clipPath id="a"><path fill="#fff" d="M0 0h14v14H0z"/></clipPath></defs></svg>