<svg width="14" height="14" viewBox="0 0 14 14" fill="none" xmlns="http://www.w3.org/2000/svg">
<g id="percentage">
<path id="Vector" fill-rule="evenodd" clip-rule="evenodd" d="M3.5 2.75C3.08579 2.75 2.75 3.08579 2.75 3.5C2.75 3.91421 3.08579 4.25 3.5 4.25C3.91421 4.25 4.25 3.91421 4.25 3.5C4.25 3.08579 3.91421 2.75 3.5 2.75ZM1.25 3.5C1.25 2.25736 2.25736 1.25 3.5 1.25C4.74264 1.25 5.75 2.25736 5.75 3.5C5.75 4.74264 4.74264 5.75 3.5 5.75C2.25736 5.75 1.25 4.74264 1.25 3.5ZM12.4803 1.51972C12.7732 1.81261 12.7732 2.28748 12.4803 2.58038L2.58032 12.4804C2.28743 12.7733 1.81255 12.7733 1.51966 12.4804C1.22676 12.1875 1.22676 11.7126 1.51966 11.4197L11.4197 1.51972C11.7126 1.22683 12.1874 1.22683 12.4803 1.51972ZM9.75 10.5C9.75 10.0858 10.0858 9.75 10.5 9.75C10.9142 9.75 11.25 10.0858 11.25 10.5C11.25 10.9142 10.9142 11.25 10.5 11.25C10.0858 11.25 9.75 10.9142 9.75 10.5ZM10.5 8.25C9.25736 8.25 8.25 9.25736 8.25 10.5C8.25 11.7426 9.25736 12.75 10.5 12.75C11.7426 12.75 12.75 11.7426 12.75 10.5C12.75 9.25736 11.7426 8.25 10.5 8.25Z" fill="black"/>
</g>
</svg>
