<svg xmlns="http://www.w3.org/2000/svg" fill="none" viewBox="0 0 14 14"><g clip-path="url(#a)"><path fill="#000" d="M12.12 14q-.092 0-.182-.009a13.4 13.4 0 0 1-5.821-2.065A13.2 13.2 0 0 1 2.075 7.89 13.34 13.34 0 0 1 .009 2.063 1.88 1.88 0 0 1 1.887 0h1.947c.93 0 1.732.694 1.863 1.62.077.577.217 1.14.419 1.68a1.89 1.89 0 0 1-.426 1.987l-.486.486a9.7 9.7 0 0 0 3.012 3.006l.487-.485a1.9 1.9 0 0 1 1.992-.426 7.7 7.7 0 0 0 1.676.417c.951.133 1.648.95 1.628 1.905v1.92c.002.5-.192.975-.547 1.332A1.87 1.87 0 0 1 12.12 14M3.83 1.2H1.885c-.244.02-.41.106-.526.247a.68.68 0 0 0-.156.5c.199 1.872.85 3.707 1.881 5.295a12 12 0 0 0 3.68 3.674 12.2 12.2 0 0 0 5.298 1.882h.006c.234.001.405-.072.533-.2.129-.13.2-.302.199-.484V10.17a.683.683 0 0 0-.59-.695 9 9 0 0 1-1.934-.482.7.7 0 0 0-.728.153l-.817.813a.6.6 0 0 1-.72.097 10.9 10.9 0 0 1-4.085-4.08.6.6 0 0 1 .097-.72l.817-.817a.68.68 0 0 0 .152-.719 8.8 8.8 0 0 1-.484-1.938.69.69 0 0 0-.68-.582"/></g><defs><clipPath id="a"><path fill="#fff" d="M0 0h14v14H0z"/></clipPath></defs></svg>