<svg xmlns="http://www.w3.org/2000/svg" viewBox="0 0 14 14"><g clip-path="url(#a)"><path d="M14 7a7 7 0 0 1-9.072 6.687c.285-.466.712-1.228.87-1.835.084-.327.434-1.665.434-1.665.229.434.895.804 1.603.804 2.112 0 3.633-1.942 3.633-4.355 0-2.312-1.888-4.042-4.316-4.042-3.02 0-4.626 2.027-4.626 4.237 0 1.027.548 2.306 1.42 2.712.133.062.203.034.234-.093l.195-.793a.21.21 0 0 0-.048-.2c-.285-.353-.517-.997-.517-1.598 0-1.544 1.169-3.037 3.162-3.037 1.719 0 2.924 1.171 2.924 2.848 0 1.894-.957 3.206-2.202 3.206-.686 0-1.202-.567-1.036-1.264.198-.833.58-1.73.58-2.332 0-.536-.289-.985-.887-.985-.703 0-1.268.726-1.268 1.7 0 .62.21 1.038.21 1.038s-.692 2.93-.82 3.478c-.14.604-.084 1.456-.025 2.01A7 7 0 0 1 0 7c0-3.867 3.133-7 7-7s7 3.133 7 7"/></g><defs><clipPath id="a"><path d="M0 0h14v14H0z"/></clipPath></defs></svg>