<svg width="14" height="14" viewBox="0 0 14 14" fill="none" xmlns="http://www.w3.org/2000/svg">
<g id="play-circle">
<g clip-path="url(#clip0_295_4692)">
<path id="Vector" fill-rule="evenodd" clip-rule="evenodd" d="M1.16667 7C1.16667 3.77834 3.77834 1.16667 7 1.16667C10.2217 1.16667 12.8333 3.77834 12.8333 7C12.8333 10.2217 10.2217 12.8333 7 12.8333C3.77834 12.8333 1.16667 10.2217 1.16667 7ZM7 0C3.13401 0 0 3.13401 0 7C0 10.866 3.13401 14 7 14C10.866 14 14 10.866 14 7C14 3.13401 10.866 0 7 0ZM5.44444 9.78895C5.44444 10.4819 6.28222 10.8289 6.77219 10.3389L9.56114 7.54997C9.86488 7.24623 9.86488 6.75377 9.56114 6.45003L6.77219 3.66108C6.28222 3.17111 5.44444 3.51813 5.44444 4.21106V9.78895Z" fill="black"/>
</g>
</g>
<defs>
<clipPath id="clip0_295_4692">
<rect width="14" height="14" fill="white"/>
</clipPath>
</defs>
</svg>
