<svg width="14" height="14" viewBox="0 0 14 14" fill="none" xmlns="http://www.w3.org/2000/svg">
<g id="plus-circle">
<g clip-path="url(#clip0_156_4548)">
<path id="Vector" fill-rule="evenodd" clip-rule="evenodd" d="M7 1.16667C3.77834 1.16667 1.16667 3.77834 1.16667 7C1.16667 10.2217 3.77834 12.8333 7 12.8333C10.2217 12.8333 12.8333 10.2217 12.8333 7C12.8333 3.77834 10.2217 1.16667 7 1.16667ZM0 7C0 3.13401 3.13401 0 7 0C10.866 0 14 3.13401 14 7C14 10.866 10.866 14 7 14C3.13401 14 0 10.866 0 7ZM7 3.30556C7.32217 3.30556 7.58333 3.56672 7.58333 3.88889V6.41667H10.1111C10.4333 6.41667 10.6944 6.67783 10.6944 7C10.6944 7.32217 10.4333 7.58333 10.1111 7.58333H7.58333V10.1111C7.58333 10.4333 7.32217 10.6944 7 10.6944C6.67783 10.6944 6.41667 10.4333 6.41667 10.1111V7.58333H3.88889C3.56672 7.58333 3.30556 7.32217 3.30556 7C3.30556 6.67783 3.56672 6.41667 3.88889 6.41667H6.41667V3.88889C6.41667 3.56672 6.67783 3.30556 7 3.30556Z" fill="black"/>
</g>
</g>
<defs>
<clipPath id="clip0_156_4548">
<rect width="14" height="14" fill="white"/>
</clipPath>
</defs>
</svg>
