<svg xmlns="http://www.w3.org/2000/svg" viewBox="0 0 14 14"><g clip-path="url(#a)"><path fill-rule="evenodd" d="M7.583.68a.583.583 0 1 0-1.166 0v6.223a.583.583 0 1 0 1.166 0zM2.877 2.783a.583.583 0 0 0-.823-.828A6.96 6.96 0 0 0 0 6.903c0 1.928.79 3.676 2.052 4.945A6.96 6.96 0 0 0 7 13.903c1.928 0 3.676-.79 4.945-2.052A6.96 6.96 0 0 0 14 6.903c0-1.927-.79-3.684-2.053-4.947a.583.583 0 1 0-.825.825 5.83 5.83 0 0 1 1.711 4.122c0 1.605-.65 3.068-1.71 4.12A5.84 5.84 0 0 1 7 12.736a5.8 5.8 0 0 1-4.12-1.71 5.84 5.84 0 0 1-1.713-4.123c0-1.606.65-3.068 1.71-4.12" clip-rule="evenodd"/></g><defs><clipPath id="a"><path d="M0 0h14v14H0z"/></clipPath></defs></svg>