<svg width="14" height="14" viewBox="0 0 14 14" fill="none" xmlns="http://www.w3.org/2000/svg">
<g id="prime">
<g clip-path="url(#clip0_156_4467)">
<g id="Vector">
<path d="M6.73272 6.09175V0H5.55672L4.70447 2.02213L0.852722 1.70976L1.4941 4.382L6.09135 6.09175H6.73272Z" fill="black"/>
<path d="M3.95283 6.412L2.77682 5.23689L1.60083 4.809V8.44289L4.1672 10.5805V7.26775L4.91533 6.19851L3.95283 6.412Z" fill="black"/>
<path d="M9.93961 6.412L8.97798 6.19851L9.7261 7.26775V10.5805L12.2916 8.44289V4.809L11.1156 5.23689L9.93961 6.412Z" fill="black"/>
<path d="M5.87702 6.51964H8.01552L8.55015 6.19851L9.40503 7.48127V12.2902L8.76365 13.2519L8.01552 14H5.87702L5.12889 13.2519L4.48752 12.2902V7.48127L5.3424 6.19851L5.87702 6.51964Z" fill="black"/>
<path d="M9.72609 12.6105L11.1156 11.2219V9.83237L9.72609 11.0075V12.6105Z" fill="black"/>
<path d="M4.1672 12.6105L2.77682 11.2219V9.83237L4.1672 11.0075V12.6105Z" fill="black"/>
<path d="M8.33658 0L9.18796 2.02213L13.1473 1.71064L12.506 4.382L7.9087 6.09175H7.16058V0H8.33658Z" fill="black"/>
<path d="M11.6502 1.49624L10.1539 0H8.6568L9.40493 1.70976L11.6502 1.49624Z" fill="black"/>
<path d="M3.73936 0H5.2356L4.48748 1.70976L2.24223 1.49624L3.73936 0Z" fill="black"/>
</g>
</g>
</g>
<defs>
<clipPath id="clip0_156_4467">
<rect width="14" height="14" fill="white"/>
</clipPath>
</defs>
</svg>
