<svg xmlns="http://www.w3.org/2000/svg" viewBox="0 0 14 14"><g clip-path="url(#a)"><path d="M6.733 6.092V0H5.557l-.853 2.022L.853 1.71l.641 2.672 4.597 1.71zM3.953 6.412 2.777 5.237 1.6 4.809v3.634l2.566 2.138V7.268l.748-1.07zM9.94 6.412l-.962-.213.748 1.069v3.313l2.566-2.138V4.809l-1.176.428z"/><path d="M5.877 6.52h2.139l.534-.321.855 1.282v4.81l-.641.96-.748.749H5.877l-.748-.748-.641-.962V7.481L5.342 6.2zM9.726 12.61l1.39-1.388v-1.39l-1.39 1.175zM4.167 12.61l-1.39-1.388v-1.39l1.39 1.175zM8.337 0l.851 2.022 3.96-.311-.642 2.671-4.597 1.71H7.16V0z"/><path d="M11.65 1.496 10.154 0H8.657l.748 1.71zM3.74 0h1.496l-.749 1.71-2.245-.214z"/></g><defs><clipPath id="a"><path d="M0 0h14v14H0z"/></clipPath></defs></svg>