<svg xmlns="http://www.w3.org/2000/svg" fill="none" viewBox="0 0 14 14"><g clip-path="url(#a)"><path fill="#000" fill-rule="evenodd" d="M4.4 1.2v2h5.2v-2zm-2.2 2h1V1c0-.547.453-1 1-1h5.6c.547 0 1 .453 1 1v2.2h1c1.211 0 2.2.989 2.2 2.2v3.2c0 1.211-.989 2.2-2.2 2.2h-1V13a1 1 0 0 1-1 1H4.2a1 1 0 0 1-1-1v-2.2h-1C.989 10.8 0 9.811 0 8.6V5.4c0-1.211.989-2.2 2.2-2.2m2.2 7v2.6h5.2V7.6H4.4zm6.4-.6V7.4a1 1 0 0 0-1-1H4.2a1 1 0 0 0-1 1v2.2h-1c-.549 0-1-.451-1-1V5.4c0-.549.451-1 1-1h9.6c.549 0 1 .451 1 1v3.2c0 .549-.451 1-1 1z" clip-rule="evenodd"/></g><defs><clipPath id="a"><path fill="#fff" d="M0 0h14v14H0z"/></clipPath></defs></svg>