<svg xmlns="http://www.w3.org/2000/svg" viewBox="0 0 14 14"><g clip-path="url(#a)"><path fill-rule="evenodd" d="M0 0h6.323v6.323H0V0m1.355 1.355v3.613h3.613V1.355zM7.677 0H14v6.323H7.677V0m1.355 1.355v3.613h3.613V1.355zM.677 7.677H0V14h6.323V7.677H.677m.678 4.968V9.032h3.613v3.613zm7.903-4.968h-1.58v1.581h1.58v1.58h-1.58v1.581h1.58V14h1.58v-1.58h1.581V14H14v-1.58h-1.58v-1.581H14v-1.58h-1.58V7.676h-1.581v1.581h-1.58zm1.58 3.162h1.581v-1.58h-1.58zm0 0h-1.58v1.58h1.58z" clip-rule="evenodd"/></g><defs><clipPath id="a"><path d="M0 0h14v14H0z"/></clipPath></defs></svg>