<svg xmlns="http://www.w3.org/2000/svg" viewBox="0 0 14 14"><g clip-path="url(#a)"><path fill-rule="evenodd" d="M7 1.167a5.833 5.833 0 1 0 0 11.666A5.833 5.833 0 0 0 7 1.167M0 7a7 7 0 1 1 14 0A7 7 0 0 1 0 7m5.21-3.345A2.53 2.53 0 0 1 7 2.917a2.53 2.53 0 0 1 1.79.738 2.53 2.53 0 0 1 .738 1.79 2.53 2.53 0 0 1-.739 1.789 2.53 2.53 0 0 1-1.206.67v.263a.583.583 0 1 1-1.166 0v-.778c0-.322.26-.583.583-.583.377 0 .72-.153.964-.397s.397-.587.397-.965c0-.377-.153-.72-.397-.964A1.36 1.36 0 0 0 7 4.083c-.377 0-.72.153-.964.397a1.36 1.36 0 0 0-.397.964.583.583 0 1 1-1.167 0c0-.696.283-1.333.739-1.789m1.012 6.65c0 .428.35.778.778.778a.78.78 0 0 0 .778-.777A.78.78 0 0 0 7 9.528a.78.78 0 0 0-.778.778" clip-rule="evenodd"/></g><defs><clipPath id="a"><path d="M0 0h14v14H0z"/></clipPath></defs></svg>