<svg width="14" height="14" viewBox="0 0 14 14" fill="none" xmlns="http://www.w3.org/2000/svg">
<g id="question">
<g id="Vector">
<path d="M7.00002 0C8.22882 0 9.38402 0.4784 10.2528 1.3472C11.1208 2.216 11.6 3.3712 11.6 4.6C11.6 5.8288 11.1216 6.984 10.2528 7.8528C9.52723 8.5784 8.60163 9.032 7.60003 9.1616V10.2C7.60003 10.5312 7.33122 10.8 7.00002 10.8C6.66882 10.8 6.40002 10.5312 6.40002 10.2V8.6C6.40002 8.2688 6.66882 8 7.00002 8C7.90802 8 8.76162 7.6456 9.40402 7.004C10.0464 6.3624 10.4 5.508 10.4 4.6C10.4 3.692 10.0456 2.8384 9.40402 2.196C8.76242 1.5536 7.90802 1.2 7.00002 1.2C6.09202 1.2 5.23843 1.5544 4.59603 2.196C3.95363 2.8376 3.60002 3.692 3.60002 4.6C3.60002 4.9312 3.33122 5.2 3.00002 5.2C2.66882 5.2 2.40002 4.9312 2.40002 4.6C2.40002 3.3712 2.87842 2.216 3.74722 1.3472C4.61602 0.4784 5.77122 0 7.00002 0Z" fill="black"/>
<path d="M8.00003 13C8.00003 13.5523 7.55231 14 7.00002 14C6.44774 14 6.00002 13.5523 6.00002 13C6.00002 12.4477 6.44774 12 7.00002 12C7.55231 12 8.00003 12.4477 8.00003 13Z" fill="black"/>
</g>
</g>
</svg>
