<svg xmlns="http://www.w3.org/2000/svg" fill="none" viewBox="0 0 14 14"><g clip-path="url(#a)"><path fill="#000" fill-rule="evenodd" d="m4.268 2.547 1.124-1.125 1.125 1.125c.267.266.7.266.966 0l1.125-1.125 1.124 1.125c.267.266.7.266.966 0l.522-.522v9.95l-.522-.522a.683.683 0 0 0-.966 0l-1.124 1.125-1.125-1.125a.683.683 0 0 0-.966 0l-1.125 1.125-1.124-1.125a.683.683 0 0 0-.966 0l-.522.522v-9.95l.522.522c.266.266.7.266.966 0M5.876.2a.683.683 0 0 0-.967 0L3.785 1.325 2.74.28a.683.683 0 0 0-1.167.484v12.472c0 .61.736.914 1.167.483l1.044-1.044L4.909 13.8c.267.267.7.267.966 0L7 12.675 8.124 13.8c.267.267.7.267.967 0l1.124-1.125 1.044 1.044a.683.683 0 0 0 1.167-.483V.764A.683.683 0 0 0 11.259.28l-1.044 1.045L9.091.2a.683.683 0 0 0-.967 0L7 1.325zm-.484 3.786a.603.603 0 0 0 0 1.205h3.216a.603.603 0 1 0 0-1.205zM4.79 7c0-.333.27-.603.602-.603h3.216a.603.603 0 1 1 0 1.206H5.392A.603.603 0 0 1 4.79 7m.602 1.809a.603.603 0 0 0 0 1.205h3.216a.603.603 0 1 0 0-1.205z" clip-rule="evenodd"/></g><defs><clipPath id="a"><path fill="#fff" d="M0 0h14v14H0z"/></clipPath></defs></svg>