<svg xmlns="http://www.w3.org/2000/svg" fill="none" viewBox="0 0 14 14"><g clip-path="url(#a)"><path fill="#000" d="M5.462 8.397A.7.7 0 1 1 5.455 7a.7.7 0 0 1 .007 1.398M14 7a7 7 0 0 1-7 7 7 7 0 0 1-7-7 7 7 0 0 1 7-7 7 7 0 0 1 7 7m-3.734-1.163c-.265 0-.5.11-.672.283-.632-.438-1.484-.72-2.43-.751l.491-2.21 1.564.352c0 .385.313.695.695.695.39 0 .702-.32.702-.703a.704.704 0 0 0-.702-.702.71.71 0 0 0-.624.39l-1.727-.385c-.085-.023-.173.04-.195.124l-.54 2.439c-.937.04-1.78.32-2.413.757a.94.94 0 0 0-.68-.288c-.985 0-1.307 1.324-.406 1.773q-.048.212-.049.437c0 1.485 1.672 2.687 3.726 2.687 2.063 0 3.735-1.202 3.735-2.687 0-.15-.017-.304-.054-.446.883-.452.559-1.765-.42-1.765m-1.945 3.28c-.513.514-2.148.505-2.641 0a.17.17 0 0 0-.235 0c-.07.071-.07.18 0 .243.643.643 2.464.643 3.11 0 .072-.062.072-.172 0-.242a.17.17 0 0 0-.234 0M8.538 7a.7.7 0 0 0-.695.703A.7.7 0 1 0 8.539 7"/></g><defs><clipPath id="a"><path fill="#fff" d="M0 0h14v14H0z"/></clipPath></defs></svg>