<svg width="14" height="14" viewBox="0 0 14 14" fill="none" xmlns="http://www.w3.org/2000/svg">
<g id="refresh">
<path id="Vector" fill-rule="evenodd" clip-rule="evenodd" d="M7.42426 0.175736C7.18995 -0.0585786 6.81005 -0.0585786 6.57573 0.175736C6.34142 0.410051 6.34142 0.789949 6.57573 1.02426L7.95147 2.4H7C3.79663 2.4 1.2 4.99663 1.2 8.2C1.2 11.4034 3.79663 14 7 14C10.2034 14 12.8 11.4034 12.8 8.2C12.8 7.86863 12.5314 7.6 12.2 7.6C11.8686 7.6 11.6 7.86863 11.6 8.2C11.6 10.7406 9.54063 12.8 7 12.8C4.45937 12.8 2.4 10.7406 2.4 8.2C2.4 5.65937 4.45937 3.6 7 3.6H7.95147L6.57573 4.97574C6.34142 5.21005 6.34142 5.58995 6.57573 5.82426C6.81005 6.05858 7.18995 6.05858 7.42426 5.82426L9.82426 3.42426C10.0586 3.18995 10.0586 2.81005 9.82426 2.57574L7.42426 0.175736Z" fill="black"/>
</g>
</svg>
