<svg width="14" height="14" viewBox="0 0 14 14" fill="none" xmlns="http://www.w3.org/2000/svg">
<g id="replay">
<path id="Vector" fill-rule="evenodd" clip-rule="evenodd" d="M7.42426 1.02426C7.65858 0.789949 7.65858 0.410051 7.42426 0.175736C7.18995 -0.0585786 6.81005 -0.0585786 6.57573 0.175736L4.17573 2.57574C3.94142 2.81005 3.94142 3.18995 4.17573 3.42426L6.57573 5.82426C6.81005 6.05858 7.18995 6.05858 7.42426 5.82426C7.65858 5.58995 7.65858 5.21005 7.42426 4.97574L6.04853 3.6H7C9.54063 3.6 11.6 5.65937 11.6 8.2C11.6 10.7406 9.54063 12.8 7 12.8C4.45937 12.8 2.4 10.7406 2.4 8.2C2.4 7.86863 2.13137 7.6 1.8 7.6C1.46863 7.6 1.2 7.86863 1.2 8.2C1.2 11.4034 3.79663 14 7 14C10.2034 14 12.8 11.4034 12.8 8.2C12.8 4.99663 10.2034 2.4 7 2.4H6.04853L7.42426 1.02426Z" fill="black"/>
</g>
</svg>
