<svg width="14" height="14" viewBox="0 0 14 14" fill="none" xmlns="http://www.w3.org/2000/svg">
<g id="reply">
<g clip-path="url(#clip0_154_2609)">
<path id="Vector" fill-rule="evenodd" clip-rule="evenodd" d="M9.78061 1.10007C9.51517 0.836416 9.08626 0.837868 8.82261 1.10331C8.55896 1.36875 8.56041 1.79767 8.82585 2.06132L11.6792 4.89545H0.677417C0.30329 4.89545 0 5.19874 0 5.57286V12.4193C0 12.7934 0.30329 13.0967 0.677417 13.0967C1.05154 13.0967 1.35483 12.7934 1.35483 12.4193V6.25028H11.6794L8.82585 9.08458C8.56041 9.34823 8.55896 9.77714 8.82261 10.0426C9.08626 10.308 9.51518 10.3095 9.78062 10.0458L13.8 6.05354C13.8341 6.01961 13.8643 5.98242 13.8902 5.94269C13.9613 5.83352 14 5.70522 14 5.57292C14 5.55007 13.9988 5.52734 13.9966 5.50481C13.9805 5.34371 13.908 5.19924 13.7991 5.09144L9.78061 1.10007Z" fill="black"/>
</g>
</g>
<defs>
<clipPath id="clip0_154_2609">
<rect width="14" height="14" fill="white"/>
</clipPath>
</defs>
</svg>
