<svg xmlns="http://www.w3.org/2000/svg" viewBox="0 0 14 14"><g clip-path="url(#a)"><path fill-rule="evenodd" d="M.8 2.2C.8.989 1.789 0 3 0h6a.6.6 0 0 1 .424.176l3.6 3.6a.6.6 0 0 1 .176.424v7.6c0 1.211-.989 2.2-2.2 2.2H3c-1.211 0-2.2-.989-2.2-2.2zm2.2-1c-.549 0-1 .451-1 1v9.6c0 .549.451 1 1 1h.2V8.2c0-.547.453-1 1-1h5.6c.563 0 1 .46 1 1v4.6h.2c.549 0 1-.451 1-1V4.449L8.751 1.2H8.4v2.16c0 .55-.44 1.04-1.024 1.04h-3.16c-.585 0-1.024-.49-1.024-1.04V1.2zm1.392 0v2H7.2v-2zM9.6 12.8H4.4V8.4h5.2z" clip-rule="evenodd"/></g><defs><clipPath id="a"><path d="M0 0h14v14H0z"/></clipPath></defs></svg>