<svg width="14" height="14" viewBox="0 0 14 14" fill="none" xmlns="http://www.w3.org/2000/svg">
<g id="save">
<g clip-path="url(#clip0_156_4624)">
<path id="Vector" fill-rule="evenodd" clip-rule="evenodd" d="M0.8 2.2C0.8 0.988629 1.78863 0 3 0H9C9.15913 0 9.31174 0.0632141 9.42426 0.175736L13.0243 3.77574C13.1368 3.88826 13.2 4.04087 13.2 4.2V11.8C13.2 13.0114 12.2114 14 11 14H3C1.78863 14 0.8 13.0114 0.8 11.8V2.2ZM3 1.2C2.45137 1.2 2 1.65137 2 2.2V11.8C2 12.3486 2.45137 12.8 3 12.8H3.2V8.2C3.2 7.65263 3.65263 7.2 4.2 7.2H9.8C10.3631 7.2 10.8 7.66046 10.8 8.2V12.8H11C11.5486 12.8 12 12.3486 12 11.8V4.44853L8.75147 1.2H8.39999V3.36001C8.39999 3.90958 7.96076 4.4 7.37599 4.4H4.21599C3.63123 4.4 3.19199 3.90958 3.19199 3.36001V1.2H3ZM4.39199 1.2V3.2H7.19999V1.2H4.39199ZM9.6 12.8H4.4V8.4H9.6V12.8Z" fill="black"/>
</g>
</g>
<defs>
<clipPath id="clip0_156_4624">
<rect width="14" height="14" fill="white"/>
</clipPath>
</defs>
</svg>
