<svg width="14" height="14" viewBox="0 0 14 14" fill="none" xmlns="http://www.w3.org/2000/svg">
<g id="search">
<g clip-path="url(#clip0_156_4626)">
<path id="Vector" fill-rule="evenodd" clip-rule="evenodd" d="M1.2 6.016C1.2 3.3562 3.35619 1.2 6.01599 1.2C8.6758 1.2 10.832 3.3562 10.832 6.016C10.832 8.6758 8.6758 10.832 6.01599 10.832C3.35619 10.832 1.2 8.67581 1.2 6.016ZM6.01599 0C2.69345 0 0 2.69346 0 6.016C0 9.33855 2.69345 12.032 6.01599 12.032C7.46117 12.032 8.78734 11.5224 9.82461 10.6731L12.9757 13.8243C13.2101 14.0586 13.59 14.0586 13.8243 13.8243C14.0586 13.5899 14.0586 13.21 13.8243 12.9757L10.6731 9.82461C11.5224 8.78735 12.032 7.46118 12.032 6.016C12.032 2.69345 9.33854 0 6.01599 0Z" fill="black"/>
</g>
</g>
<defs>
<clipPath id="clip0_156_4626">
<rect width="14" height="14" fill="white"/>
</clipPath>
</defs>
</svg>
