<svg width="14" height="14" viewBox="0 0 14 14" fill="none" xmlns="http://www.w3.org/2000/svg">
<g id="search-minus">
<g clip-path="url(#clip0_156_4625)">
<path id="Vector" fill-rule="evenodd" clip-rule="evenodd" d="M6.01601 1.19999C3.35623 1.19999 1.20004 3.35619 1.20004 6.01597C1.20004 8.67575 3.35622 10.8319 6.01601 10.8319C8.6758 10.8319 10.832 8.67575 10.832 6.01597C10.832 3.35619 8.67579 1.19999 6.01601 1.19999ZM4.95911e-05 6.01597C4.95911e-05 2.69345 2.69349 0 6.01601 0C9.33854 0 12.032 2.69346 12.032 6.01597C12.032 7.46117 11.5224 8.78734 10.6731 9.82459L13.8242 12.9757C14.0585 13.2101 14.0585 13.59 13.8242 13.8243C13.5899 14.0586 13.21 14.0586 12.9757 13.8243L9.82454 10.6731C8.78729 11.5223 7.46116 12.0319 6.01601 12.0319C2.69349 12.0319 4.95911e-05 9.3385 4.95911e-05 6.01597ZM4.00002 5.39996C3.66865 5.39996 3.40003 5.66859 3.40003 5.99996C3.40003 6.33133 3.66865 6.59995 4.00002 6.59995H7.99999C8.33136 6.59995 8.59999 6.33133 8.59999 5.99996C8.59999 5.66859 8.33136 5.39996 7.99999 5.39996H4.00002Z" fill="black"/>
</g>
</g>
<defs>
<clipPath id="clip0_156_4625">
<rect width="14" height="14" fill="white"/>
</clipPath>
</defs>
</svg>
