<svg width="14" height="14" viewBox="0 0 14 14" fill="none" xmlns="http://www.w3.org/2000/svg">
<g id="search-plus">
<g clip-path="url(#clip0_156_4643)">
<path id="Vector" fill-rule="evenodd" clip-rule="evenodd" d="M1.20004 6.01597C1.20004 3.35619 3.35622 1.19999 6.01601 1.19999C8.67579 1.19999 10.832 3.35619 10.832 6.01597C10.832 8.67575 8.6758 10.8319 6.01601 10.8319C3.35622 10.8319 1.20004 8.67575 1.20004 6.01597ZM6.01601 0C2.69348 0 4.57764e-05 2.69345 4.57764e-05 6.01597C4.57764e-05 9.3385 2.69349 12.0319 6.01601 12.0319C7.46115 12.0319 8.78728 11.5223 9.82453 10.6731L12.9757 13.8243C13.21 14.0586 13.5899 14.0586 13.8242 13.8243C14.0585 13.59 14.0585 13.2101 13.8242 12.9757L10.6731 9.82459C11.5224 8.78734 12.032 7.46117 12.032 6.01597C12.032 2.69346 9.33853 0 6.01601 0ZM6 3.39998C6.33137 3.39998 6.6 3.6686 6.6 3.99997V5.39996H7.99999C8.33136 5.39996 8.59999 5.66859 8.59999 5.99996C8.59999 6.33133 8.33136 6.59995 7.99999 6.59995H6.6V7.99994C6.6 8.33131 6.33137 8.59994 6 8.59994C5.66864 8.59994 5.40001 8.33131 5.40001 7.99994V6.59995H4.00002C3.66865 6.59995 3.40002 6.33133 3.40002 5.99996C3.40002 5.66859 3.66865 5.39996 4.00002 5.39996H5.40001V3.99997C5.40001 3.6686 5.66864 3.39998 6 3.39998Z" fill="black"/>
</g>
</g>
<defs>
<clipPath id="clip0_156_4643">
<rect width="14" height="14" fill="white"/>
</clipPath>
</defs>
</svg>
