<svg xmlns="http://www.w3.org/2000/svg" fill="none" viewBox="0 0 14 14"><g clip-path="url(#a)"><path fill="#000" fill-rule="evenodd" d="M1.2 6.016a4.816 4.816 0 1 1 9.632 0 4.816 4.816 0 0 1-9.632 0M6.016 0a6.016 6.016 0 1 0 3.809 10.673l3.15 3.151a.6.6 0 1 0 .85-.848l-3.152-3.151A6.016 6.016 0 0 0 6.016 0M6 3.4a.6.6 0 0 1 .6.6v1.4H8a.6.6 0 0 1 0 1.2H6.6V8a.6.6 0 0 1-1.2 0V6.6H4a.6.6 0 1 1 0-1.2h1.4V4a.6.6 0 0 1 .6-.6" clip-rule="evenodd"/></g><defs><clipPath id="a"><path fill="#fff" d="M0 0h14v14H0z"/></clipPath></defs></svg>