<svg xmlns="http://www.w3.org/2000/svg" fill="none" viewBox="0 0 14 14"><g clip-path="url(#a)"><path fill="#000" fill-rule="evenodd" d="M0 1.647C0 1.192.369.824.824.824h12.353c.454 0 .823.368.823.823v2.47a.824.824 0 0 1-.823.824c.454 0 .823.369.823.824v2.47a.824.824 0 0 1-.823.824c.454 0 .823.369.823.823v2.471a.824.824 0 0 1-.823.824H.824A.824.824 0 0 1 0 12.353v-2.47c0-.455.369-.824.824-.824A.824.824 0 0 1 0 8.235v-2.47c0-.455.369-.824.824-.824A.824.824 0 0 1 0 4.118zm13.177 0H.824v2.47h12.353zm0 4.118H.824v2.47h12.353zM.824 9.882h12.353v2.471H.824zM2.264 3.5a.618.618 0 1 0 0-1.235.618.618 0 0 0 0 1.235m2.677-.618a.618.618 0 1 1-1.235 0 .618.618 0 0 1 1.235 0M2.265 7.618a.618.618 0 1 0 0-1.236.618.618 0 0 0 0 1.236M4.94 7a.618.618 0 1 1-1.235 0A.618.618 0 0 1 4.94 7m-2.676 4.735a.618.618 0 1 0 0-1.235.618.618 0 0 0 0 1.235m2.676-.617a.618.618 0 1 1-1.235 0 .618.618 0 0 1 1.235 0" clip-rule="evenodd"/></g><defs><clipPath id="a"><path fill="#fff" d="M0 0h14v14H0z"/></clipPath></defs></svg>