<svg width="14" height="14" viewBox="0 0 14 14" fill="none" xmlns="http://www.w3.org/2000/svg">
<g id="share-alt">
<g clip-path="url(#clip0_156_4642)">
<path id="Vector" fill-rule="evenodd" clip-rule="evenodd" d="M11.4 1.2C10.6268 1.2 10 1.8268 10 2.6C10 3.3732 10.6268 4 11.4 4C12.1732 4 12.8 3.3732 12.8 2.6C12.8 1.8268 12.1732 1.2 11.4 1.2ZM8.8 2.6C8.8 1.16406 9.96406 0 11.4 0C12.8359 0 14 1.16406 14 2.6C14 4.03594 12.8359 5.2 11.4 5.2C10.5334 5.2 9.76579 4.77601 9.29335 4.12414L5.08376 6.22894C5.15931 6.47257 5.2 6.73153 5.2 7C5.2 7.26847 5.15931 7.52743 5.08376 7.77106L9.29335 9.87586C9.76579 9.22399 10.5334 8.8 11.4 8.8C12.8359 8.8 14 9.96406 14 11.4C14 12.8359 12.8359 14 11.4 14C9.96406 14 8.8 12.8359 8.8 11.4C8.8 11.2595 8.81115 11.1216 8.8326 10.9871L4.47038 8.80601C3.99758 9.29556 3.33434 9.6 2.6 9.6C1.16406 9.6 0 8.43594 0 7C0 5.56406 1.16406 4.4 2.6 4.4C3.33434 4.4 3.99758 4.70444 4.47038 5.19399L8.8326 3.01288C8.81115 2.87841 8.8 2.74051 8.8 2.6ZM11.4 10C10.6268 10 10 10.6268 10 11.4C10 12.1732 10.6268 12.8 11.4 12.8C12.1732 12.8 12.8 12.1732 12.8 11.4C12.8 10.6268 12.1732 10 11.4 10ZM1.2 7C1.2 6.2268 1.8268 5.6 2.6 5.6C3.3732 5.6 4 6.2268 4 7C4 7.7732 3.3732 8.4 2.6 8.4C1.8268 8.4 1.2 7.7732 1.2 7Z" fill="black"/>
</g>
</g>
<defs>
<clipPath id="clip0_156_4642">
<rect width="14" height="14" fill="white"/>
</clipPath>
</defs>
</svg>
