<svg xmlns="http://www.w3.org/2000/svg" fill="none" viewBox="0 0 14 14"><g clip-path="url(#a)"><path fill="#000" fill-rule="evenodd" d="M11.4 1.2a1.4 1.4 0 1 0 0 2.8 1.4 1.4 0 0 0 0-2.8M8.8 2.6a2.6 2.6 0 1 1 .493 1.524L5.083 6.23a2.6 2.6 0 0 1 0 1.542l4.21 2.105a2.6 2.6 0 1 1-.46 1.111L4.47 8.806a2.6 2.6 0 1 1 0-3.612l4.363-2.181A2.6 2.6 0 0 1 8.8 2.6m2.6 7.4a1.4 1.4 0 1 0 0 2.8 1.4 1.4 0 0 0 0-2.8M1.2 7A1.4 1.4 0 1 1 4 7a1.4 1.4 0 0 1-2.8 0" clip-rule="evenodd"/></g><defs><clipPath id="a"><path fill="#fff" d="M0 0h14v14H0z"/></clipPath></defs></svg>