<svg xmlns="http://www.w3.org/2000/svg" viewBox="0 0 14 14"><g clip-path="url(#a)"><path fill-rule="evenodd" d="M6.753.053a.6.6 0 0 1 .495 0c2.442 1.108 3.53 1.453 6.231 1.94a.6.6 0 0 1 .492.553c.523 8.319-6.236 11.203-6.745 11.41a.6.6 0 0 1-.44.004c-.292-.112-2.097-.881-3.775-2.661C1.32 9.502-.23 6.687.03 2.546a.6.6 0 0 1 .492-.552c2.7-.488 3.797-.84 6.232-1.94M1.205 3.088c-.098 3.505 1.244 5.864 2.68 7.387 1.252 1.33 2.584 2.03 3.112 2.271 1.16-.536 5.978-3.158 5.798-9.658C10.412 2.64 9.222 2.256 7 1.258c-2.215.99-3.41 1.381-5.795 1.83" clip-rule="evenodd"/></g><defs><clipPath id="a"><path d="M0 0h14v14H0z"/></clipPath></defs></svg>