<svg xmlns="http://www.w3.org/2000/svg" fill="none" viewBox="0 0 14 14"><g clip-path="url(#a)"><path fill="#000" fill-rule="evenodd" d="M4.6 3.6a2.401 2.401 0 0 1 4.8 0V4H4.6zM3.4 5.2V7a.6.6 0 0 0 1.2 0V5.2h4.8V7a.6.6 0 0 0 1.2 0V5.2h2.2v6.6c0 .549-.451 1-1 1H2.2c-.549 0-1-.451-1-1V5.2zm0-1.2v-.4a3.601 3.601 0 0 1 7.2 0V4H13c.555 0 1 .445 1 1v6.8c0 1.211-.989 2.2-2.2 2.2H2.2C.989 14 0 13.011 0 11.8V5c0-.555.445-1 1-1z" clip-rule="evenodd"/></g><defs><clipPath id="a"><path fill="#fff" d="M0 0h14v14H0z"/></clipPath></defs></svg>