<svg xmlns="http://www.w3.org/2000/svg" viewBox="0 0 14 14"><g clip-path="url(#a)"><path fill-rule="evenodd" d="M3.352 1.955a.2.2 0 0 0-.157.076L1.258 4.453a.202.202 0 0 0 .157.327h11.17c.17 0 .263-.195.157-.327L10.805 2.03a.2.2 0 0 0-.157-.076zm-1.103-.68c.268-.335.674-.53 1.103-.53h7.296c.429 0 .835.195 1.103.53l1.937 2.421c.74.925.081 2.295-1.103 2.295h-.137v6.659a.605.605 0 0 1-1.21 0V5.991h-1.211v5.045a2.22 2.22 0 0 1-2.22 2.22H3.771a2.22 2.22 0 0 1-2.22-2.22V5.99h-.136c-1.184 0-1.843-1.37-1.103-2.295zm.514 4.716v5.045c0 .557.451 1.009 1.008 1.009h4.036c.557 0 1.01-.452 1.01-1.01V5.992h-1.01v3.632c0 .78-.632 1.413-1.412 1.413H5.184c-.78 0-1.413-.633-1.413-1.413V5.991zm2.22 0v3.632c0 .112.09.202.201.202h1.21c.112 0 .202-.09.202-.202V5.991z" clip-rule="evenodd"/></g><defs><clipPath id="a"><path d="M0 0h14v14H0z"/></clipPath></defs></svg>