<svg xmlns="http://www.w3.org/2000/svg" fill="none" viewBox="0 0 14 14"><g clip-path="url(#a)"><path fill="#000" fill-rule="evenodd" d="M2.2 1.2c-.617 0-1 .435-1 .824v9.952c0 .389.383.824 1 .824h2.4a.6.6 0 1 1 0 1.2H2.2C1.057 14 0 13.155 0 11.976V2.024C0 .844 1.057 0 2.2 0h2.4a.6.6 0 0 1 0 1.2zm7.576 2.176a.6.6 0 0 1 .848 0l3.2 3.2a.6.6 0 0 1 0 .848l-3.2 3.2a.6.6 0 0 1-.848-.848L11.95 7.6H4.6a.6.6 0 0 1 0-1.2h7.352L9.776 4.224a.6.6 0 0 1 0-.848" clip-rule="evenodd"/></g><defs><clipPath id="a"><path fill="#fff" d="M0 0h14v14H0z"/></clipPath></defs></svg>