<svg xmlns="http://www.w3.org/2000/svg" viewBox="0 0 14 14"><g clip-path="url(#a)"><path fill-rule="evenodd" d="M8.8.6a.6.6 0 0 1 .6-.6h2.4c1.143 0 2.2.845 2.2 2.024v9.952C14 13.156 12.944 14 11.8 14H9.4a.6.6 0 1 1 0-1.2h2.4c.616 0 1-.435 1-.824V2.024c0-.389-.384-.824-1-.824H9.4a.6.6 0 0 1-.6-.6M5.776 3.376a.6.6 0 0 1 .848 0l3.2 3.2a.6.6 0 0 1 0 .848l-3.2 3.2a.6.6 0 0 1-.848-.848L7.95 7.6H.6a.6.6 0 0 1 0-1.2h7.351L5.776 4.224a.6.6 0 0 1 0-.848" clip-rule="evenodd"/></g><defs><clipPath id="a"><path d="M0 0h14v14H0z"/></clipPath></defs></svg>