<svg xmlns="http://www.w3.org/2000/svg" fill="none" viewBox="0 0 14 14"><g clip-path="url(#a)"><path fill="#000" d="M2.94 8.846c0 .805-.665 1.47-1.47 1.47S0 9.651 0 8.846s.665-1.47 1.47-1.47h1.47zm.744 0c0-.805.665-1.47 1.47-1.47s1.47.665 1.47 1.47v3.684c0 .805-.665 1.47-1.47 1.47s-1.47-.665-1.47-1.47zm1.47-5.906c-.805 0-1.47-.665-1.47-1.47S4.349 0 5.154 0s1.47.665 1.47 1.47v1.47zm0 .744c.805 0 1.47.665 1.47 1.47s-.665 1.47-1.47 1.47H1.47C.656 6.624 0 5.959 0 5.154s.665-1.47 1.47-1.47zm5.906 1.47c0-.805.665-1.47 1.47-1.47S14 4.349 14 5.154s-.665 1.47-1.47 1.47h-1.47zm-.744 0c0 .805-.665 1.47-1.47 1.47s-1.47-.665-1.47-1.47V1.47c0-.814.665-1.47 1.47-1.47s1.47.665 1.47 1.47zm-1.47 5.906c.805 0 1.47.665 1.47 1.47S9.651 14 8.846 14s-1.47-.665-1.47-1.47v-1.47zm0-.744c-.805 0-1.47-.665-1.47-1.47s.665-1.47 1.47-1.47h3.684c.805 0 1.47.665 1.47 1.47s-.665 1.47-1.47 1.47z"/></g><defs><clipPath id="a"><path fill="#fff" d="M0 0h14v14H0z"/></clipPath></defs></svg>