<svg xmlns="http://www.w3.org/2000/svg" fill="none" viewBox="0 0 14 14"><g clip-path="url(#a)"><path fill="#000" fill-rule="evenodd" d="M11.065 0c.374 0 .677.303.677.677v3.84h.677a.677.677 0 0 1 0 1.354H9.71a.677.677 0 1 1 0-1.355h.677V.677c0-.374.303-.677.678-.677m0 6.323c.374 0 .677.303.677.677v6.323a.677.677 0 0 1-1.355 0V7c0-.374.303-.677.678-.677m-8.13 0c.375 0 .678.303.678.677v6.323a.677.677 0 0 1-1.355 0V7c0-.374.303-.677.677-.677M3.613.677a.677.677 0 1 0-1.355 0v3.84h-.677a.677.677 0 1 0 0 1.354H4.29a.677.677 0 0 0 0-1.355h-.677zm4.064 9.936a.677.677 0 0 0-1.354 0v2.71a.677.677 0 0 0 1.354 0zM7 0c.374 0 .677.303.677.677V8.13h.678a.677.677 0 1 1 0 1.355h-2.71a.677.677 0 0 1 0-1.355h.678V.677C6.323.303 6.626 0 7 0" clip-rule="evenodd"/></g><defs><clipPath id="a"><path fill="#fff" d="M0 0h14v14H0z"/></clipPath></defs></svg>