<svg xmlns="http://www.w3.org/2000/svg" viewBox="0 0 14 14"><g clip-path="url(#a)"><path fill-rule="evenodd" d="M5.871 1.58a.677.677 0 1 0-1.355 0v.678H.677a.677.677 0 1 0 0 1.355h3.84v.677a.677.677 0 1 0 1.354 0V1.581m.452 1.355c0-.374.303-.677.677-.677h6.323a.677.677 0 0 1 0 1.355H7a.677.677 0 0 1-.677-.678m0 8.13c0-.375.303-.678.677-.678h6.323a.677.677 0 0 1 0 1.355H7a.677.677 0 0 1-.677-.678m-5.646-.678a.677.677 0 0 0 0 1.355h3.84v.677a.677.677 0 1 0 1.354 0V9.71a.677.677 0 1 0-1.355 0v.677zm9.936-4.064a.677.677 0 0 0 0 1.354h2.71a.677.677 0 0 0 0-1.354zM0 7c0-.374.303-.677.677-.677H8.13v-.678a.677.677 0 0 1 1.355 0v2.71a.677.677 0 1 1-1.355 0v-.678H.677A.677.677 0 0 1 0 7" clip-rule="evenodd"/></g><defs><clipPath id="a"><path d="M0 0h14v14H0z"/></clipPath></defs></svg>