<svg xmlns="http://www.w3.org/2000/svg" fill="none" viewBox="0 0 14 14"><g clip-path="url(#a)"><path fill="#000" fill-rule="evenodd" d="M3.36.198A.68.68 0 0 1 3.834 0h.009a.68.68 0 0 1 .475.198l2.258 2.258a.677.677 0 1 1-.958.958L4.516 2.313v11.01a.677.677 0 0 1-1.355 0V2.313L2.06 3.414a.677.677 0 0 1-.958-.958zm7.479 5.447V1.98l-.348.194a.677.677 0 1 1-.66-1.184l.591-.33A1.09 1.09 0 0 1 11.594.59c.36.199.6.586.6 1.036v4.02a.677.677 0 0 1-1.355 0m.226 3.387a.677.677 0 1 0 0 1.355.677.677 0 0 0 0-1.355m.467 2.656a1.15 1.15 0 0 1-.937.505h-.434a.677.677 0 0 0 0 1.355h.434c1.304 0 2.417-1.045 2.483-2.355.019-.3.019-.642.019-1.014V9.71a2.032 2.032 0 1 0-1.565 1.978" clip-rule="evenodd"/></g><defs><clipPath id="a"><path fill="#fff" d="M0 0h14v14H0z"/></clipPath></defs></svg>