<svg width="14" height="14" viewBox="0 0 14 14" fill="none" xmlns="http://www.w3.org/2000/svg">
<g id="sort">
<path id="Vector" fill-rule="evenodd" clip-rule="evenodd" d="M7.42426 0.175736C7.18994 -0.0585786 6.81004 -0.0585786 6.57573 0.175736L1.77573 4.97574C1.60413 5.14733 1.5528 5.40541 1.64567 5.62961C1.73853 5.85381 1.95732 6 2.19999 6H11.8C12.0427 6 12.2615 5.85381 12.3543 5.62961C12.4472 5.40541 12.3959 5.14733 12.2243 4.97574L7.42426 0.175736ZM6.99999 1.44853L10.3515 4.8H3.64852L6.99999 1.44853ZM2.19999 8C1.95732 8 1.73853 8.14619 1.64567 8.37039C1.5528 8.59459 1.60413 8.85266 1.77573 9.02426L6.57573 13.8243C6.81004 14.0586 7.18994 14.0586 7.42426 13.8243L12.2243 9.02426C12.3959 8.85266 12.4472 8.59459 12.3543 8.37039C12.2615 8.14619 12.0427 8 11.8 8H2.19999ZM6.99999 12.5515L3.64852 9.2H10.3515L6.99999 12.5515Z" fill="black"/>
</g>
</svg>
