<svg xmlns="http://www.w3.org/2000/svg" viewBox="0 0 14 14"><g clip-path="url(#a)"><path fill-rule="evenodd" d="M2.902.051a.7.7 0 0 0-.22.147L.424 2.456a.677.677 0 1 0 .958.958l1.102-1.101v11.01a.677.677 0 0 0 1.355 0V2.313L4.94 3.414a.677.677 0 0 0 .958-.958L3.64.198A.68.68 0 0 0 3.166 0h-.009a.7.7 0 0 0-.255.051m3.646 5.143c0-.375.304-.678.678-.678h5.87a.677.677 0 0 1 0 1.355h-5.87a.677.677 0 0 1-.678-.677m.678 4.741a.677.677 0 0 0 0 1.355h2.258a.677.677 0 1 0 0-1.355zm-.678 3.388c0-.375.304-.678.678-.678h.451a.677.677 0 0 1 0 1.355h-.451a.677.677 0 0 1-.678-.677m.678-6.097a.677.677 0 1 0 0 1.355h4.064a.677.677 0 0 0 0-1.355z" clip-rule="evenodd"/></g><defs><clipPath id="a"><path d="M0 0h14v14H0z"/></clipPath></defs></svg>