<svg xmlns="http://www.w3.org/2000/svg" fill="none" viewBox="0 0 14 14"><g clip-path="url(#a)"><path fill="#000" fill-rule="evenodd" d="M3.646.051a.675.675 0 0 0-.738.147L.65 2.456a.677.677 0 1 0 .958.958L2.71 2.313v11.01a.677.677 0 0 0 1.354 0V2.313l1.102 1.101a.677.677 0 0 0 .958-.958L3.866.198a.7.7 0 0 0-.22-.147m4.23 10.535a.68.68 0 0 1 .958 0l1.101 1.101V.677a.677.677 0 0 1 1.355 0v11.01l1.102-1.101a.678.678 0 0 1 .958.957l-2.258 2.259a.677.677 0 0 1-.958 0l-2.258-2.258a.677.677 0 0 1 0-.959" clip-rule="evenodd"/></g><defs><clipPath id="a"><path fill="#fff" d="M0 0h14v14H0z"/></clipPath></defs></svg>