<svg xmlns="http://www.w3.org/2000/svg" fill="none" viewBox="0 0 14 14"><g fill="#000" clip-path="url(#a)"><path d="m5.392 10.585-1.101 1.102V.677a.678.678 0 0 0-1.355 0v11.01l-1.102-1.102a.678.678 0 0 0-.959.958l2.258 2.258a.68.68 0 0 0 .74.147.7.7 0 0 0 .22-.147l2.258-2.258a.678.678 0 1 0-.959-.958"/><path fill-rule="evenodd" d="M13.283 12.643 11.739 8.32c-.153-.39-.506-.643-.9-.643s-.746.252-.906.662l-1.538 4.304a.676.676 0 1 0 1.275.455l.25-.7h1.837l.25.7a.677.677 0 1 0 1.276-.455m-2.878-1.601.435-1.215.434 1.215z" clip-rule="evenodd"/><path d="M9.597 6.323c-.416 0-.778-.246-.947-.642a1.12 1.12 0 0 1 .214-1.215l2.554-2.66H9.259a.678.678 0 0 1 0-1.355h2.811c.417 0 .781.247.951.645.179.42.093.9-.217 1.222l-2.543 2.65h2.16a.678.678 0 0 1 0 1.355z"/></g><defs><clipPath id="a"><path fill="#fff" d="M0 0h14v14H0z"/></clipPath></defs></svg>