<svg xmlns="http://www.w3.org/2000/svg" fill="none" viewBox="0 0 14 14"><g fill="#000" clip-path="url(#a)"><path d="m4.941 10.585-1.102 1.102V.677a.678.678 0 0 0-1.355 0v11.01l-1.102-1.102a.678.678 0 0 0-.958.958l2.258 2.258a.68.68 0 0 0 .739.147.7.7 0 0 0 .22-.147L5.9 11.543a.678.678 0 1 0-.958-.958M13.097 8.129h-5.87a.678.678 0 0 0 0 1.355h5.87a.678.678 0 0 0 0-1.355M9.484 4.065H7.226a.678.678 0 0 1 0-1.355h2.258a.678.678 0 0 1 0 1.355M7.226 1.355h.452a.678.678 0 0 0 0-1.355h-.452a.678.678 0 0 0 0 1.355M11.29 6.774H7.227a.678.678 0 0 1 0-1.355h4.065a.678.678 0 0 1 0 1.355"/></g><defs><clipPath id="a"><path fill="#fff" d="M0 0h14v14H0z"/></clipPath></defs></svg>