<svg xmlns="http://www.w3.org/2000/svg" viewBox="0 0 14 14"><g clip-path="url(#a)"><path d="M4.092.198A.68.68 0 0 0 3.354.05a.7.7 0 0 0-.22.147L.875 2.456a.678.678 0 1 0 .959.958l1.102-1.102v11.01a.678.678 0 0 0 1.355 0V2.313l1.102 1.102a.676.676 0 0 0 .957 0 .68.68 0 0 0 0-.958z"/><path fill-rule="evenodd" d="M13.283 12.644 11.738 8.32c-.152-.39-.505-.642-.9-.642-.393 0-.745.252-.905.661l-1.539 4.305a.677.677 0 1 0 1.275.455l.251-.7h1.836l.25.7a.677.677 0 1 0 1.277-.455m-2.878-1.601.435-1.215.434 1.215z" clip-rule="evenodd"/><path d="M9.597 6.323c-.416 0-.778-.246-.947-.641a1.12 1.12 0 0 1 .214-1.216l2.554-2.66h-2.16a.678.678 0 0 1 0-1.355h2.812c.417 0 .781.247.951.645.179.42.093.9-.217 1.222l-2.543 2.65h2.16a.678.678 0 0 1 0 1.355z"/></g><defs><clipPath id="a"><path d="M0 0h14v14H0z"/></clipPath></defs></svg>