<svg xmlns="http://www.w3.org/2000/svg" fill="none" viewBox="0 0 14 14"><g fill="#000" clip-path="url(#a)"><path d="M4.092.198A.68.68 0 0 0 3.354.05a.7.7 0 0 0-.22.147L.874 2.456a.678.678 0 1 0 .958.958l1.102-1.102v11.01a.678.678 0 0 0 1.355 0V2.313l1.102 1.102a.676.676 0 0 0 .958 0 .68.68 0 0 0 0-.958z"/><path fill-rule="evenodd" d="M8.804 6.283a.677.677 0 0 0 .865-.41l.252-.7h1.836l.251.7a.677.677 0 1 0 1.275-.455l-1.545-4.323c-.153-.391-.506-.643-.899-.643s-.746.252-.906.66L8.395 5.419a.677.677 0 0 0 .41.865m2.469-2.467h-.868l.433-1.214z" clip-rule="evenodd"/><path d="M12.069 7.678c.417 0 .78.247.95.645.18.419.095.9-.216 1.221l-2.543 2.65h2.16a.678.678 0 0 1 0 1.355H9.596c-.415 0-.777-.245-.946-.641a1.12 1.12 0 0 1 .213-1.215l2.553-2.66H9.258a.678.678 0 0 1 0-1.355z"/></g><defs><clipPath id="a"><path fill="#fff" d="M0 0h14v14H0z"/></clipPath></defs></svg>