<svg xmlns="http://www.w3.org/2000/svg" viewBox="0 0 14 14"><g clip-path="url(#a)"><path d="m5.618 10.585-1.102 1.102V.677a.678.678 0 0 0-1.354 0v11.01L2.06 10.585a.678.678 0 0 0-.959.958l2.258 2.258a.68.68 0 0 0 .74.147.7.7 0 0 0 .22-.147l2.258-2.258a.678.678 0 1 0-.959-.958M11.528 7.781c-.363-.17-.78-.13-1.104.105l-.59.327a.677.677 0 1 0 .656 1.186l.349-.193v3.665a.678.678 0 0 0 1.355 0V8.856c0-.47-.255-.882-.666-1.075"/><path fill-rule="evenodd" d="M9.033 2.484c0-1.12.91-2.032 2.032-2.032 1.12 0 2.032.911 2.032 2.032v.451c0 .407 0 .742-.015 1.027-.066 1.302-1.182 2.36-2.487 2.36h-.433a.678.678 0 0 1 0-1.354h.433c.371 0 .701-.21.91-.503a2 2 0 0 1-.44.051 2.035 2.035 0 0 1-2.032-2.032m2.032-.678a.678.678 0 1 0 .002 1.357.678.678 0 0 0-.002-1.357" clip-rule="evenodd"/></g><defs><clipPath id="a"><path d="M0 0h14v14H0z"/></clipPath></defs></svg>