<svg width="14" height="14" viewBox="0 0 14 14" fill="none" xmlns="http://www.w3.org/2000/svg">
<g id="sort-amount-down-alt">
<g clip-path="url(#clip0_156_4671)">
<g id="Vector">
<path d="M4.94098 10.5849L3.83904 11.6868V0.677419C3.83904 0.303484 3.53556 0 3.16162 0C2.78769 0 2.4842 0.303484 2.4842 0.677419V11.6868L1.38227 10.5849C1.11762 10.3203 0.688593 10.3203 0.423948 10.5849C0.159303 10.8495 0.159303 11.2786 0.423948 11.5432L2.68201 13.8013C2.74433 13.8636 2.8193 13.9133 2.9024 13.9476C2.9855 13.9819 3.07311 14 3.16162 14C3.25014 14 3.33775 13.9819 3.42085 13.9476C3.50395 13.9133 3.57891 13.8636 3.64124 13.8013L5.8993 11.5432C6.16395 11.2786 6.16395 10.8495 5.8993 10.5849C5.63466 10.3203 5.20562 10.3203 4.94098 10.5849Z" fill="black"/>
<path d="M13.0971 8.12903H7.22613C6.85219 8.12903 6.54871 8.43252 6.54871 8.80645C6.54871 9.18039 6.85219 9.48387 7.22613 9.48387H13.0971C13.471 9.48387 13.7745 9.18039 13.7745 8.80645C13.7745 8.43252 13.471 8.12903 13.0971 8.12903Z" fill="black"/>
<path d="M9.48419 4.06452H7.22613C6.85219 4.06452 6.54871 3.76103 6.54871 3.3871C6.54871 3.01316 6.85219 2.70968 7.22613 2.70968H9.48419C9.85813 2.70968 10.1616 3.01316 10.1616 3.3871C10.1616 3.76103 9.85813 4.06452 9.48419 4.06452Z" fill="black"/>
<path d="M7.22613 1.35484H7.67774C8.05167 1.35484 8.35516 1.05135 8.35516 0.677419C8.35516 0.303484 8.05167 0 7.67774 0H7.22613C6.85219 0 6.54871 0.303484 6.54871 0.677419C6.54871 1.05135 6.85219 1.35484 7.22613 1.35484Z" fill="black"/>
<path d="M11.2906 6.77419H7.22613C6.85219 6.77419 6.54871 6.47071 6.54871 6.09677C6.54871 5.72284 6.85219 5.41935 7.22613 5.41935H11.2906C11.6646 5.41935 11.9681 5.72284 11.9681 6.09677C11.9681 6.47071 11.6646 6.77419 11.2906 6.77419Z" fill="black"/>
</g>
</g>
</g>
<defs>
<clipPath id="clip0_156_4671">
<rect width="14" height="14" fill="white"/>
</clipPath>
</defs>
</svg>
