<svg xmlns="http://www.w3.org/2000/svg" viewBox="0 0 14 14"><g clip-path="url(#a)"><path d="M5.392 10.585 4.29 11.687V.677a.678.678 0 0 0-1.355 0v11.01l-1.102-1.102a.678.678 0 0 0-.958.958l2.258 2.258a.68.68 0 0 0 .738.147.7.7 0 0 0 .22-.147l2.257-2.258a.678.678 0 0 0-.956-.958"/><path fill-rule="evenodd" d="M8.804 6.283a.677.677 0 0 0 .866-.41l.25-.701h1.837l.251.7a.677.677 0 1 0 1.276-.454l-1.546-4.323c-.153-.391-.506-.643-.899-.643s-.746.252-.906.66L8.395 5.419a.677.677 0 0 0 .41.865m2.469-2.467h-.868l.433-1.214z" clip-rule="evenodd"/><path d="M12.069 7.677c.417 0 .78.248.95.645.18.42.095.9-.216 1.221l-2.543 2.65h2.16a.678.678 0 0 1 0 1.355H9.597c-.416 0-.778-.245-.947-.64a1.12 1.12 0 0 1 .213-1.216l2.553-2.66H9.259a.678.678 0 0 1 0-1.355z"/></g><defs><clipPath id="a"><path d="M0 0h14v14H0z"/></clipPath></defs></svg>