<svg xmlns="http://www.w3.org/2000/svg" fill="none" viewBox="0 0 14 14"><g clip-path="url(#a)"><path fill="#000" fill-rule="evenodd" d="M3.387 0a.68.68 0 0 1 .48.198l2.257 2.258a.677.677 0 0 1-.958.958L4.064 2.313v5.139a.677.677 0 1 1-1.354 0v-5.14L1.608 3.415a.677.677 0 0 1-.958-.958L2.908.198A.68.68 0 0 1 3.388 0M2.71 12.248 1.608 13.35a.678.678 0 0 1-.958-.958l9.285-9.285V.677a.677.677 0 0 1 1.355 0v1.075L12.392.65a.678.678 0 0 1 .958.958l-9.285 9.286v2.429a.677.677 0 0 1-1.355 0zm5.166-1.662a.68.68 0 0 1 .958 0l1.101 1.101V6.548a.677.677 0 0 1 1.355 0v5.14l1.102-1.103a.678.678 0 0 1 .958.958l-2.258 2.259a.677.677 0 0 1-.958 0l-2.258-2.258a.677.677 0 0 1 0-.959" clip-rule="evenodd"/></g><defs><clipPath id="a"><path fill="#fff" d="M0 0h14v14H0z"/></clipPath></defs></svg>