<svg xmlns="http://www.w3.org/2000/svg" fill="none" viewBox="0 0 14 14"><g fill="#000" clip-path="url(#a)"><path d="m5.618 10.585-1.102 1.102V.677a.678.678 0 0 0-1.355 0v11.01L2.06 10.585a.678.678 0 0 0-.958.958l2.258 2.258a.68.68 0 0 0 .738.147.7.7 0 0 0 .22-.147l2.257-2.258a.678.678 0 0 0-.956-.958M10.49 2.173l.35-.193v3.665a.678.678 0 0 0 1.354 0V1.63c0-.47-.254-.882-.664-1.074-.364-.17-.78-.13-1.105.105l-.59.327a.678.678 0 0 0 .656 1.185"/><path fill-rule="evenodd" d="M9.032 9.71c0-1.12.912-2.033 2.032-2.033s2.033.912 2.034 2.033v.451c0 .407 0 .742-.016 1.027-.067 1.302-1.182 2.36-2.486 2.36h-.434a.678.678 0 0 1 0-1.354h.434c.37 0 .7-.21.91-.504a2 2 0 0 1-.442.052A2.035 2.035 0 0 1 9.032 9.71m2.032-.678a.68.68 0 0 0-.677.678c0 .373.304.677.677.677a.68.68 0 0 0 .678-.677.68.68 0 0 0-.678-.678" clip-rule="evenodd"/></g><defs><clipPath id="a"><path fill="#fff" d="M0 0h14v14H0z"/></clipPath></defs></svg>