<svg width="14" height="14" viewBox="0 0 14 14" fill="none" xmlns="http://www.w3.org/2000/svg">
<g id="sort-amount-down">
<g clip-path="url(#clip0_156_4681)">
<g id="Vector">
<path d="M4.94098 10.5849L3.83904 11.6868V0.677419C3.83904 0.303484 3.53556 0 3.16162 0C2.78769 0 2.4842 0.303484 2.4842 0.677419V11.6868L1.38227 10.5849C1.11762 10.3203 0.688593 10.3203 0.423948 10.5849C0.159303 10.8495 0.159303 11.2786 0.423948 11.5432L2.68201 13.8013C2.74433 13.8636 2.8193 13.9133 2.9024 13.9476C2.9855 13.9819 3.07311 14 3.16162 14C3.25014 14 3.33775 13.9819 3.42085 13.9476C3.50395 13.9133 3.57891 13.8636 3.64124 13.8013L5.8993 11.5432C6.16395 11.2786 6.16395 10.8495 5.8993 10.5849C5.63466 10.3203 5.20562 10.3203 4.94098 10.5849Z" fill="black"/>
<path d="M13.0971 0H7.22613C6.85219 0 6.54871 0.303484 6.54871 0.677419C6.54871 1.05135 6.85219 1.35484 7.22613 1.35484H13.0971C13.471 1.35484 13.7745 1.05135 13.7745 0.677419C13.7745 0.303484 13.471 0 13.0971 0Z" fill="black"/>
<path d="M7.22613 5.41935H9.48419C9.85813 5.41935 10.1616 5.72284 10.1616 6.09677C10.1616 6.47071 9.85813 6.77419 9.48419 6.77419H7.22613C6.85219 6.77419 6.54871 6.47071 6.54871 6.09677C6.54871 5.72284 6.85219 5.41935 7.22613 5.41935Z" fill="black"/>
<path d="M7.67774 8.12903H7.22613C6.85219 8.12903 6.54871 8.43252 6.54871 8.80645C6.54871 9.18039 6.85219 9.48387 7.22613 9.48387H7.67774C8.05167 9.48387 8.35516 9.18039 8.35516 8.80645C8.35516 8.43252 8.05167 8.12903 7.67774 8.12903Z" fill="black"/>
<path d="M7.22613 2.70968H11.2906C11.6646 2.70968 11.9681 3.01316 11.9681 3.3871C11.9681 3.76103 11.6646 4.06452 11.2906 4.06452H7.22613C6.85219 4.06452 6.54871 3.76103 6.54871 3.3871C6.54871 3.01316 6.85219 2.70968 7.22613 2.70968Z" fill="black"/>
</g>
</g>
</g>
<defs>
<clipPath id="clip0_156_4681">
<rect width="14" height="14" fill="white"/>
</clipPath>
</defs>
</svg>
