<svg xmlns="http://www.w3.org/2000/svg" fill="none" viewBox="0 0 14 14"><g clip-path="url(#a)"><path fill="#000" fill-rule="evenodd" d="m12.858 1.753.981.328a.235.235 0 0 1 0 .445l-.981.327a.24.24 0 0 0-.149.149l-.327.981a.235.235 0 0 1-.445 0l-.327-.981a.24.24 0 0 0-.149-.149l-.982-.327a.235.235 0 0 1 0-.445l.982-.328a.24.24 0 0 0 .149-.148l.327-.982a.235.235 0 0 1 .445 0l.327.982c.024.07.079.125.149.148m-7.592-.195c.202-.607 1.06-.607 1.262 0l1.203 3.608 3.608 1.203c.607.202.607 1.06 0 1.262L7.731 8.834l-1.203 3.608c-.202.607-1.06.607-1.262 0L4.063 8.834.455 7.63c-.607-.202-.607-1.06 0-1.262l3.608-1.203zm.631 1.82-.8 2.4a.67.67 0 0 1-.421.421L2.274 7l2.402.8a.67.67 0 0 1 .42.421l.801 2.402.8-2.402a.67.67 0 0 1 .422-.42L9.52 7 7.12 6.2a.67.67 0 0 1-.421-.421zm7.942 8.096-.981-.327a.24.24 0 0 1-.149-.149l-.327-.981a.235.235 0 0 0-.445 0l-.327.981a.24.24 0 0 1-.149.149l-.982.327a.235.235 0 0 0 0 .445l.982.328c.07.023.125.078.149.148l.327.982a.235.235 0 0 0 .445 0l.327-.982a.24.24 0 0 1 .149-.148l.981-.328a.235.235 0 0 0 0-.445" clip-rule="evenodd"/></g><defs><clipPath id="a"><path fill="#fff" d="M0 0h14v14H0z"/></clipPath></defs></svg>