<svg width="14" height="14" viewBox="0 0 14 14" fill="none" xmlns="http://www.w3.org/2000/svg">
<g id="spinner">
<g clip-path="url(#clip0_156_4630)">
<path id="Vector" fill-rule="evenodd" clip-rule="evenodd" d="M7 1.16667C3.7755 1.16667 1.16667 3.7755 1.16667 7C1.16667 10.2245 3.7755 12.8333 7 12.8333C10.2245 12.8333 12.8333 10.2245 12.8333 7C12.8333 6.67783 13.0945 6.41667 13.4167 6.41667C13.7388 6.41667 14 6.67783 14 7C14 10.8688 10.8688 14 7 14C3.13117 14 0 10.8688 0 7C0 3.13117 3.13117 0 7 0C8.85924 0 10.5479 0.730708 11.8016 1.90813C12.0364 2.12868 12.048 2.49785 11.8274 2.73268C11.6069 2.96752 11.2377 2.97909 11.0029 2.75854C9.95431 1.77374 8.54742 1.16667 7 1.16667Z" fill="black"/>
</g>
</g>
<defs>
<clipPath id="clip0_156_4630">
<rect width="14" height="14" fill="white"/>
</clipPath>
</defs>
</svg>
