<svg xmlns="http://www.w3.org/2000/svg" fill="none" viewBox="0 0 14 14"><g clip-path="url(#a)"><path fill="#000" fill-rule="evenodd" d="M7 2.21A1.105 1.105 0 1 0 7 0a1.105 1.105 0 0 0 0 2.21M2.21 7A1.105 1.105 0 1 1 0 7a1.105 1.105 0 0 1 2.21 0M14 7a1.105 1.105 0 1 1-2.21 0A1.105 1.105 0 0 1 14 7m-5.895 5.895a1.105 1.105 0 1 1-2.21 0 1.105 1.105 0 0 1 2.21 0M2.05 3.613A1.105 1.105 0 1 0 3.613 2.05 1.105 1.105 0 0 0 2.05 3.613m9.9 8.337a1.105 1.105 0 1 1-1.563-1.564 1.105 1.105 0 0 1 1.563 1.564m-9.9 0a1.105 1.105 0 1 0 1.563-1.564A1.105 1.105 0 0 0 2.05 11.95" clip-rule="evenodd"/></g><defs><clipPath id="a"><path fill="#fff" d="M0 0h14v14H0z"/></clipPath></defs></svg>