<svg width="14" height="14" viewBox="0 0 14 14" fill="none" xmlns="http://www.w3.org/2000/svg">
<g id="star-fill">
<g clip-path="url(#clip0_156_4707)">
<path id="Vector" d="M7.51399 0.632915C7.41746 0.437242 7.21819 0.313354 7 0.313354C6.78181 0.313354 6.58254 0.437242 6.48601 0.632915L4.63257 4.3897L0.491148 4.98846C0.275233 5.01967 0.0957625 5.17076 0.0281968 5.37819C-0.0393689 5.58563 0.0166879 5.81343 0.172798 5.96583L3.16711 8.88885L2.46127 13.0169C2.42452 13.2319 2.51291 13.449 2.68931 13.5772C2.86571 13.7054 3.09957 13.7224 3.29263 13.621L7 11.6746L10.7074 13.621C10.9004 13.7224 11.1343 13.7054 11.3107 13.5772C11.4871 13.449 11.5755 13.2319 11.5387 13.0169L10.8329 8.88885L13.8272 5.96583C13.9833 5.81343 14.0394 5.58563 13.9718 5.37819C13.9042 5.17076 13.7248 5.01967 13.5089 4.98846L9.36743 4.3897L7.51399 0.632915Z" fill="black"/>
</g>
</g>
<defs>
<clipPath id="clip0_156_4707">
<rect width="14" height="14" fill="white"/>
</clipPath>
</defs>
</svg>
