<svg xmlns="http://www.w3.org/2000/svg" fill="none" viewBox="0 0 14 14"><g clip-path="url(#a)"><path fill="#000" d="M10.973 13.673a.6.6 0 0 1-.267-.066L7 11.66l-3.706 1.948a.574.574 0 0 1-.83-.604l.707-4.126L.173 5.955a.573.573 0 0 1 .317-.978l4.143-.602L6.486.621c.193-.392.835-.392 1.028 0l1.853 3.754 4.143.602a.573.573 0 0 1 .317.978l-2.998 2.922.708 4.126a.573.573 0 0 1-.564.67M7 10.438c.092 0 .184.022.267.066l2.945 1.548-.563-3.279a.57.57 0 0 1 .165-.507l2.382-2.322-3.292-.478a.57.57 0 0 1-.431-.314L7 2.17 5.528 5.152a.57.57 0 0 1-.431.314l-3.293.478 2.382 2.322c.135.132.197.321.165.507l-.562 3.28 2.945-1.549A.6.6 0 0 1 7 10.438"/></g><defs><clipPath id="a"><path fill="#fff" d="M0 0h14v14H0z"/></clipPath></defs></svg>