<svg width="14" height="14" viewBox="0 0 14 14" fill="none" xmlns="http://www.w3.org/2000/svg">
<g id="step-forward">
<path id="Vector" fill-rule="evenodd" clip-rule="evenodd" d="M3.86611 0.198431C3.67237 0.00469076 3.381 -0.0532662 3.12787 0.0515851C2.87473 0.156437 2.70969 0.403447 2.70969 0.677437V13.3226C2.70969 13.5966 2.87473 13.8436 3.12787 13.9484C3.381 14.0533 3.67237 13.9953 3.86611 13.8016L9.93547 7.73221V13.3226C9.93547 13.6967 10.2388 14 10.6129 14C10.987 14 11.2903 13.6967 11.2903 13.3226V0.677437C11.2903 0.30331 10.987 1.98137e-05 10.6129 1.98137e-05C10.2388 1.98137e-05 9.93547 0.30331 9.93547 0.677437V6.26779L3.86611 0.198431ZM8.75165 7L4.06452 11.6871V2.31287L8.75165 7Z" fill="black"/>
</g>
</svg>
