<svg width="14" height="14" viewBox="0 0 14 14" fill="none" xmlns="http://www.w3.org/2000/svg">
<g id="step-backward">
<path id="Vector" fill-rule="evenodd" clip-rule="evenodd" d="M11.2903 0.677437C11.2903 0.403447 11.1253 0.156437 10.8721 0.0515851C10.619 -0.0532662 10.3276 0.00469076 10.1339 0.198431L4.06452 6.26779V0.677437C4.06452 0.30331 3.76123 1.98137e-05 3.3871 1.98137e-05C3.01298 1.98137e-05 2.70969 0.30331 2.70969 0.677437V13.3226C2.70969 13.6967 3.01298 14 3.3871 14C3.76123 14 4.06452 13.6967 4.06452 13.3226V7.73221L10.1339 13.8016C10.3276 13.9953 10.619 14.0533 10.8721 13.9484C11.1253 13.8436 11.2903 13.5966 11.2903 13.3226V0.677437ZM9.93547 11.6871L5.24834 7L9.93547 2.31287V11.6871Z" fill="black"/>
</g>
</svg>
