<svg xmlns="http://www.w3.org/2000/svg" fill="none" viewBox="0 0 14 14"><g clip-path="url(#a)"><path fill="#000" fill-rule="evenodd" d="M2.484 1.355c-.624 0-1.13.505-1.13 1.129v9.032c0 .624.506 1.13 1.13 1.13h9.032a1.13 1.13 0 0 0 1.13-1.13V2.484a1.13 1.13 0 0 0-1.13-1.13zM0 2.484A2.484 2.484 0 0 1 2.484 0h9.032A2.484 2.484 0 0 1 14 2.484v9.032A2.484 2.484 0 0 1 11.516 14H2.484A2.484 2.484 0 0 1 0 11.516z" clip-rule="evenodd"/></g><defs><clipPath id="a"><path fill="#fff" d="M0 0h14v14H0z"/></clipPath></defs></svg>