<svg width="14" height="14" viewBox="0 0 14 14" fill="none" xmlns="http://www.w3.org/2000/svg">
<g id="stopwatch">
<g clip-path="url(#clip0_156_4692)">
<path id="Vector" fill-rule="evenodd" clip-rule="evenodd" d="M4.58936 0C4.22692 0 3.93311 0.293813 3.93311 0.65625C3.93311 1.01869 4.22692 1.3125 4.58936 1.3125H8.96436C9.32679 1.3125 9.62061 1.01869 9.62061 0.65625C9.62061 0.293813 9.32679 0 8.96436 0H4.58936ZM1.96436 7.875C1.96436 5.21713 4.11899 3.0625 6.77686 3.0625C9.43473 3.0625 11.5894 5.21713 11.5894 7.875C11.5894 10.5329 9.43473 12.6875 6.77686 12.6875C4.11899 12.6875 1.96436 10.5329 1.96436 7.875ZM6.77686 1.75C3.39411 1.75 0.651855 4.49226 0.651855 7.875C0.651855 11.2577 3.39411 14 6.77686 14C10.1596 14 12.9019 11.2577 12.9019 7.875C12.9019 4.49226 10.1596 1.75 6.77686 1.75ZM6.7681 4.59375C7.13053 4.59375 7.42435 4.88756 7.42435 5.25V7.875C7.42435 8.23744 7.13053 8.53125 6.7681 8.53125C6.40566 8.53125 6.11185 8.23744 6.11185 7.875V5.25C6.11185 4.88756 6.40566 4.59375 6.7681 4.59375ZM11.8434 1.49595C11.5871 1.23967 11.1716 1.23967 10.9153 1.49595C10.659 1.75223 10.659 2.16775 10.9153 2.42403L12.2278 3.73653C12.4841 3.99281 12.8996 3.99281 13.1559 3.73653C13.4122 3.48025 13.4122 3.06473 13.1559 2.80845L11.8434 1.49595Z" fill="black"/>
</g>
</g>
<defs>
<clipPath id="clip0_156_4692">
<rect width="14" height="14" fill="white"/>
</clipPath>
</defs>
</svg>
