<svg width="14" height="14" viewBox="0 0 14 14" fill="none" xmlns="http://www.w3.org/2000/svg">
<g id="stop">
<g clip-path="url(#clip0_156_4551)">
<path id="Vector" fill-rule="evenodd" clip-rule="evenodd" d="M2.48387 1.35484C1.86032 1.35484 1.35484 1.86032 1.35484 2.48387V11.5161C1.35484 12.1397 1.86032 12.6452 2.48387 12.6452H11.5161C12.1397 12.6452 12.6452 12.1397 12.6452 11.5161V2.48387C12.6452 1.86032 12.1397 1.35484 11.5161 1.35484H2.48387ZM0 2.48387C0 1.11207 1.11207 0 2.48387 0H11.5161C12.8879 0 14 1.11207 14 2.48387V11.5161C14 12.8879 12.8879 14 11.5161 14H2.48387C1.11207 14 0 12.8879 0 11.5161V2.48387Z" fill="black"/>
</g>
</g>
<defs>
<clipPath id="clip0_156_4551">
<rect width="14" height="14" fill="white"/>
</clipPath>
</defs>
</svg>
