<svg xmlns="http://www.w3.org/2000/svg" viewBox="0 0 14 14"><g clip-path="url(#a)"><path fill-rule="evenodd" d="M4.59 0a.656.656 0 1 0 0 1.313h4.374a.656.656 0 0 0 0-1.313zM1.963 7.875a4.813 4.813 0 1 1 9.625 0 4.813 4.813 0 0 1-9.625 0M6.777 1.75a6.125 6.125 0 1 0 0 12.25 6.125 6.125 0 0 0 0-12.25m-.009 2.844c.363 0 .656.294.656.656v2.625a.656.656 0 0 1-1.312 0V5.25c0-.362.294-.656.656-.656m5.075-3.098a.656.656 0 0 0-.928.928l1.313 1.313a.656.656 0 0 0 .928-.929z" clip-rule="evenodd"/></g><defs><clipPath id="a"><path d="M0 0h14v14H0z"/></clipPath></defs></svg>