<svg width="14" height="14" viewBox="0 0 14 14" fill="none" xmlns="http://www.w3.org/2000/svg">
<g id="stop-circle">
<g clip-path="url(#clip0_156_4567)">
<path id="Vector" fill-rule="evenodd" clip-rule="evenodd" d="M1.16667 7C1.16667 3.77834 3.77834 1.16667 7 1.16667C10.2217 1.16667 12.8333 3.77834 12.8333 7C12.8333 10.2217 10.2217 12.8333 7 12.8333C3.77834 12.8333 1.16667 10.2217 1.16667 7ZM7 0C3.13401 0 0 3.13401 0 7C0 10.866 3.13401 14 7 14C10.866 14 14 10.866 14 7C14 3.13401 10.866 0 7 0ZM3.88889 5.05556C3.88889 4.41122 4.41122 3.88889 5.05556 3.88889H8.94444C9.58878 3.88889 10.1111 4.41122 10.1111 5.05556V8.94444C10.1111 9.58878 9.58878 10.1111 8.94444 10.1111H5.05556C4.41122 10.1111 3.88889 9.58878 3.88889 8.94444V5.05556Z" fill="black"/>
</g>
</g>
<defs>
<clipPath id="clip0_156_4567">
<rect width="14" height="14" fill="white"/>
</clipPath>
</defs>
</svg>
