<svg xmlns="http://www.w3.org/2000/svg" viewBox="0 0 14 14"><g clip-path="url(#a)"><path fill-rule="evenodd" d="M7 0c.29 0 .525.235.525.525v1.05a.525.525 0 1 1-1.05 0V.525C6.475.235 6.71 0 7 0m0 4.025a2.975 2.975 0 1 0 0 5.95 2.975 2.975 0 0 0 0-5.95M2.975 7a4.025 4.025 0 1 1 8.05 0 4.025 4.025 0 0 1-8.05 0m4.55 5.425a.525.525 0 0 0-1.05 0v1.05a.525.525 0 0 0 1.05 0zM11.9 7c0-.29.235-.525.525-.525h1.05a.525.525 0 0 1 0 1.05h-1.05A.525.525 0 0 1 11.9 7M.525 6.475a.525.525 0 1 0 0 1.05h1.05a.525.525 0 1 0 0-1.05zm1.512-4.438a.525.525 0 0 1 .742 0l.742.742a.525.525 0 1 1-.742.742l-.742-.742a.525.525 0 0 1 0-.742m9.184 8.442a.525.525 0 1 0-.742.742l.742.742a.525.525 0 1 0 .742-.742zm.742-8.442a.525.525 0 0 1 0 .742l-.742.742a.525.525 0 1 1-.742-.742l.742-.742a.525.525 0 0 1 .742 0M3.521 11.22a.525.525 0 1 0-.742-.742l-.742.742a.525.525 0 1 0 .742.742z" clip-rule="evenodd"/></g><defs><clipPath id="a"><path d="M0 0h14v14H0z"/></clipPath></defs></svg>