<svg xmlns="http://www.w3.org/2000/svg" fill="none" viewBox="0 0 14 14"><g fill="#000" clip-path="url(#a)"><path d="M12.133.677a.678.678 0 0 1 1.355 0V4.51a.68.68 0 0 1-.677.677H8.979a.678.678 0 0 1 0-1.355h2.197l-.76-.76A5.198 5.198 0 0 0 1.83 5.059a.677.677 0 0 1-1.282-.437 6.5 6.5 0 0 1 1.565-2.507 6.556 6.556 0 0 1 9.26 0l.76.76zM12.17 8.942a.676.676 0 1 1 1.282.437 6.5 6.5 0 0 1-1.565 2.507A6.53 6.53 0 0 1 7.256 13.8a6.53 6.53 0 0 1-4.63-1.915l-.76-.76v2.198a.678.678 0 0 1-1.354 0V9.49c0-.374.303-.677.677-.677h3.832a.678.678 0 0 1 0 1.354H2.824l.76.76a5.2 5.2 0 0 0 8.586-1.986"/></g><defs><clipPath id="a"><path fill="#fff" d="M0 0h14v14H0z"/></clipPath></defs></svg>