<svg xmlns="http://www.w3.org/2000/svg" fill="none" viewBox="0 0 14 14"><g clip-path="url(#a)"><path fill="#000" d="M7.277 14a1.97 1.97 0 0 1-1.4-.58L.192 7.743a.66.66 0 0 1-.193-.466V.658C-.001.295.294 0 .657 0h6.618c.174 0 .342.07.465.193l5.685 5.685a1.985 1.985 0 0 1 0 2.796v.002L8.68 13.42c-.387.385-.895.579-1.403.579M1.314 7.003l5.492 5.486c.26.259.683.259.943 0l4.745-4.745a.666.666 0 0 0 0-.937L7.001 1.315H1.314zM3.93 5.025a1.1 1.1 0 0 1-1.097-1.097c0-.604.493-1.096 1.097-1.096.605 0 1.097.492 1.097 1.096s-.492 1.097-1.097 1.097"/></g><defs><clipPath id="a"><path fill="#fff" d="M0 0h14v14H0z"/></clipPath></defs></svg>