<svg xmlns="http://www.w3.org/2000/svg" fill="none" viewBox="0 0 14 14"><g clip-path="url(#a)"><path fill="#000" d="M13.516 5.781 9.206 1.473a.54.54 0 0 0-.38-.158H.539A.54.54 0 0 0 0 1.854v5.658c0 .143.057.28.158.38l4.31 4.304c.314.315.734.489 1.18.489h.001c.446 0 .865-.174 1.18-.49l.161-.16q.038.088.107.16a1.668 1.668 0 0 0 2.362 0l4.06-4.058a1.677 1.677 0 0 0-.004-2.356m-7.449 5.653a.59.59 0 0 1-.84 0l-4.15-4.145V2.392h4.897l4.149 4.15c.229.23.229.605 0 .836zm6.687-4.057-4.057 4.057a.595.595 0 0 1-.838 0 .5.5 0 0 0-.162-.106l3.19-3.19a1.673 1.673 0 0 0 0-2.357l-3.39-3.389h1.107l4.149 4.15c.229.23.229.605.001.835m-8.446-2.89a.899.899 0 0 1-1.795 0 .899.899 0 0 1 1.795 0"/></g><defs><clipPath id="a"><path fill="#fff" d="M0 0h14v14H0z"/></clipPath></defs></svg>