<svg xmlns="http://www.w3.org/2000/svg" fill="none" viewBox="0 0 14 14"><g clip-path="url(#a)"><path fill="#000" fill-rule="evenodd" d="M1.273 1.91c0-.352.285-.637.636-.637h2.546c.351 0 .636.285.636.636v2.546a.636.636 0 0 1-.636.636H1.909a.636.636 0 0 1-.636-.636zM1.909 0A1.91 1.91 0 0 0 0 1.91v2.545a1.91 1.91 0 0 0 1.91 1.909h2.545a1.91 1.91 0 0 0 1.909-1.91V1.91A1.91 1.91 0 0 0 4.454 0zm-.636 9.545c0-.351.285-.636.636-.636h2.546c.351 0 .636.285.636.636v2.546a.636.636 0 0 1-.636.636H1.909a.636.636 0 0 1-.636-.636zm.636-1.909A1.91 1.91 0 0 0 0 9.546v2.545A1.91 1.91 0 0 0 1.91 14h2.545a1.91 1.91 0 0 0 1.909-1.91V9.546a1.91 1.91 0 0 0-1.91-1.909zm7.636-6.363a.636.636 0 0 0-.636.636v2.546c0 .351.285.636.636.636h2.546a.636.636 0 0 0 .636-.636V1.909a.636.636 0 0 0-.636-.636zm-1.909.636A1.91 1.91 0 0 1 9.546 0h2.545A1.91 1.91 0 0 1 14 1.91v2.545a1.91 1.91 0 0 1-1.91 1.909H9.546a1.91 1.91 0 0 1-1.909-1.91zM8.91 9.545c0-.351.285-.636.636-.636h2.546c.351 0 .636.285.636.636v2.546a.636.636 0 0 1-.636.636H9.545a.636.636 0 0 1-.636-.636zm.636-1.909a1.91 1.91 0 0 0-1.909 1.91v2.545A1.91 1.91 0 0 0 9.546 14h2.545A1.91 1.91 0 0 0 14 12.09V9.546a1.91 1.91 0 0 0-1.91-1.909z" clip-rule="evenodd"/></g><defs><clipPath id="a"><path fill="#fff" d="M0 0h14v14H0z"/></clipPath></defs></svg>