<svg xmlns="http://www.w3.org/2000/svg" fill="none" viewBox="0 0 14 14"><g clip-path="url(#a)"><path fill="#000" d="M12.1 0H2.85a1.8 1.8 0 0 0-1.77 1.488l-1.052 6v.002a1.793 1.793 0 0 0 1.77 2.11h3.225v2.2c0 1.214.984 2.2 2.266 2.2a1.4 1.4 0 0 0 1.285-.852L10.6 8.4h1.5A1.9 1.9 0 0 0 14 6.504V1.888A1.895 1.895 0 0 0 12.1 0M9.606 7.677 7.47 12.675c-.033.076-.104.125-.254.125a1 1 0 0 1-.994-1V8.4H1.798a.597.597 0 0 1-.589-.705L2.26 1.698a.6.6 0 0 1 .589-.498H9.61zM12.8 6.504a.7.7 0 0 1-.7.696h-1.288v-6h1.289c.385 0 .699.309.699.688z"/></g><defs><clipPath id="a"><path fill="#fff" d="M0 0h14v14H0z"/></clipPath></defs></svg>