<svg xmlns="http://www.w3.org/2000/svg" viewBox="0 0 14 14"><g clip-path="url(#a)"><path fill-rule="evenodd" d="M2.4.6A.6.6 0 0 1 3 0h8a.6.6 0 1 1 0 1.2h-.2v4.2c0 .042.015.098.081.171.07.077.18.152.315.202 1.075.404 1.558 1.402 1.778 2.154a5.9 5.9 0 0 1 .226 1.432v.04l-.6.001h.6a.6.6 0 0 1-.6.6h-5v3.4a.6.6 0 1 1-1.2 0V10h-5a.6.6 0 0 1-.6-.6h.6-.6v-.041l.004-.093a5.852 5.852 0 0 1 .222-1.339c.22-.752.703-1.75 1.778-2.154a.8.8 0 0 0 .315-.202c.066-.073.081-.129.081-.171V1.2H3a.6.6 0 0 1-.6-.6m2 .6v4.2c0 .808-.657 1.302-1.173 1.496-.54.203-.865.739-1.05 1.368a5 5 0 0 0-.12.536h9.885a4 4 0 0 0-.12-.536c-.184-.63-.508-1.165-1.049-1.368C10.257 6.702 9.6 6.208 9.6 5.4V1.2z" clip-rule="evenodd"/></g><defs><clipPath id="a"><path d="M0 0h14v14H0z"/></clipPath></defs></svg>