<svg xmlns="http://www.w3.org/2000/svg" viewBox="0 0 14 14"><g clip-path="url(#a)"><path d="M13.577 5.038A1.8 1.8 0 0 0 12.2 4.4H8.973V2.2C8.973.986 7.99 0 6.707 0a1.4 1.4 0 0 0-1.285.852L3.393 5.6H1.9A1.9 1.9 0 0 0 0 7.496v4.616C0 13.154.852 14 1.9 14h9.25c.871 0 1.615-.625 1.77-1.488l1.053-6V6.51a1.8 1.8 0 0 0-.396-1.472M1.9 12.801a.695.695 0 0 1-.7-.688V7.497a.7.7 0 0 1 .7-.696h1.289l-.008 6zm9.838-.499a.6.6 0 0 1-.59.498H4.39V6.324l2.136-4.998c.032-.076.104-.125.254-.125.549 0 .994.449.994 1v3.4h4.428a.597.597 0 0 1 .589.705z"/></g><defs><clipPath id="a"><path d="M0 0h14v14H0z"/></clipPath></defs></svg>