<svg xmlns="http://www.w3.org/2000/svg" fill="none" viewBox="0 0 14 14"><path fill="#000" fill-rule="evenodd" d="M0 3c0-.771.629-1.4 1.4-1.4h11.2c.771 0 1.4.629 1.4 1.4v2a.6.6 0 0 1-.6.6 1.4 1.4 0 0 0 0 2.8.6.6 0 0 1 .6.6v2c0 .771-.629 1.4-1.4 1.4H1.4C.629 12.4 0 11.771 0 11V9a.6.6 0 0 1 .6-.6 1.4 1.4 0 0 0 0-2.8A.6.6 0 0 1 0 5zm1.4-.2c-.109 0-.2.091-.2.2v1.47a2.602 2.602 0 0 1 0 5.06V11c0 .109.091.2.2.2h11.2c.109 0 .2-.091.2-.2V9.53a2.602 2.602 0 0 1 0-5.06V3c0-.109-.091-.2-.2-.2z" clip-rule="evenodd"/></svg>