<svg width="14" height="14" viewBox="0 0 14 14" fill="none" xmlns="http://www.w3.org/2000/svg">
<g id="tiktok">
<g clip-path="url(#clip0_295_4743)">
<path id="Vector" d="M13.1256 5.74002C11.9212 5.7426 10.7465 5.36665 9.76745 4.6653V9.55484C9.76717 10.4604 9.49041 11.3443 8.97417 12.0883C8.45793 12.8323 7.72683 13.401 6.87865 13.7182C6.03047 14.0355 5.10565 14.0862 4.22787 13.8636C3.35009 13.6409 2.5612 13.1556 1.96671 12.4725C1.37223 11.7894 1.00048 10.9411 0.901199 10.041C0.801915 9.14087 0.979825 8.2319 1.41113 7.43564C1.84244 6.63939 2.50659 5.9938 3.31475 5.58523C4.12291 5.17666 5.03655 5.02458 5.93348 5.14933V7.60778C5.52336 7.47867 5.08293 7.48245 4.67508 7.61857C4.26723 7.75469 3.91282 8.01619 3.66244 8.36574C3.41207 8.71529 3.27853 9.135 3.28091 9.56496C3.28329 9.99492 3.42145 10.4131 3.67568 10.7599C3.9299 11.1066 4.28718 11.3642 4.69651 11.4958C5.10584 11.6274 5.54629 11.6263 5.95496 11.4927C6.36363 11.3591 6.71963 11.0997 6.97213 10.7517C7.22464 10.4037 7.36072 9.98481 7.36097 9.55484V0H9.76745C9.7661 0.20353 9.78349 0.406752 9.81941 0.607091C9.9031 1.05366 10.077 1.47847 10.3304 1.85556C10.5838 2.23266 10.9115 2.55411 11.2934 2.80028C11.837 3.15929 12.4742 3.35045 13.1256 3.34994V5.74002Z" fill="black"/>
</g>
</g>
<defs>
<clipPath id="clip0_295_4743">
<rect width="14" height="14" fill="white"/>
</clipPath>
</defs>
</svg>
