<svg width="14" height="14" viewBox="0 0 14 14" fill="none" xmlns="http://www.w3.org/2000/svg">
<g id="times-circle">
<g clip-path="url(#clip0_156_4634)">
<path id="Vector" fill-rule="evenodd" clip-rule="evenodd" d="M7 1.16667C3.77834 1.16667 1.16667 3.77834 1.16667 7C1.16667 10.2217 3.77834 12.8333 7 12.8333C10.2217 12.8333 12.8333 10.2217 12.8333 7C12.8333 3.77834 10.2217 1.16667 7 1.16667ZM0 7C0 3.13401 3.13401 0 7 0C10.866 0 14 3.13401 14 7C14 10.866 10.866 14 7 14C3.13401 14 0 10.866 0 7ZM9.74581 4.25419C9.97362 4.48199 9.97362 4.85134 9.74581 5.07915L7.82496 7L9.74581 8.92085C9.97362 9.14866 9.97362 9.51801 9.74581 9.74581C9.51801 9.97362 9.14866 9.97362 8.92085 9.74581L7 7.82496L5.07915 9.74581C4.85134 9.97362 4.48199 9.97362 4.25419 9.74581C4.02638 9.51801 4.02638 9.14866 4.25419 8.92085L6.17504 7L4.25419 5.07915C4.02638 4.85134 4.02638 4.48199 4.25419 4.25419C4.48199 4.02638 4.85134 4.02638 5.07915 4.25419L7 6.17504L8.92085 4.25419C9.14866 4.02638 9.51801 4.02638 9.74581 4.25419Z" fill="black"/>
</g>
</g>
<defs>
<clipPath id="clip0_156_4634">
<rect width="14" height="14" fill="white"/>
</clipPath>
</defs>
</svg>
