<svg xmlns="http://www.w3.org/2000/svg" fill="none" viewBox="0 0 14 14"><g clip-path="url(#a)"><path fill="#000" fill-rule="evenodd" d="M7 1.167a5.833 5.833 0 1 0 0 11.666A5.833 5.833 0 0 0 7 1.167M0 7a7 7 0 1 1 14 0A7 7 0 0 1 0 7m9.746-2.746a.583.583 0 0 1 0 .825L7.825 7l1.92 1.92a.583.583 0 1 1-.824.826L7 7.825l-1.92 1.92a.583.583 0 1 1-.826-.824L6.175 7l-1.92-1.92a.583.583 0 1 1 .824-.826L7 6.175l1.92-1.92a.583.583 0 0 1 .826 0" clip-rule="evenodd"/></g><defs><clipPath id="a"><path fill="#fff" d="M0 0h14v14H0z"/></clipPath></defs></svg>