<svg width="14" height="14" viewBox="0 0 14 14" fill="none" xmlns="http://www.w3.org/2000/svg">
<g id="times">
<path id="Vector" fill-rule="evenodd" clip-rule="evenodd" d="M2.73542 1.71196C2.45281 1.42935 1.99459 1.42935 1.71198 1.71196C1.42936 1.99458 1.42936 2.45279 1.71198 2.73541L5.97657 7L1.71198 11.2646C1.42936 11.5472 1.42936 12.0054 1.71198 12.288C1.99459 12.5707 2.45281 12.5707 2.73542 12.288L7.00002 8.02344L11.2646 12.288C11.5472 12.5707 12.0054 12.5707 12.2881 12.288C12.5707 12.0054 12.5707 11.5472 12.2881 11.2646L8.02346 7L12.2881 2.73541C12.5707 2.45279 12.5707 1.99458 12.2881 1.71196C12.0054 1.42935 11.5472 1.42935 11.2646 1.71196L7.00002 5.97656L2.73542 1.71196Z" fill="black"/>
</g>
</svg>
