<svg xmlns="http://www.w3.org/2000/svg" viewBox="0 0 14 14"><g clip-path="url(#a)"><path fill-rule="evenodd" d="M3.952 1.807c0-.244.275-.608.824-.608h4.448c.551 0 .824.358.824.608v1.207q0 .08.02.152H3.932a.6.6 0 0 0 .019-.152zm-1.18 1.36a.6.6 0 0 1-.02-.153V1.807C2.752.724 3.757 0 4.776 0h4.448c1.017 0 2.024.713 2.024 1.807v1.207a.6.6 0 0 1-.02.152H13.4a.6.6 0 1 1 0 1.2h-.824v7.827c0 1.083-1.005 1.807-2.024 1.807H3.44c-1.017 0-2.024-.713-2.024-1.807V4.365H.6a.6.6 0 1 1 0-1.199h2.171m-.156 1.198v7.828c0 .25.273.608.824.608h7.112c.549 0 .824-.364.824-.608V4.365zm2.96 1.815a.6.6 0 0 1 .6.6v3.614a.6.6 0 0 1-1.2 0V6.78a.6.6 0 0 1 .6-.6m3.448.6a.6.6 0 0 0-1.2 0v3.614a.6.6 0 0 0 1.2 0z" clip-rule="evenodd"/></g><defs><clipPath id="a"><path d="M0 0h14v14H0z"/></clipPath></defs></svg>