<svg xmlns="http://www.w3.org/2000/svg" viewBox="0 0 14 14"><g clip-path="url(#a)"><path d="M11.162 3.027H9.648V2.46c0-.73-.594-1.325-1.324-1.325h-7C.594 1.135 0 1.73 0 2.46v6.81c0 .73.594 1.324 1.324 1.324h.208a2.454 2.454 0 0 0 2.44 2.27 2.454 2.454 0 0 0 2.441-2.27h1.174a2.454 2.454 0 0 0 2.44 2.27 2.454 2.454 0 0 0 2.44-2.27h.209C13.406 10.594 14 10 14 9.27V5.865a2.84 2.84 0 0 0-2.838-2.838M1.135 9.27V2.46c0-.103.086-.19.19-.19h6.999c.103 0 .189.087.189.19v6.01c-.023.018-.04.043-.063.063q-.173.146-.315.32-.046.05-.087.104a2.5 2.5 0 0 0-.29.502H6.242l-.005-.01q0-.004-.003-.006a2.4 2.4 0 0 0-.203-.374Q6 9.02 5.964 8.974a3 3 0 0 0-.204-.248q-.043-.046-.087-.09a2.5 2.5 0 0 0-.303-.251q-.02-.015-.039-.028a2.5 2.5 0 0 0-.356-.194q-.065-.028-.134-.052a3 3 0 0 0-.29-.09q-.068-.019-.136-.033a2.4 2.4 0 0 0-.443-.044c-.151 0-.298.018-.443.044q-.068.014-.136.032-.149.037-.29.09c-.045.018-.09.033-.134.053a2.5 2.5 0 0 0-.356.194l-.039.028q-.161.114-.303.25l-.087.091q-.111.116-.204.248-.035.047-.068.095a2.5 2.5 0 0 0-.203.374q-.002.002-.003.006l-.005.01h-.378a.19.19 0 0 1-.188-.189m2.838 2.46a1.326 1.326 0 0 1-1.297-1.593c.028-.138.083-.264.15-.382q.015-.03.031-.058a1.3 1.3 0 0 1 .31-.335c.102-.078.214-.144.336-.19q.028-.01.057-.018c.13-.043.268-.072.413-.072s.281.028.413.072q.03.008.057.018c.122.046.234.112.336.19l.059.048q.145.125.25.287.018.03.033.059c.066.117.122.244.15.38q.027.131.027.27c-.001.729-.595 1.323-1.325 1.323m6.054 0a1.326 1.326 0 0 1-1.298-1.592q.03-.136.085-.26l.007-.014q.053-.118.128-.222.016-.02.032-.039.066-.087.146-.163.024-.02.047-.039a1.3 1.3 0 0 1 .174-.126q.028-.016.057-.031.103-.057.218-.093.047-.017.096-.03c.1-.023.202-.04.308-.04.143 0 .281.03.413.073l.057.018c.122.046.234.112.336.19l.058.048q.146.125.252.287.016.03.031.059c.067.117.122.244.15.38q.027.131.027.27c0 .729-.594 1.323-1.325 1.323m-.379-5.298v-2.27h1.514c.938 0 1.702.765 1.702 1.703v.567z"/></g><defs><clipPath id="a"><path d="M0 0h14v14H0z"/></clipPath></defs></svg>