<svg xmlns="http://www.w3.org/2000/svg" fill="none" viewBox="0 0 14 14"><g clip-path="url(#a)"><path fill="#000" fill-rule="evenodd" d="M5.4 0a.6.6 0 0 1 .6.6v2.901l3.907-1.463a.6.6 0 1 1 .421 1.124L6 4.782v.52l3.907-1.464a.6.6 0 1 1 .421 1.124L6 6.582v6.187c2.894-.303 5.2-2.772 5.2-5.769a.6.6 0 1 1 1.2 0c0 3.868-3.173 7-7 7a.6.6 0 0 1-.6-.6V7.032l-2.39.895a.6.6 0 0 1-.42-1.124L4.8 5.751v-.519l-2.39.895a.6.6 0 0 1-.42-1.124L4.8 3.951V.6a.6.6 0 0 1 .6-.6" clip-rule="evenodd"/></g><defs><clipPath id="a"><path fill="#fff" d="M0 0h14v14H0z"/></clipPath></defs></svg>