<svg width="14" height="14" viewBox="0 0 14 14" fill="none" xmlns="http://www.w3.org/2000/svg">
<g id="undo">
<path id="Vector" fill-rule="evenodd" clip-rule="evenodd" d="M7.42428 1.02426C7.65859 0.789949 7.65859 0.410051 7.42428 0.175736C7.18996 -0.0585786 6.81006 -0.0585786 6.57575 0.175736L4.17575 2.57574C3.94143 2.81005 3.94143 3.18995 4.17575 3.42426L6.57575 5.82426C6.81006 6.05858 7.18996 6.05858 7.42428 5.82426C7.65859 5.58995 7.65859 5.21005 7.42428 4.97574L6.04854 3.6H7.00001C9.54064 3.6 11.6 5.65937 11.6 8.2C11.6 10.7406 9.54064 12.8 7.00001 12.8C4.45938 12.8 2.40001 10.7406 2.40001 8.2C2.40001 7.86863 2.13138 7.6 1.80001 7.6C1.46864 7.6 1.20001 7.86863 1.20001 8.2C1.20001 11.4034 3.79664 14 7.00001 14C10.2034 14 12.8 11.4034 12.8 8.2C12.8 4.99663 10.2034 2.4 7.00001 2.4H6.04854L7.42428 1.02426Z" fill="black"/>
</g>
</svg>
