<svg xmlns="http://www.w3.org/2000/svg" fill="none" viewBox="0 0 14 14"><g clip-path="url(#a)"><path fill="#000" fill-rule="evenodd" d="M7 0a3.8 3.8 0 0 0-3.8 3.8v1.8H3A2.2 2.2 0 0 0 .8 7.8v4A2.2 2.2 0 0 0 3 14h8a2.2 2.2 0 0 0 2.2-2.2v-4A2.2 2.2 0 0 0 11 5.6H4.4V3.8a2.6 2.6 0 1 1 5.2 0 .6.6 0 0 0 1.2 0C10.8 1.7 9.1 0 7 0M3.8 6.8H3a1 1 0 0 0-1 1v4a1 1 0 0 0 1 1h8a1 1 0 0 0 1-1v-4a1 1 0 0 0-1-1z" clip-rule="evenodd"/></g><defs><clipPath id="a"><path fill="#fff" d="M0 0h14v14H0z"/></clipPath></defs></svg>