<svg xmlns="http://www.w3.org/2000/svg" viewBox="0 0 14 14"><path fill-rule="evenodd" d="M6.29 2.333a1.826 1.826 0 1 0 0 3.653 1.826 1.826 0 0 0 0-3.653M3.246 4.16a3.043 3.043 0 1 1 6.087 0 3.043 3.043 0 0 1-6.087 0m-1.695 6.807c-.204.314-.334.732-.334 1.31a.609.609 0 1 1-1.217 0q-.001-1.152.53-1.972c.353-.546.857-.935 1.443-1.21C3.12 8.556 4.658 8.42 6.29 8.42s3.17.136 4.316.674c.587.275 1.09.664 1.445 1.21q.53.82.529 1.971a.609.609 0 1 1-1.218 0c0-.577-.13-.995-.333-1.309-.204-.315-.512-.57-.94-.77-.883-.414-2.184-.558-3.8-.558-1.614 0-2.915.144-3.799.558-.428.2-.735.455-.94.77m9-4.98a.609.609 0 0 0 0 1.217h2.84a.609.609 0 1 0 0-1.217z" clip-rule="evenodd"/></svg>