<svg xmlns="http://www.w3.org/2000/svg" fill="none" viewBox="0 0 14 14"><g fill="#000" clip-path="url(#a)"><path fill-rule="evenodd" d="M5.744 4.487A2.696 2.696 0 0 0 8.436 7.18a2.696 2.696 0 0 0 2.692-2.692 2.696 2.696 0 0 0-2.692-2.692 2.696 2.696 0 0 0-2.692 2.692m1.077 0c0-.89.725-1.615 1.615-1.615s1.615.724 1.615 1.615-.725 1.616-1.615 1.616S6.82 5.378 6.82 4.487" clip-rule="evenodd"/><path d="M12.923 11.667a.539.539 0 0 0 1.077 0c0-3.41-3.9-3.41-5.564-3.41s-5.564 0-5.564 3.41a.539.539 0 0 0 1.077 0c0-1.401.762-2.334 4.487-2.334s4.487.933 4.487 2.334M4.356 7.765q-.105 0-.21-.01A2.13 2.13 0 0 1 2.69 6.98a2.14 2.14 0 0 1-.483-1.576c.054-.573.33-1.09.773-1.456a2.15 2.15 0 0 1 1.575-.483.54.54 0 0 1 .486.587.54.54 0 0 1-.588.485 1.07 1.07 0 0 0-1.173.97c-.028.286.058.566.24.788a1.077 1.077 0 0 0 1.396.231.538.538 0 1 1 .566.916 2.13 2.13 0 0 1-1.126.322M0 11.128a.539.539 0 0 0 1.077 0c0-1.616.285-2.154 1.974-2.154a.539.539 0 0 0 0-1.077C.52 7.897 0 9.19 0 11.128"/></g><defs><clipPath id="a"><path fill="#fff" d="M0 0h14v14H0z"/></clipPath></defs></svg>