<svg xmlns="http://www.w3.org/2000/svg" fill="none" viewBox="0 0 14 14"><g clip-path="url(#a)"><path fill="#000" fill-rule="evenodd" d="M5.906 2.328a1.715 1.715 0 1 0 0 3.43 1.715 1.715 0 0 0 0-3.43M3.048 4.043a2.858 2.858 0 1 1 5.716 0 2.858 2.858 0 0 1-5.716 0m-1.592 6.392c-.191.294-.313.687-.313 1.23a.572.572 0 1 1-1.143 0c0-.72.164-1.34.497-1.852.332-.513.805-.878 1.356-1.137 1.076-.504 2.521-.632 4.053-.632q.762 0 1.471.047a.572.572 0 1 1-.076 1.14q-.666-.044-1.395-.044c-1.516 0-2.738.135-3.568.524-.401.189-.69.428-.882.723M12.24 6.977c.035-.035.118-.078.244-.075a.38.38 0 0 1 .261.094c.06.06.106.163.111.28.005.114-.032.184-.063.215l-.005.004-4.061 4.061-.598.056.045-.577 4.007-4.006a1 1 0 0 0 .059-.052m1.323-.78a1.52 1.52 0 0 0-1.057-.438 1.5 1.5 0 0 0-1.005.346 1 1 0 0 0-.077.064l-4.207 4.207a.57.57 0 0 0-.166.36l-.114 1.463a.572.572 0 0 0 .623.614l1.478-.138a.57.57 0 0 0 .351-.165l4.205-4.205c.31-.304.42-.713.405-1.08a1.58 1.58 0 0 0-.436-1.029" clip-rule="evenodd"/></g><defs><clipPath id="a"><path fill="#fff" d="M0 0h14v14H0z"/></clipPath></defs></svg>