<svg xmlns="http://www.w3.org/2000/svg" viewBox="0 0 14 14"><path fill-rule="evenodd" d="M4.464 4.16a1.826 1.826 0 1 1 3.652 0 1.826 1.826 0 0 1-3.652 0M6.29 1.115a3.043 3.043 0 1 0 0 6.087 3.043 3.043 0 0 0 0-6.087m-5.073 11.16c0-.578.13-.996.334-1.31s.511-.57.94-.77c.883-.414 2.184-.558 3.799-.558s2.916.144 3.8.558c.427.2.735.455.94.77.203.314.332.732.332 1.31a.609.609 0 1 0 1.218 0q.001-1.152-.53-1.972c-.353-.546-.857-.935-1.444-1.21-1.145-.538-2.684-.674-4.316-.674s-3.17.136-4.317.674c-.586.275-1.09.664-1.444 1.21Q0 11.124 0 12.275a.609.609 0 1 0 1.217 0m10.754-7.71c.336 0 .609.272.609.608v.812h.811a.609.609 0 1 1 0 1.217h-.811v.812a.609.609 0 1 1-1.218 0v-.812h-.811a.609.609 0 0 1 0-1.217h.811v-.812c0-.336.273-.609.609-.609" clip-rule="evenodd"/></svg>