<svg xmlns="http://www.w3.org/2000/svg" fill="none" viewBox="0 0 14 14"><g clip-path="url(#a)"><path fill="#000" fill-rule="evenodd" d="M4.968 3.839a2.032 2.032 0 1 1 4.064 0 2.032 2.032 0 0 1-4.064 0M7 .452a3.387 3.387 0 1 0 0 6.774A3.387 3.387 0 0 0 7 .452M1.355 12.87c0-.642.144-1.108.37-1.457.228-.35.57-.634 1.047-.857.982-.461 2.431-.622 4.228-.622s3.246.16 4.229.622c.476.223.818.506 1.045.857.227.35.371.815.371 1.457a.677.677 0 0 0 1.355 0q.002-1.28-.589-2.194c-.394-.608-.955-1.04-1.607-1.347-1.275-.598-2.988-.75-4.804-.75s-3.529.152-4.804.75c-.652.306-1.213.74-1.607 1.347q-.59.913-.589 2.194a.677.677 0 0 0 1.355 0" clip-rule="evenodd"/></g><defs><clipPath id="a"><path fill="#fff" d="M0 0h14v14H0z"/></clipPath></defs></svg>