<svg width="14" height="14" viewBox="0 0 14 14" fill="none" xmlns="http://www.w3.org/2000/svg">
<g id="venus">
<g clip-path="url(#clip0_295_4714)">
<path id="Vector" fill-rule="evenodd" clip-rule="evenodd" d="M6.99999 1.07692C4.9183 1.07692 3.23076 2.76447 3.23076 4.84615C3.23076 6.92784 4.9183 8.61539 6.99999 8.61539C9.08168 8.61539 10.7692 6.92784 10.7692 4.84615C10.7692 2.76447 9.08168 1.07692 6.99999 1.07692ZM2.15384 4.84615C2.15384 2.1697 4.32354 0 6.99999 0C9.67645 0 11.8461 2.1697 11.8461 4.84615C11.8461 7.34061 9.9615 9.39488 7.53845 9.66273V11.1282H9.15384C9.45122 11.1282 9.6923 11.3693 9.6923 11.6667C9.6923 11.9641 9.45122 12.2051 9.15384 12.2051H7.53845V13.4615C7.53845 13.7589 7.29738 14 6.99999 14C6.70261 14 6.46153 13.7589 6.46153 13.4615V12.2051H4.84615C4.54876 12.2051 4.30769 11.9641 4.30769 11.6667C4.30769 11.3693 4.54876 11.1282 4.84615 11.1282H6.46153V9.66273C4.03848 9.39488 2.15384 7.34061 2.15384 4.84615Z" fill="black"/>
</g>
</g>
<defs>
<clipPath id="clip0_295_4714">
<rect width="14" height="14" fill="white"/>
</clipPath>
</defs>
</svg>
