<svg xmlns="http://www.w3.org/2000/svg" fill="none" viewBox="0 0 14 14"><g clip-path="url(#a)"><path fill="#000" d="M8.567 14c-.384 0-.738-.18-1.036-.332-.184-.094-.414-.21-.53-.21s-.347.116-.532.21c-.373.19-.839.427-1.338.292-.51-.135-.797-.58-1.028-.938-.103-.16-.244-.38-.334-.434-.091-.05-.345-.064-.55-.074-.42-.021-.942-.048-1.313-.412-.373-.38-.399-.902-.42-1.322-.01-.204-.022-.458-.077-.553-.05-.085-.27-.227-.43-.33-.358-.231-.804-.518-.94-1.03-.134-.5.103-.963.293-1.336.094-.184.211-.414.211-.531 0-.116-.117-.346-.21-.531C.141 6.096-.096 5.632.04 5.13c.135-.509.58-.796.939-1.027.16-.103.38-.244.433-.334.051-.091.064-.345.074-.55.021-.42.048-.942.412-1.314.38-.372.902-.398 1.322-.419.204-.01.458-.022.553-.077.085-.05.227-.27.33-.43.231-.358.518-.804 1.03-.94.499-.133.963.103 1.336.293.184.094.415.21.531.21s.346-.116.531-.21c.374-.19.841-.425 1.339-.292.51.135.796.58 1.027.938.104.16.244.38.335.433.09.052.344.065.549.075.42.021.942.048 1.314.411.372.38.398.903.42 1.323.01.204.022.458.076.553.05.085.27.227.431.33.358.231.803.517.939 1.028.133.501-.103.965-.293 1.338-.094.184-.21.414-.21.531 0 .116.116.346.21.531.19.373.427.837.293 1.339-.136.509-.581.796-.939 1.027-.16.103-.38.244-.433.334s-.065.345-.075.55c-.02.42-.047.942-.411 1.314-.38.372-.902.398-1.322.419-.205.01-.458.022-.553.077-.086.05-.227.27-.33.43-.232.358-.519.804-1.03.94a1.1 1.1 0 0 1-.301.039M5.443 1.168H5.43c-.081.032-.253.3-.345.443-.186.289-.397.615-.728.808-.341.196-.733.216-1.08.233-.17.008-.487.024-.557.08-.045.06-.061.376-.07.547-.016.346-.036.738-.23 1.075-.195.335-.522.545-.81.731-.145.093-.412.265-.443.348-.011.084.123.348.204.506.159.311.34.664.34 1.061s-.18.75-.34 1.06c-.08.159-.215.423-.204.51.031.08.299.252.443.345.288.186.615.396.808.728.196.34.215.732.232 1.079.009.17.025.488.081.557.059.046.376.061.546.07.346.016.738.036 1.076.23.335.195.545.522.73.81.093.145.266.412.348.444.081.02.349-.123.507-.205.31-.159.664-.339 1.06-.339.397 0 .75.18 1.061.34.158.08.405.22.509.203.08-.031.253-.299.345-.443.186-.288.397-.615.728-.808.34-.196.733-.215 1.08-.232.17-.009.487-.024.556-.081.046-.058.062-.376.07-.546.017-.346.037-.738.23-1.076.196-.335.522-.545.81-.73.146-.093.412-.266.444-.348.011-.084-.123-.349-.204-.506-.159-.312-.34-.665-.34-1.061 0-.397.18-.75.34-1.061.08-.157.213-.42.204-.507-.033-.083-.3-.255-.443-.347-.289-.186-.615-.397-.808-.728-.196-.34-.215-.732-.233-1.08-.008-.17-.024-.487-.08-.556-.059-.046-.376-.062-.546-.07-.346-.016-.738-.037-1.076-.23-.335-.196-.545-.522-.731-.81-.093-.145-.265-.412-.348-.444-.08-.02-.348.123-.506.205-.311.158-.664.339-1.06.339-.397 0-.75-.18-1.062-.34-.151-.077-.4-.204-.496-.204m7.39 4.263q0 .002 0 0M5.829 9.732a.58.58 0 0 1-.412-.171L3.465 7.608a.583.583 0 1 1 .825-.825l1.54 1.54L9.711 4.44a.583.583 0 1 1 .825.825L6.242 9.56a.58.58 0 0 1-.413.172"/></g><defs><clipPath id="a"><path fill="#fff" d="M0 0h14v14H0z"/></clipPath></defs></svg>