<svg xmlns="http://www.w3.org/2000/svg" fill="none" viewBox="0 0 14 14"><g clip-path="url(#a)"><path fill="#000" d="M12.6 0H1.4C.628 0 0 .628 0 1.4v11.2c0 .772.628 1.4 1.4 1.4h11.2c.772 0 1.4-.628 1.4-1.4V1.4c0-.772-.627-1.4-1.4-1.4m-.818 4.65q-.066 1.478-2.062 4.043c-1.375 1.788-2.542 2.681-3.49 2.681q-.886.001-1.498-1.634c-.797-2.916-1.138-4.626-1.794-4.626q-.113.001-.793.476l-.476-.613c1.166-1.025 2.279-2.162 2.975-2.225q1.182-.113 1.454 1.615c.647 4.1.934 4.719 2.112 2.862q.634-1.003.682-1.528c.11-1.037-.81-.965-1.432-.7q.746-2.441 2.85-2.374 1.56.045 1.472 2.023"/></g><defs><clipPath id="a"><path fill="#fff" d="M0 0h14v14H0z"/></clipPath></defs></svg>