<svg xmlns="http://www.w3.org/2000/svg" fill="none" viewBox="0 0 14 14"><g clip-path="url(#a)"><path fill="#000" fill-rule="evenodd" d="M11.81.067c.234.113.383.35.383.61v12.646a.677.677 0 0 1-1.1.528l-4.33-3.464h-4.28a.677.677 0 0 1-.677-.677V4.29c0-.374.304-.677.678-.677h4.278l4.33-3.465a.68.68 0 0 1 .718-.081m-.971 2.02L7.423 4.819A.68.68 0 0 1 7 4.968H3.161v4.064H7c.154 0 .303.053.423.149l3.416 2.732z" clip-rule="evenodd"/></g><defs><clipPath id="a"><path fill="#fff" d="M0 0h14v14H0z"/></clipPath></defs></svg>