<svg xmlns="http://www.w3.org/2000/svg" viewBox="0 0 14 14"><g clip-path="url(#a)"><path fill-rule="evenodd" d="M8.16 1.344a.55.55 0 0 1 .314.498v10.316a.553.553 0 0 1-.898.431L4.043 9.763H.553A.553.553 0 0 1 0 9.21V4.79c0-.306.247-.553.553-.553h3.49L7.576 1.41a.55.55 0 0 1 .584-.067m-.792 1.648L4.582 5.22a.55.55 0 0 1-.345.121H1.105v3.316h3.132c.125 0 .247.043.345.121l2.786 2.229zm4.21-.326a.553.553 0 0 1 .78.048c2.19 2.479 2.189 6.093.001 8.578a.553.553 0 1 1-.83-.73c1.821-2.068 1.82-5.056.001-7.116a.553.553 0 0 1 .048-.78m-.924 2.064a.553.553 0 0 0-.883.664c.721.96.722 2.245-.001 3.213a.553.553 0 0 0 .885.662 3.76 3.76 0 0 0 0-4.539" clip-rule="evenodd"/></g><defs><clipPath id="a"><path d="M0 0h14v14H0z"/></clipPath></defs></svg>