<svg xmlns="http://www.w3.org/2000/svg" viewBox="0 0 14 14"><g clip-path="url(#a)"><path fill-rule="evenodd" d="M10.39.677A.677.677 0 0 0 9.288.148l-4.33 3.465H.678a.677.677 0 0 0-.677.677v5.42c0 .374.304.677.678.677h4.278l4.33 3.465a.678.678 0 0 0 1.101-.53zM5.618 4.82l3.416-2.732v9.826L5.619 9.181a.68.68 0 0 0-.423-.149H1.357V4.968h3.839a.68.68 0 0 0 .423-.149m7.444-.601a.678.678 0 0 0-1.084.814 3.25 3.25 0 0 1 0 3.938.677.677 0 1 0 1.085.811 4.61 4.61 0 0 0-.002-5.563" clip-rule="evenodd"/></g><defs><clipPath id="a"><path d="M0 0h14v14H0z"/></clipPath></defs></svg>