<svg xmlns="http://www.w3.org/2000/svg" viewBox="0 0 14 14"><g clip-path="url(#a)"><path d="M11.599 8.6a1 1 0 1 1-2 0 1 1 0 0 1 2 0"/><path fill-rule="evenodd" d="M12.399 3.2h.2c.772 0 1.4.628 1.4 1.4v8c0 .772-.627 1.4-1.4 1.4H1.4C.628 14 0 13.372 0 12.6v-8q0-.141.028-.275l.014-.049.01-.033q.022-.091.055-.176a1 1 0 0 1 .045-.089l.011-.022q.03-.064.068-.123l.043-.056.022-.028.003-.003a.833.833 0 0 1 .18-.192l.017-.015q.047-.042.098-.08.043-.03.087-.054l.015-.008a1.094 1.094 0 0 1 .219-.104l.024-.01c.044-.014.088-.03.134-.04q.064-.014.13-.023l.037-.007.05-.008L10.81.03q.09-.03.189-.03c.772 0 1.4.628 1.4 1.4zm-1.2-1.8a.2.2 0 0 0-.136-.189L5.098 3.2h6.101zm1.4 11.4c.109 0 .2-.092.2-.2v-8c0-.109-.091-.2-.2-.2h-11.2c-.108 0-.2.09-.2.2v8c0 .108.092.2.2.2z" clip-rule="evenodd"/></g><defs><clipPath id="a"><path d="M0 0h14v14H0z"/></clipPath></defs></svg>