<svg xmlns="http://www.w3.org/2000/svg" fill="none" viewBox="0 0 14 14"><g clip-path="url(#a)"><path fill="#000" d="M11.903 2.034A6.88 6.88 0 0 0 6.997 0 6.946 6.946 0 0 0 .984 10.406L0 14l3.678-.966a6.9 6.9 0 0 0 3.315.843h.004c3.822 0 7.003-3.112 7.003-6.937 0-1.853-.788-3.593-2.097-4.906M6.997 12.71a5.76 5.76 0 0 1-2.937-.803l-.21-.125-2.18.572.58-2.128-.137-.218a5.75 5.75 0 0 1-.881-3.07A5.774 5.774 0 0 1 7 1.174c1.541 0 2.988.6 4.075 1.69s1.756 2.538 1.754 4.078c-.001 3.181-2.654 5.768-5.832 5.768m3.162-4.319c-.171-.087-1.024-.506-1.185-.562-.159-.06-.274-.088-.39.087a10 10 0 0 1-.55.682c-.1.115-.203.131-.376.044C6.64 8.13 5.971 7.73 5.3 6.578c-.178-.306.179-.284.51-.947.056-.115.028-.215-.016-.302-.044-.088-.39-.94-.535-1.287-.14-.338-.284-.29-.39-.297-.1-.006-.215-.006-.332-.006a.64.64 0 0 0-.462.215c-.16.175-.607.594-.607 1.447s.622 1.679.706 1.794c.088.116 1.222 1.866 2.963 2.619 1.1.475 1.531.515 2.082.434.334-.05 1.024-.42 1.169-.825.143-.406.143-.754.1-.825-.04-.08-.156-.124-.328-.208"/></g><defs><clipPath id="a"><path fill="#fff" d="M0 0h14v14H0z"/></clipPath></defs></svg>