<svg xmlns="http://www.w3.org/2000/svg" fill="none" viewBox="0 0 14 14"><g clip-path="url(#a)"><path fill="#000" fill-rule="evenodd" d="M1.01 5.197c3.425-3.193 8.555-3.193 11.98 0a.6.6 0 1 0 .82-.878C9.922.696 4.076.696.19 4.319a.6.6 0 1 0 .82.878M3.164 7.48c2.237-1.976 5.48-1.976 7.727 0a.6.6 0 0 0 .792-.9c-2.698-2.376-6.622-2.376-9.313 0a.6.6 0 1 0 .794.9m5.588 2.31a2.88 2.88 0 0 0-3.489 0 .6.6 0 1 1-.72-.96 4.08 4.08 0 0 1 4.927 0 .6.6 0 1 1-.718.96M7 11.199a.6.6 0 1 0 0 1.2h.008a.6.6 0 1 0 0-1.2z" clip-rule="evenodd"/></g><defs><clipPath id="a"><path fill="#fff" d="M0 0h14v14H0z"/></clipPath></defs></svg>