<svg width="14" height="14" viewBox="0 0 14 14" fill="none" xmlns="http://www.w3.org/2000/svg">
<g id="wifi">
<g clip-path="url(#clip0_156_4617)">
<path id="Vector" fill-rule="evenodd" clip-rule="evenodd" d="M1.00912 5.19682C4.43467 2.00363 9.56533 2.00363 12.9909 5.19682C13.2333 5.42277 13.6129 5.40944 13.8389 5.16704C14.0648 4.92465 14.0515 4.54499 13.8091 4.31904C9.92267 0.696225 4.07733 0.696225 0.190885 4.31904C-0.0515063 4.54499 -0.0648354 4.92465 0.161114 5.16704C0.387063 5.40944 0.766728 5.42277 1.00912 5.19682ZM3.16516 7.47975C5.40192 5.50443 8.64583 5.50357 10.8915 7.48039C11.1403 7.69934 11.5194 7.6752 11.7384 7.42646C11.9573 7.17773 11.9332 6.7986 11.6844 6.57965C8.98616 4.20447 5.06207 4.20361 2.37083 6.58029C2.12245 6.79964 2.09891 7.17881 2.31826 7.42719C2.53761 7.67557 2.91678 7.6991 3.16516 7.47975ZM8.75298 9.79066C7.70124 9.00518 6.30628 9.00656 5.26449 9.78956C4.9996 9.98865 4.62346 9.93531 4.42437 9.67041C4.22528 9.40552 4.27862 9.02939 4.54352 8.83029C6.01372 7.7253 7.99477 7.72668 9.47103 8.8292C9.73653 9.02748 9.79102 9.40345 9.59273 9.66895C9.39445 9.93445 9.01848 9.98894 8.75298 9.79066ZM7 11.198C6.66863 11.198 6.4 11.4666 6.4 11.798C6.4 12.1294 6.66863 12.398 7 12.398H7.008C7.33937 12.398 7.608 12.1294 7.608 11.798C7.608 11.4666 7.33937 11.198 7.008 11.198H7Z" fill="black"/>
</g>
</g>
<defs>
<clipPath id="clip0_156_4617">
<rect width="14" height="14" fill="white"/>
</clipPath>
</defs>
</svg>
