<svg xmlns="http://www.w3.org/2000/svg" fill="none" viewBox="0 0 14 14"><g fill="#000" clip-path="url(#a)"><path d="M7 14h4.8c1.214 0 2.2-.986 2.2-2.2V2.2C14 .986 13.014 0 11.8 0H2.2C.986 0 0 .986 0 2.2V7a.6.6 0 0 0 1.2 0V2.2c0-.551.449-1 1-1h9.6c.551 0 1 .449 1 1v9.6c0 .551-.449 1-1 1H7A.6.6 0 0 0 7 14"/><path d="M9.6 7a.6.6 0 0 0 1.2 0V3.826a.6.6 0 0 0-.626-.626H7a.6.6 0 0 0 0 1.2h1.751L6.176 6.975a.6.6 0 1 0 .849.849L9.6 5.249z"/><path fill-rule="evenodd" d="M1.4 14h2.4c.772 0 1.4-.628 1.4-1.4v-2.4c0-.772-.628-1.4-1.4-1.4H1.4c-.772 0-1.4.628-1.4 1.4v2.4c0 .772.628 1.4 1.4 1.4m-.2-3.8c0-.11.09-.2.2-.2h2.4c.109 0 .2.091.2.2v2.4c0 .109-.091.2-.2.2H1.4a.2.2 0 0 1-.2-.2z" clip-rule="evenodd"/></g><defs><clipPath id="a"><path fill="#fff" d="M0 0h14v14H0z"/></clipPath></defs></svg>