<svg xmlns="http://www.w3.org/2000/svg" fill="none" viewBox="0 0 14 14"><g clip-path="url(#a)"><path fill="#000" fill-rule="evenodd" d="M2.2 0C.989 0 0 .989 0 2.2V7a.6.6 0 0 0 1.2 0V2.2c0-.549.451-1 1-1h9.6c.549 0 1 .451 1 1v9.6c0 .549-.451 1-1 1H7A.6.6 0 1 0 7 14h4.8c1.211 0 2.2-.989 2.2-2.2V2.2C14 .989 13.011 0 11.8 0zm5 4.2a.6.6 0 0 0-1.2 0v3.2a.6.6 0 0 0 .6.6h3.2a.6.6 0 1 0 0-1.2H8.049l2.575-2.576a.6.6 0 0 0-.848-.848L7.2 5.95zm-6 6c0-.11.09-.2.2-.2h2.4c.11 0 .2.09.2.2v2.4a.2.2 0 0 1-.2.2H1.4a.2.2 0 0 1-.2-.2zm.2-1.4A1.4 1.4 0 0 0 0 10.2v2.4A1.4 1.4 0 0 0 1.4 14h2.4a1.4 1.4 0 0 0 1.4-1.4v-2.4a1.4 1.4 0 0 0-1.4-1.4z" clip-rule="evenodd"/></g><defs><clipPath id="a"><path fill="#fff" d="M0 0h14v14H0z"/></clipPath></defs></svg>