<svg xmlns="http://www.w3.org/2000/svg" viewBox="0 0 14 14"><g clip-path="url(#a)"><path d="M2.293 14H2.29a2.294 2.294 0 0 1-1.622-3.912L5.076 5.68a4.56 4.56 0 0 1 1.168-4.358A4.53 4.53 0 0 1 10.629.159a.601.601 0 0 1 .266 1.003l-1.962 1.96.418 1.527 1.526.417 1.96-1.96a.599.599 0 0 1 1.003.266 4.53 4.53 0 0 1-1.163 4.385c-1.133 1.132-2.808 1.569-4.359 1.167L3.911 13.33a2.27 2.27 0 0 1-1.618.67M9.145 1.214c-.764.068-1.495.4-2.053.958-.912.913-1.207 2.245-.771 3.48a.6.6 0 0 1-.142.624l-4.66 4.66a1.093 1.093 0 0 0 .773 1.864c.292 0 .565-.114.77-.318L7.726 7.82a.6.6 0 0 1 .624-.142c1.235.434 2.568.142 3.48-.771.558-.559.89-1.29.958-2.054L11.48 6.161a.6.6 0 0 1-.582.155l-2.193-.6a.6.6 0 0 1-.421-.42l-.6-2.192a.6.6 0 0 1 .154-.583z"/></g><defs><clipPath id="a"><path d="M0 0h14v14H0z"/></clipPath></defs></svg>