<svg xmlns="http://www.w3.org/2000/svg" viewBox="0 0 14 14"><g clip-path="url(#a)"><path d="M13.71 3.61a1.76 1.76 0 0 0-1.235-1.245C11.38 2.068 7 2.068 7 2.068s-4.38 0-5.476.297A1.76 1.76 0 0 0 .29 3.61C0 4.713 0 7.009 0 7.009S0 9.304.29 10.408c.158.604.64 1.069 1.235 1.226 1.095.298 5.476.298 5.476.298s4.38 0 5.476-.298a1.73 1.73 0 0 0 1.235-1.226c.289-1.104.289-3.4.289-3.4s0-2.295-.29-3.398M5.555 9.085v-4.17L9.216 7z"/></g><defs><clipPath id="a"><path d="M0 0h14v14H0z"/></clipPath></defs></svg>