<svg width="14" height="14" viewBox="0 0 14 14" fill="none" xmlns="http://www.w3.org/2000/svg">
<g id="youtube">
<g clip-path="url(#clip0_156_4480)">
<path id="Vector" d="M13.7108 3.60952C13.5531 3.00501 13.0713 2.52312 12.4755 2.36542C11.3804 2.06755 6.99995 2.06758 6.99995 2.06758C6.99995 2.06758 2.61948 2.06755 1.52436 2.36542C0.919856 2.53188 0.446762 3.00501 0.289065 3.60952C-4.60743e-05 4.7134 -6.10352e-05 7.00877 -6.10352e-05 7.00877C-6.10352e-05 7.00877 -4.60743e-05 9.30414 0.289065 10.408C0.446762 11.0125 0.928617 11.4768 1.52436 11.6345C2.61948 11.9324 6.99995 11.9324 6.99995 11.9324C6.99995 11.9324 11.3804 11.9324 12.4755 11.6345C13.08 11.4681 13.5531 11.0125 13.7108 10.408C14 9.30414 13.9999 7.00877 13.9999 7.00877C13.9999 7.00877 14 4.7134 13.7108 3.60952ZM5.55438 9.08511V4.91489L9.21647 7L5.55438 9.08511Z" fill="black"/>
</g>
</g>
<defs>
<clipPath id="clip0_156_4480">
<rect width="14" height="14" fill="white"/>
</clipPath>
</defs>
</svg>
